<?xml version="1.0" encoding="utf-8"?>
<!-- Generator: Adobe Illustrator 26.0.0, SVG Export Plug-In . SVG Version: 6.00 Build 0)  -->
<svg version="1.1" xmlns="http://www.w3.org/2000/svg" xmlns:xlink="http://www.w3.org/1999/xlink" x="0px" y="0px" width="150px"
	 height="400px" viewBox="0 0 150 400" style="enable-background:new 0 0 150 400;" xml:space="preserve">
<style type="text/css">
	.st0{fill:#FFF7DB;}
	.st1{fill:#6F4B3E;}
	.st2{fill:#274A78;}
	.st3{fill:#9A2024;}
	.st4{fill-rule:evenodd;clip-rule:evenodd;fill:#274A78;}
	.st5{fill-rule:evenodd;clip-rule:evenodd;fill:#9A2024;}
</style>
<g id="レイヤー_1">
	<g>
		<rect class="st0" width="150" height="400"/>
	</g>
</g>
<g id="レイヤー_2">
	<g>
		<path class="st2" d="M49.731,200.064c-2.101,0-3.431,0.14-5.391,0.49l-0.49-2.73c2.59,0.49,3.851,0.63,5.95,0.63h6.861
			c0.07-2.1,0.07-4.2,0.07-10.641c-4.201,1.96-7.071,3.01-11.901,4.271l-0.28-0.84c8.681-3.92,14.842-8.261,18.832-13.091
			c1.96,1.33,1.96,1.33,4.83,3.64c0.49,0.35,0.63,0.49,0.63,0.77c0,0.42-0.489,0.7-1.05,0.7c-0.49,0-0.77-0.07-2.38-0.35
			c-1.471,1.12-2.171,1.54-3.921,2.521c0,10.921,0,10.921-0.14,13.021h9.451c0-1.4,0-2.31,0-2.8v-6.021
			c0-6.161-0.141-8.471-0.42-11.691c1.47,0.14,2.729,0.28,3.5,0.35c3.36,0.28,4.55,0.63,4.55,1.26c0,0.7-0.91,1.26-2.87,1.82v14.631
			c0,0.49,0,1.19,0,2.45h6.651l1.47-1.61l1.33-1.47c1.82,1.26,2.311,1.68,3.921,2.94c0.42,0.42,0.63,0.63,0.63,0.84
			c0,0.49-0.49,0.91-2.45,2.101c0.14,3.851,0.35,5.74,0.91,8.541c2.66-2.311,4.97-4.901,6.511-7.421c3.71,2.73,5.18,4.061,5.18,4.48
			c0,0.35-0.489,0.7-0.909,0.7c-0.421,0-0.7-0.07-2.311-0.561c-3.15,1.54-5.251,2.45-7.911,3.5c4.62,0.91,8.121,2.101,10.151,3.501
			c1.05,0.77,1.54,1.61,1.54,2.66c0,1.82-0.63,3.5-1.33,3.5c-0.42,0-0.91-0.42-1.681-1.47c-2.45-3.29-5.811-6.161-8.961-7.701
			c0.771,2.801,1.471,4.551,2.871,6.651c2.45,3.78,4.97,5.95,9.591,8.4c1.61-3.99,2.45-6.23,4.971-13.512l0.699,0.28l-1.609,13.231
			c-0.07,0.35-0.07,0.63-0.07,0.771c0,0.489,0.14,0.77,1.05,1.54c0.771,0.63,1.19,1.4,1.19,2.17c0,1.19-0.91,1.96-2.24,1.96
			c-3.29,0-8.891-2.94-12.812-6.79c-6.16-6.091-8.331-12.182-9.381-25.623h-7.07v12.881c0,6.932,0.14,11.481,0.42,19.043
			c-0.141,0.909-1.051,1.189-3.851,1.189c-1.19,0-1.54-0.28-1.54-1.05c0-0.07,0-0.14,0-0.28c0.21-6.931,0.21-6.931,0.21-31.783
			h-9.521c-0.211,3.78-0.421,6.301-0.561,7.561c-1.12,7.421-3.851,13.372-8.541,18.622c-2.17,2.38-3.99,3.99-7.631,6.721l-0.77-0.77
			c5.811-6.371,8.61-10.781,10.57-16.732c1.471-4.55,2.03-8.331,2.24-15.401H49.731z M85.085,173.952c1.26-1.26,1.61-1.75,2.94-3.15
			c1.68,1.4,2.24,1.82,3.85,3.081c0.421,0.42,0.561,0.63,0.561,0.84c0,0.42-0.561,0.77-2.521,1.82c0.07,3.22,0.21,4.761,0.7,7.281
			c3.36-3.081,6.23-6.651,7.701-9.451c1.05,0.77,1.82,1.4,2.38,1.82c1.891,1.47,2.87,2.38,2.87,2.8c0,0.35-0.42,0.63-0.84,0.63
			c-0.28,0-1.61-0.14-2.521-0.35c-3.851,2.8-6.23,4.13-9.241,5.46c7.071,1.33,10.151,2.87,10.151,5.25c0,1.47-0.77,3.22-1.47,3.22
			c-0.351,0-0.771-0.35-1.471-1.26c-2.59-3.36-4.55-5.11-7.141-6.51c0.561,2.03,1.12,3.36,2.03,5.041
			c2.17,4.06,4.2,6.161,8.191,8.331c0.77-1.75,0.77-1.75,2.03-4.9c0.909-2.45,1.68-4.271,2.24-5.67l0.699,0.28l-1.47,10.291
			c0,0.21,0,0.77,0,0.84c0,0.49,0.14,0.77,0.63,1.33c0.771,0.91,1.12,1.47,1.12,2.101c0,1.05-0.91,1.819-2.17,1.819
			c-2.87,0-7.631-2.87-10.991-6.65c-3.221-3.5-5.32-7.771-6.511-13.091c-0.63-2.73-0.91-4.9-1.12-9.591H54.632
			c-2.03,0-3.851,0.14-5.671,0.49l-0.56-2.8c2.59,0.56,3.99,0.7,6.23,0.7H85.085z"/>
		<path class="st2" d="M92.646,273.982c1.05-1.26,1.33-1.68,2.38-2.94c2.03,1.12,2.591,1.471,4.271,2.73
			c0.841,0.56,1.12,0.91,1.12,1.26c0,0.49-0.63,0.98-2.66,2.03c-0.07,6.371-0.07,6.371-0.07,8.261c0,4.341,0.07,7.421,0.28,14.492
			v0.069c-0.069,0.631-0.14,0.771-0.63,0.98c-0.56,0.21-2.45,0.42-3.5,0.42c-0.631,0-0.841-0.14-0.91-0.7v-1.96H58.622v1.47
			c-0.07,1.19-0.28,1.261-3.851,1.541c-0.7,0-1.12-0.28-1.12-0.841c0-0.069,0-0.14,0-0.21c0.21-5.88,0.28-8.261,0.28-14.562v-11.411
			c-3.011,2.381-5.04,3.711-10.011,6.371l-0.63-0.98c6.16-4.41,10.291-8.471,14.701-14.281c3.15-4.2,5.53-8.191,6.931-11.411
			c2.45,0.7,5.251,1.61,6.511,2.17c0.63,0.28,0.91,0.561,0.91,0.84c0,0.49-0.561,0.7-3.221,1.19c-1.54,2.24-2.1,3.011-3.15,4.271
			h13.861l3.011-3.431c2.24,1.681,2.94,2.24,5.11,4.061c0.56,0.63,0.77,0.98,0.77,1.261c0,0.63-1.119,0.979-4.2,1.33
			c-3.57,3.78-3.57,3.78-8.051,7.98H92.646z M56.102,303.245c-0.42,4.761-1.75,8.191-4.271,11.132c-1.54,1.82-3.43,3.01-4.69,3.01
			c-0.979,0-2.24-1.96-2.24-3.71c0-1.12,0.49-1.75,1.751-2.171c2.17-0.699,3.57-1.54,5.39-3.5c1.61-1.68,2.311-2.87,3.011-4.971
			L56.102,303.245z M74.374,273.982c2.87-3.99,3.36-4.9,5.46-9.591H64.643c-2.8,3.22-4.971,5.391-8.121,8.121
			c0.7,0.56,0.91,0.77,1.681,1.47H74.374z M73.254,285.113v-9.521H58.622v9.521H73.254z M73.254,286.724H58.622v10.291h14.632
			V286.724z M63.873,302.545c1.82,1.61,2.94,2.801,4.55,4.831c1.61,2.17,2.171,3.29,2.171,4.48c0,1.96-1.82,4.761-3.15,4.761
			c-0.561,0-0.91-0.42-1.051-1.4c-0.84-4.9-1.33-6.581-3.29-12.182L63.873,302.545z M77.664,302.195c1.96,1.19,3.99,2.87,6.44,5.251
			c1.54,1.47,2.38,2.87,2.38,3.85c0,0.561-0.14,1.19-0.699,2.871c-0.42,1.33-0.98,1.96-1.681,1.96c-0.63,0-0.91-0.351-1.26-1.471
			c-0.351-1.26-2.03-5.18-2.66-6.37c-0.141-0.42-0.98-1.75-2.311-3.851c-0.21-0.35-0.561-0.98-1.05-1.75L77.664,302.195z
			 M92.926,275.593H77.734v9.521h15.191V275.593z M77.734,286.724v10.291h15.191v-10.291H77.734z M91.735,302.686
			c2.801,1.19,5.181,2.59,9.381,5.461c2.171,1.54,3.15,3.01,3.15,4.97c0,0.841-0.42,2.171-0.979,3.221
			c-0.351,0.56-0.7,0.84-1.19,0.84c-0.91,0-1.19-0.35-2.45-3.08c-1.61-3.29-4.971-7.561-8.471-10.711L91.735,302.686z"/>
	</g>
	<g>
		<path class="st2" d="M63.79,366.737c-0.18,0.48-0.285,0.945-0.285,1.23c0,0.54,0.391,0.779,1.261,0.81v0.375h-3.511v-0.375
			c0.855,0,1.351-0.524,1.92-2.04l3.195-8.459l0.93-0.105l3.181,9.06c0.42,1.23,0.704,1.515,1.574,1.545v0.375h-3.869v-0.375
			c0.765-0.03,1.079-0.21,1.079-0.645c0-0.181-0.06-0.48-0.18-0.855l-0.63-1.89h-4.185L63.79,366.737z M66.43,359.583l-1.949,5.25
			h3.779L66.43,359.583z"/>
		<path class="st2" d="M78.391,362.088c0.585,0.6,0.855,1.229,0.855,2.01c0,1.59-1.17,2.61-2.97,2.61
			c-0.45,0-0.766-0.046-1.32-0.181c-0.555,0.3-0.78,0.556-0.78,0.9c0,0.569,0.391,0.75,1.65,0.75c0.21,0,0.33,0,0.705,0
			c0.12,0,0.285,0,0.345,0c1.021,0,1.5,0.045,1.92,0.149c0.825,0.24,1.245,0.78,1.245,1.62c0,0.735-0.45,1.485-1.125,1.86
			c-0.675,0.39-1.53,0.569-2.655,0.569c-1.005,0-1.755-0.149-2.324-0.465c-0.556-0.3-0.811-0.765-0.811-1.455
			c0-0.63,0.12-0.779,1.05-1.38c-0.645-0.3-0.944-0.72-0.944-1.319c0-0.42,0.135-0.615,0.72-1.021l0.585-0.39
			c-0.42-0.285-0.585-0.435-0.75-0.646c-0.314-0.39-0.479-0.944-0.479-1.545c0-1.02,0.435-1.904,1.17-2.34
			c0.51-0.3,1.14-0.449,1.845-0.449c0.314,0,0.585,0.029,1.005,0.104c0.479,0.075,0.6,0.09,0.945,0.09
			c0.375,0,0.824-0.015,1.635-0.045v0.57H78.391z M74.116,370.322c0,1.11,0.795,1.695,2.325,1.695c1.604,0,2.595-0.66,2.595-1.71
			c0-0.63-0.345-0.96-1.155-1.095c-0.314-0.045-0.75-0.061-1.71-0.061c-0.524,0-1.425,0.016-1.439,0.03
			C74.312,369.332,74.116,369.692,74.116,370.322z M74.911,365.657c0.255,0.45,0.765,0.721,1.365,0.721
			c1.095,0,1.68-0.795,1.68-2.28c0-1.575-0.57-2.385-1.68-2.385c-1.125,0-1.71,0.765-1.71,2.265
			C74.566,364.652,74.687,365.253,74.911,365.657z"/>
		<path class="st2" d="M81.934,362.373c0.63-0.646,1.575-1.005,2.61-1.005c2.189,0,3.63,1.545,3.63,3.899
			c0,2.505-1.44,4.08-3.72,4.08c-2.175,0-3.615-1.545-3.615-3.87C80.839,364.232,81.244,363.078,81.934,362.373z M84.499,368.987
			c1.47,0,2.279-1.274,2.279-3.585c0-2.34-0.84-3.689-2.31-3.689c-1.439,0-2.234,1.274-2.234,3.569
			C82.234,367.638,83.059,368.987,84.499,368.987z"/>
	</g>
	<g>
		<path class="st4" d="M127.74,86.798c0.086-1.813,12.345-13.294,9.323-13.294c-2.074,0-17.61,9.668-19.682,10.532
			c-2.072,0.863-10.532-0.863-12.604-1.381c0-1.036,5.352-2.244,3.453-2.935c-1.899-0.691-14.675-4.489-16.229-5.352
			c-1.554-0.863-3.798,2.762-5.352,4.489c-1.036-0.173-2.244-0.345-3.798-0.173c2.762-1.727,24.171-21.581,18.646-22.79
			c-7.245-1.585-46.616,10.186-64.264,20.403C27.52,75.61,10.117,79.061,5.94,81.586c-3.908,2.364-1.916,2.81-0.701,3.756
			c-0.837,0.428-3.112,0.841-1.882,1.972c5.972,5.493,36.504,11.398,64.818,8.894c3.108,7.338,11.992,16.704,14.675,16.315
			c7.165-1.036,6.733-12.344,4.748-12.258c-1.986,0.086-6.475-0.518-13.985-4.402c2.158,0,11.999-0.863,14.934-1.813
			c1.122,1.468,6.733,6.129,7.51,6.043c0.777-0.086,9.323-5.438,10.186-5.697c0.863-0.259-2.331-1.122-3.367-2.331
			c1.727-0.086,12.345-0.604,14.33-0.604c1.986,0,28.453,19.52,29.092,16.92C147.509,103.459,127.654,88.611,127.74,86.798
			L127.74,86.798z"/>
	</g>
</g>
</svg>
