<?xml version="1.0" encoding="utf-8"?>
<!-- Generator: Adobe Illustrator 26.0.0, SVG Export Plug-In . SVG Version: 6.00 Build 0)  -->
<svg version="1.1" xmlns="http://www.w3.org/2000/svg" xmlns:xlink="http://www.w3.org/1999/xlink" x="0px" y="0px" width="150px"
	 height="400px" viewBox="0 0 150 400" style="enable-background:new 0 0 150 400;" xml:space="preserve">
<style type="text/css">
	.st0{fill:#FFF7DB;}
	.st1{fill:#6F4B3E;}
	.st2{fill:#274A78;}
	.st3{fill:#9A2024;}
	.st4{fill-rule:evenodd;clip-rule:evenodd;fill:#274A78;}
	.st5{fill-rule:evenodd;clip-rule:evenodd;fill:#9A2024;}
</style>
<g id="レイヤー_1">
	<g>
		<rect class="st0" width="150" height="400"/>
	</g>
</g>
<g id="レイヤー_2">
	<g>
		<path class="st1" d="M106.413,53.095l5.516-4.634c-0.872-1.019-1.782-2.007-2.731-2.956c-0.88-0.879-1.792-1.723-2.734-2.536
			l-4.732,5.421c0.808,0.694,1.588,1.418,2.341,2.172C104.886,51.375,105.667,52.219,106.413,53.095L106.413,53.095z
			 M104.073,110.987c-0.609,0.609-1.235,1.198-1.879,1.769l4.81,5.352c0.751-0.666,1.483-1.356,2.194-2.063
			c1.117-1.117,2.182-2.287,3.189-3.502l-5.581-4.556C105.942,109.03,105.031,110.031,104.073,110.987L104.073,110.987z
			 M113.241,97.409c-0.756,1.786-1.631,3.509-2.614,5.162l6.221,3.646c1.147-1.926,2.17-3.94,3.053-6.027l0.372-0.904l-6.713-2.651
			L113.241,97.409L113.241,97.409z M78.233,123.273l0.734,7.134c2.617-0.266,5.175-0.732,7.658-1.387l-1.852-6.931
			C82.655,122.646,80.47,123.046,78.233,123.273L78.233,123.273z M116.499,83.782c-0.155,2.234-0.482,4.42-0.967,6.542l7.045,1.587
			c0.568-2.48,0.949-5.033,1.129-7.635L116.499,83.782L116.499,83.782z M96.775,116.759c-1.857,1.194-3.813,2.245-5.852,3.138
			l2.924,6.56c2.386-1.047,4.674-2.277,6.847-3.671l-3.919-6.024V116.759L96.775,116.759z M116.451,77.159l7.2-0.595
			c-0.217-2.599-0.637-5.145-1.238-7.618l-7.021,1.685C115.906,72.749,116.264,74.928,116.451,77.159L116.451,77.159z
			 M113.241,64.144l0.087,0.203l6.674-2.746l-0.1-0.238c-0.979-2.308-2.125-4.528-3.424-6.644l-6.168,3.737
			C111.422,60.267,112.405,62.169,113.241,64.144L113.241,64.144z M57.32,120.185c-5.012-2.155-9.531-5.266-13.327-9.122h-0.002
			c-3.8-3.855-6.875-8.444-8.999-13.539c-2.122-5.092-3.298-10.69-3.298-16.584c0-5.891,1.176-11.493,3.298-16.584
			c2.126-5.095,5.199-9.691,8.999-13.543h0.002c3.8-3.859,8.324-6.974,13.341-9.129c3.532-1.516,7.316-2.521,11.265-3.003v3.651
			l15.712-7.668L68.599,27v4.055c-5.033,0.512-9.849,1.771-14.328,3.666c-5.992,2.529-11.386,6.191-15.914,10.713h0.002
			c-4.528,4.518-8.19,9.902-10.723,15.883c-2.53,5.977-3.931,12.558-3.931,19.444c0,6.889,1.401,13.466,3.931,19.444
			c2.535,5.981,6.195,11.361,10.723,15.88h-0.258c4.547,4.541,9.964,8.219,15.982,10.759h-0.002
			c6.018,2.547,12.641,3.949,19.575,3.949v-7.258c-5.803,0-11.307-1.187-16.321-3.342L57.32,120.185L57.32,120.185z M96.414,83.807
			v-6.814H77.269V47.585h-6.863v35.863h0.361v0.359H96.24H96.414z M100.21,38.382c-2.192-1.362-4.498-2.56-6.9-3.572l-2.829,6.598
			c2.053,0.869,4.025,1.891,5.898,3.054L100.21,38.382L100.21,38.382z"/>
	</g>
	<g>
		<path class="st1" d="M57.118,205.385c0-1.47-0.07-2.38-0.21-4.271c1.96,0.42,2.52,0.561,4.06,0.98c1.96-1.26,2.73-1.891,4.69-3.57
			H48.997c-1.4,0-3.29,0.14-4.971,0.42l-0.42-2.521c2.311,0.42,3.221,0.49,5.391,0.49h16.662c0.98-1.05,1.26-1.33,2.24-2.24
			c2.661,1.47,2.661,1.47,5.25,2.94c0.561,0.35,0.771,0.56,0.771,0.84c0,0.63-0.49,0.771-3.08,0.98
			c-3.151,1.61-3.991,1.96-9.381,3.92v2.521c4.411-0.49,6.44-0.77,11.901-1.54l0.28,1.05c-4.971,1.261-7.071,1.75-12.181,2.801v1.68
			c0,1.61,0,1.61,0.07,5.811c0,2.871-0.98,3.641-6.301,4.69c-0.28-2.87-1.19-3.43-6.3-3.85l0.07-1.051
			c4.48,0.21,4.69,0.21,7.421,0.28c0.63,0,0.7-0.14,0.7-0.84v-5.881c-4.061,0.84-5.321,1.05-11.761,2.101
			c-0.42,1.609-0.77,2.24-1.26,2.24c-0.56,0-0.56-0.07-2.24-6.301c0.77,0.069,1.4,0.069,1.75,0.069c1.4,0,10.361-0.56,13.512-0.84
			V205.385z M69.859,177.312c1.26-1.68,1.68-2.17,2.94-3.71c2.17,1.82,2.8,2.38,4.97,4.341c0.21,0.28,0.279,0.42,0.279,0.56
			c0,0.21-0.279,0.42-0.699,0.42H48.017c-2.03,0-3.081,0.07-5.041,0.42l-0.49-2.66c2.24,0.49,3.57,0.63,5.881,0.63h8.751v-2.52
			c0-2.101-0.07-2.94-0.28-4.971c1.61,0.21,2.8,0.35,3.641,0.42c3.29,0.35,4.2,0.56,4.2,1.26c0,0.63-0.56,0.91-2.8,1.47v4.34H69.859
			z M53.197,219.877c-0.42,5.25-1.331,8.4-3.01,10.851c-1.541,2.17-3.991,3.921-5.461,3.921c-1.19,0-1.96-1.4-1.96-3.431
			c0-1.54,0.49-2.101,1.96-2.521c1.61-0.42,3.5-1.68,4.761-3.22c1.19-1.471,1.82-2.801,2.66-5.812L53.197,219.877z M51.587,193.904
			c0,0.63-0.14,0.84-0.56,0.98c-0.49,0.21-1.47,0.35-2.66,0.35c-0.7,0-0.91-0.21-0.91-0.77c0,0,0-0.07,0-0.14
			c0.14-3.15,0.14-4.2,0.14-6.931c0-2.24-0.07-4.061-0.14-6.721c2.03,0.91,2.66,1.26,4.621,2.31h14.351
			c1.12-1.26,1.47-1.61,2.59-2.8c1.541,1.19,2.031,1.54,3.5,2.8c0.42,0.42,0.561,0.63,0.561,0.771c0,0.35-0.421,0.7-1.681,1.33
			c0,1.26,0,2.31,0,2.94c0,2.66,0,2.94,0.07,5.11c0,0.07,0,0.07,0,0.07c0,0.35-0.07,0.49-0.42,0.63c-0.49,0.21-1.96,0.42-2.94,0.42
			c-0.561,0-0.771-0.14-0.771-0.7v-0.91H51.587V193.904z M51.587,191.034h15.751v-6.441H51.587V191.034z M63.558,220.156
			c4.551,4.271,6.511,6.861,6.511,8.682c0,2.38-1.89,4.97-3.57,4.97c-0.77,0-0.91-0.42-1.05-2.59
			c-0.28-4.341-0.77-6.371-2.59-10.642L63.558,220.156z M87.36,186.133c-0.28,5.321-0.98,9.591-2.101,13.441
			c4.2,4.2,5.811,6.581,5.811,8.541s-1.189,4.48-2.1,4.48c-0.7,0-0.841-0.28-2.101-3.57c-0.56-1.4-1.61-3.29-3.011-5.53
			c-1.47,3.22-3.22,5.88-5.53,8.4c-3.36,3.57-6.37,5.601-11.831,7.981l-0.49-0.841c4.971-3.15,7.911-5.88,10.781-10.081
			c2.03-2.94,3.36-5.811,4.41-9.241c-1.89-2.45-3.15-3.85-6.089-7.071l0.489-0.84c3.081,2.03,4.13,2.8,6.3,4.69
			c0.63-3.431,0.91-5.881,1.19-10.361h-3.5c-2.24,0-2.94,0.07-4.621,0.35l-0.42-2.45c1.82,0.42,2.45,0.49,5.041,0.49h3.57
			c0.14-2.94,0.14-4.34,0.14-7.351c0-3.01-0.07-4.69-0.28-7c1.471,0.21,2.66,0.35,3.431,0.42c3.36,0.35,4.271,0.63,4.271,1.33
			c0,0.49-0.771,0.84-3.011,1.47c-0.069,5.531-0.069,7.561-0.28,11.131h5.251c1.12-1.33,1.47-1.75,2.66-3.01
			c1.681,1.12,2.171,1.54,3.711,2.73c0.56,0.49,0.84,0.84,0.84,1.12c0,0.56-0.561,0.91-2.94,1.75c-0.07,2.24-0.07,3.92-0.07,4.97
			c0,5.531,0.42,9.171,1.4,13.162c0.7,2.87,1.33,4.2,3.15,6.65c0.07-0.28,1.4-3.851,3.92-10.641l0.841,0.21l-2.03,10.431
			c-0.21,1.12-0.28,1.471-0.28,1.891c0,0.77,0,0.77,0.91,1.96c0.35,0.561,0.63,1.4,0.63,2.17c0,1.19-0.84,2.03-1.96,2.03
			c-1.681,0-3.641-1.82-5.601-5.11c-3.641-6.44-5.041-13.581-5.041-26.533c0-0.49,0-1.19,0-2.17H87.36z M77.489,219.316
			c6.021,4.2,8.61,7.07,8.61,9.451c0,0.7-0.35,2.03-0.84,3.08c-0.49,0.98-1.33,1.75-2.03,1.75c-0.77,0-1.189-0.77-1.75-3.01
			c-1.05-4.201-1.89-6.23-4.551-10.711L77.489,219.316z M92.751,218.896c8.12,4.83,10.36,6.931,10.36,9.801
			c0,2.521-1.26,5.11-2.45,5.11c-0.63,0-1.12-0.489-1.54-1.75c-2.24-5.811-3.71-8.4-7.07-12.181L92.751,218.896z"/>
		<path class="st1" d="M79.8,268.803c0.489,9.661,1.89,17.082,4.41,23.522c3.431-6.44,5.881-13.161,6.37-17.642
			c6.371,1.54,7.562,1.89,7.562,2.66c0,0.561-0.7,0.84-3.15,1.47c-3.011,8.262-5.041,12.321-8.821,17.922
			c2.73,5.321,5.041,7.911,10.852,12.532c2.52-4.48,3.5-6.371,6.86-13.441l0.84,0.21l-3.43,13.231
			c-0.351,1.26-0.421,1.609-0.421,2.1c0,0.561,0.07,0.7,0.91,1.75c0.561,0.7,0.841,1.33,0.841,2.03c0,1.261-0.91,2.101-2.171,2.101
			c-2.1,0-5.25-2.101-9.381-6.23c-3.08-3.081-5.46-6.23-7.631-10.151c-2.1,2.66-4.2,4.83-6.931,7.211
			c-4.549,3.99-8.05,6.23-14.701,9.591l-0.56-0.91c5.53-3.851,8.401-6.301,12.811-10.991c3.08-3.22,5.32-5.881,7.35-8.961
			c-3.22-7.49-5.181-16.241-6.23-28.003H53.057c-0.07,6.23-0.14,8.471-0.35,12.672h12.042c1.19-1.33,1.54-1.751,2.73-3.081
			c1.89,1.33,2.45,1.751,4.201,3.081c0.63,0.63,0.77,0.84,0.77,1.05c0,0.49-0.7,0.979-2.59,1.89
			c-0.84,10.571-1.54,15.682-2.521,18.692c-0.56,1.54-1.61,2.8-3.01,3.431c-1.26,0.56-2.31,0.84-5.25,1.26
			c-0.7-2.59-0.84-2.94-1.61-3.57c-0.91-0.7-1.96-1.05-5.53-1.75l0.07-1.051c5.111,0.561,8.261,0.841,9.381,0.841
			c1.26,0,1.61-0.42,2.17-2.73c0.7-3.08,1.4-10.501,1.54-16.452H52.567c-0.42,6.861-0.84,10.432-1.68,14.282
			c-1.05,4.83-2.87,9.661-5.11,13.651c-1.19,2.24-2.31,3.78-4.9,6.931l-0.91-0.561c3.36-5.88,4.831-9.871,6.161-16.592
			c1.33-6.931,1.89-15.262,1.89-28.213c0-4.061-0.07-5.88-0.35-9.171c2.59,1.471,3.36,1.96,5.881,3.78H75.11
			c-0.211-2.24-0.28-3.43-0.351-5.32c-0.21-5.04-0.21-5.671-0.49-8.051c1.33,0.14,2.45,0.28,3.15,0.35
			c3.78,0.351,4.69,0.561,4.69,1.19c0,0.561-0.42,0.84-2.45,1.75c-0.069,1.961-0.069,3.501-0.069,4.48c0,2.101,0,3.36,0.14,5.601
			h13.231c1.82-2.17,2.38-2.8,4.13-4.83c2.801,2.311,3.641,3.01,6.161,5.46c0.21,0.211,0.28,0.351,0.28,0.561
			s-0.351,0.42-0.631,0.42H79.8z M83.51,255.712c4.061,0.63,6.791,1.47,8.961,2.52c1.4,0.771,2.101,2.03,2.101,3.991
			c0,1.47-0.631,2.66-1.471,2.66c-0.49,0-0.91-0.28-1.61-1.19c-1.96-2.591-4.2-4.62-8.261-7.281L83.51,255.712z"/>
	</g>
	<g>
		<path class="st1" d="M37.268,366.333c0,1.38,0.045,1.784,0.225,2.039c0.18,0.271,0.495,0.391,1.095,0.405v0.375h-3.24v-0.375
			c0.525-0.015,0.84-0.135,1.02-0.405c0.225-0.284,0.3-0.869,0.3-2.039v-6.15c0-0.779-0.06-1.109-0.225-1.305
			c-0.165-0.165-0.315-0.21-0.9-0.24v-0.359h2.865l3.525,8.879l3.51-8.879h2.79v0.359c-1.08,0.061-1.155,0.15-1.155,1.545v7.065
			c0,1.38,0.09,1.499,1.155,1.529v0.375h-3.645v-0.375c1.05-0.03,1.155-0.165,1.155-1.529v-8.205l-3.9,9.975h-0.645l-3.93-9.96
			V366.333z"/>
		<path class="st1" d="M56.489,369.122c-0.585,0.091-1.245,0.15-1.545,0.15c-0.45,0-0.57-0.24-0.63-1.245
			c-0.24,0.271-0.435,0.436-0.735,0.646c-0.66,0.479-1.185,0.645-1.95,0.645c-0.66,0-1.155-0.149-1.53-0.465
			c-0.405-0.36-0.66-0.96-0.66-1.59c0-1.186,0.75-1.95,2.205-2.28c0.78-0.18,1.575-0.285,2.669-0.359v-0.945
			c0-0.69-0.06-1.05-0.21-1.365c-0.195-0.39-0.615-0.585-1.229-0.585c-0.99,0-1.5,0.45-1.56,1.38
			c-0.015,0.315-0.045,0.42-0.165,0.511c-0.105,0.074-0.3,0.119-0.525,0.119c-0.51,0-0.735-0.135-0.735-0.449
			c0-0.54,0.39-1.08,1.02-1.44c0.57-0.314,1.305-0.479,2.19-0.479c0.96,0,1.65,0.225,2.01,0.659c0.3,0.375,0.435,0.87,0.435,1.695
			c0,0.045,0,0.045-0.03,1.515l-0.015,1.425l-0.015,0.69c0,0.63,0.075,1.17,0.165,1.29c0.09,0.12,0.27,0.165,0.84,0.165V369.122z
			 M54.313,364.968c-1.334,0.12-1.92,0.24-2.52,0.54c-0.66,0.314-1.005,0.915-1.005,1.71c0,0.944,0.51,1.59,1.26,1.59
			c0.765,0,1.545-0.45,1.92-1.095c0.24-0.42,0.345-1.051,0.345-2.04V364.968z"/>
		<path class="st1" d="M59.426,367.022c0,0.885,0.045,1.275,0.195,1.485s0.39,0.314,0.735,0.314c0.33,0,0.615-0.075,0.945-0.27
			l0.135,0.39c-0.495,0.255-0.975,0.375-1.515,0.375c-0.735,0-1.29-0.255-1.545-0.735c-0.165-0.3-0.21-0.63-0.21-1.739v-4.86h-0.945
			v-0.345c0.885-0.075,1.335-0.66,1.56-2.069l0.69-0.195c-0.03,0.645-0.045,1.215-0.045,2.205h1.8v0.404h-1.8V367.022z"/>
		<path class="st1" d="M68.254,369.258c-0.045-0.36-0.075-0.811-0.075-1.545c-0.585,1.02-1.56,1.619-2.67,1.619
			c-0.96,0-1.695-0.465-1.995-1.26c-0.15-0.404-0.21-1.02-0.21-2.324v-2.476c0-0.779-0.06-1.095-0.225-1.229
			c-0.09-0.09-0.225-0.12-0.51-0.135c-0.195,0-0.195,0-0.27,0v-0.33l2.325-0.15c-0.075,1.395-0.09,1.755-0.09,2.79v1.305
			c0,1.515,0.03,1.92,0.21,2.445c0.18,0.555,0.6,0.84,1.215,0.84c0.825,0,1.56-0.54,1.95-1.455c0.225-0.51,0.27-0.84,0.27-1.77
			v-2.311c0-0.795-0.045-1.08-0.225-1.215c-0.09-0.09-0.24-0.135-0.51-0.149h-0.27v-0.33l2.325-0.15
			c-0.045,1.125-0.075,2.115-0.075,2.79v2.835c0,1.5,0.135,1.77,0.915,1.77h0.105v0.33L68.254,369.258z"/>
		<path class="st1" d="M73.879,361.413c0.03,0.75,0.045,0.944,0.045,1.26c0,0.104,0,0.27,0,0.479c0.495-1.14,1.305-1.784,2.19-1.784
			c0.646,0,1.141,0.404,1.141,0.93c0,0.375-0.315,0.615-0.795,0.615c-0.33,0-0.466-0.091-0.556-0.375
			c-0.09-0.33-0.18-0.42-0.42-0.42c-0.39,0-0.81,0.329-1.125,0.899c-0.27,0.495-0.405,1.11-0.405,1.905v2.354
			c0,1.41,0.075,1.516,1.08,1.545v0.33H71.6v-0.33c1.005-0.029,1.095-0.149,1.095-1.545v-4.02c0-1.125-0.18-1.35-1.035-1.35v-0.33
			L73.879,361.413z"/>
		<path class="st1" d="M85.024,369.122c-0.585,0.091-1.245,0.15-1.545,0.15c-0.45,0-0.57-0.24-0.63-1.245
			c-0.24,0.271-0.435,0.436-0.735,0.646c-0.659,0.479-1.185,0.645-1.949,0.645c-0.66,0-1.155-0.149-1.53-0.465
			c-0.405-0.36-0.66-0.96-0.66-1.59c0-1.186,0.75-1.95,2.205-2.28c0.78-0.18,1.575-0.285,2.67-0.359v-0.945
			c0-0.69-0.06-1.05-0.21-1.365c-0.195-0.39-0.615-0.585-1.23-0.585c-0.989,0-1.499,0.45-1.56,1.38
			c-0.015,0.315-0.045,0.42-0.165,0.511c-0.104,0.074-0.3,0.119-0.524,0.119c-0.511,0-0.735-0.135-0.735-0.449
			c0-0.54,0.39-1.08,1.02-1.44c0.57-0.314,1.306-0.479,2.19-0.479c0.96,0,1.649,0.225,2.01,0.659c0.3,0.375,0.435,0.87,0.435,1.695
			c0,0.045,0,0.045-0.029,1.515l-0.016,1.425l-0.015,0.69c0,0.63,0.075,1.17,0.165,1.29s0.27,0.165,0.84,0.165V369.122z
			 M82.85,364.968c-1.335,0.12-1.92,0.24-2.52,0.54c-0.66,0.314-1.005,0.915-1.005,1.71c0,0.944,0.51,1.59,1.26,1.59
			c0.765,0,1.545-0.45,1.92-1.095c0.239-0.42,0.345-1.051,0.345-2.04V364.968z"/>
		<path class="st1" d="M87.962,367.022c0,0.885,0.045,1.275,0.194,1.485c0.15,0.21,0.391,0.314,0.735,0.314
			c0.33,0,0.615-0.075,0.945-0.27l0.135,0.39c-0.495,0.255-0.976,0.375-1.516,0.375c-0.734,0-1.289-0.255-1.545-0.735
			c-0.165-0.3-0.21-0.63-0.21-1.739v-4.86h-0.944v-0.345c0.885-0.075,1.335-0.66,1.56-2.069l0.69-0.195
			c-0.03,0.645-0.045,1.215-0.045,2.205h1.8v0.404h-1.8V367.022z"/>
		<path class="st1" d="M93.459,361.413c-0.045,0.87-0.09,2.175-0.09,2.805v3.06c0,1.396,0.075,1.516,1.08,1.545v0.33h-3.42v-0.33
			c1.035-0.029,1.11-0.149,1.11-1.545v-4.005c0-0.75-0.061-1.095-0.226-1.229c-0.12-0.105-0.359-0.135-0.885-0.135v-0.33
			L93.459,361.413z M92.709,358.233c0.465,0,0.84,0.374,0.84,0.84c0,0.479-0.375,0.854-0.84,0.854c-0.479,0-0.854-0.375-0.854-0.854
			C91.854,358.607,92.229,358.233,92.709,358.233z"/>
		<path class="st1" d="M96.528,362.373c0.63-0.646,1.575-1.005,2.609-1.005c2.19,0,3.63,1.545,3.63,3.899
			c0,2.505-1.439,4.08-3.72,4.08c-2.175,0-3.614-1.545-3.614-3.87C95.434,364.232,95.838,363.078,96.528,362.373z M99.093,368.987
			c1.471,0,2.28-1.274,2.28-3.585c0-2.34-0.84-3.689-2.31-3.689c-1.44,0-2.235,1.274-2.235,3.569
			C96.828,367.638,97.653,368.987,99.093,368.987z"/>
		<path class="st1" d="M106.077,362.958c0.66-1.155,1.396-1.59,2.64-1.59c0.945,0,1.56,0.284,1.965,0.93
			c0.285,0.435,0.391,0.96,0.391,1.875v3.104c0,1.41,0.074,1.516,1.095,1.545v0.33h-3.405v-0.33
			c0.495-0.015,0.765-0.075,0.885-0.225c0.091-0.12,0.136-0.24,0.15-0.495c0.015-0.165,0.045-0.72,0.045-0.825v-3.015
			c0-0.75-0.075-1.275-0.24-1.62c-0.239-0.524-0.689-0.795-1.319-0.795c-0.705,0-1.275,0.33-1.695,1.005
			c-0.314,0.495-0.51,1.215-0.51,1.83v2.595c0,1.41,0.075,1.516,1.095,1.545v0.33h-3.42v-0.33c1.005-0.029,1.096-0.149,1.096-1.545
			v-4.02c0-1.125-0.181-1.35-1.035-1.35v-0.33l2.265-0.165V362.958z"/>
	</g>
</g>
</svg>
