<?xml version="1.0" encoding="utf-8"?>
<!-- Generator: Adobe Illustrator 26.0.0, SVG Export Plug-In . SVG Version: 6.00 Build 0)  -->
<svg version="1.1" xmlns="http://www.w3.org/2000/svg" xmlns:xlink="http://www.w3.org/1999/xlink" x="0px" y="0px" width="150px"
	 height="400px" viewBox="0 0 150 400" style="enable-background:new 0 0 150 400;" xml:space="preserve">
<style type="text/css">
	.st0{fill:#FFF7DB;}
	.st1{fill:#6F4B3E;}
	.st2{fill:#274A78;}
	.st3{fill:#9A2024;}
	.st4{fill-rule:evenodd;clip-rule:evenodd;fill:#274A78;}
	.st5{fill-rule:evenodd;clip-rule:evenodd;fill:#9A2024;}
</style>
<g id="レイヤー_1">
	<g>
		<rect class="st0" width="150" height="400"/>
	</g>
</g>
<g id="レイヤー_2">
	<g>
		<path class="st3" d="M72.693,198.803c1.4-2.73,2.311-5.041,3.221-7.841h-5.041c-2.59,0-3.71,0.07-4.97,0.35l-0.351-2.52
			c1.75,0.49,2.73,0.56,5.32,0.56h5.531c0.699-2.38,1.189-4.271,1.75-7.001h-9.101c-2.101,0-3.081,0.07-4.201,0.28l-0.35-2.521
			c1.61,0.49,2.521,0.63,4.551,0.63h9.38c0.771-4.27,1.12-7.07,1.261-10.011c1.4,0.21,2.45,0.35,3.15,0.49
			c3.78,0.56,4.48,0.7,4.48,1.4c0,0.49-0.561,0.77-2.94,1.4c-0.63,3.431-0.84,4.48-1.33,6.721h13.651c1.54-2.03,1.96-2.66,3.36-4.55
			c2.66,2.17,3.431,2.871,5.881,5.181c0.21,0.21,0.279,0.42,0.279,0.56c0,0.21-0.279,0.42-0.63,0.42H82.704
			c-0.7,2.87-1.189,4.69-1.96,7.001h14.842c1.47-1.891,1.89-2.45,3.36-4.271c2.45,2.03,3.22,2.66,5.46,4.831
			c0.28,0.35,0.351,0.49,0.351,0.7s-0.28,0.35-0.7,0.35H87.745c1.33,3.36,2.24,4.901,4.62,7.841h6.23
			c1.61-2.03,2.171-2.66,3.781-4.55c2.52,2.1,3.22,2.8,5.601,5.041c0.279,0.28,0.42,0.49,0.42,0.63c0,0.28-0.351,0.49-0.771,0.49
			H93.695c4.621,4.971,8.401,7.562,15.262,10.222v0.979c-2.1,0.771-2.73,1.4-3.99,4.061c-5.041-3.64-7.07-5.46-10.221-9.381
			c-1.61-2.03-2.871-3.71-4.201-5.881H75.704c-1.681,2.73-2.871,4.48-4.831,6.931c1.19,0.7,1.681,0.98,3.15,1.82h17.292
			c0.771-0.84,1.05-1.12,1.75-1.89c1.82,1.47,2.311,1.96,3.99,3.431c0.42,0.35,0.561,0.56,0.561,0.77c0,0.35-0.21,0.561-0.84,0.98
			c0,11.341,0,11.341,0.14,20.792c0,0.07,0,0.14,0,0.14c0,0.63-1.26,0.91-3.78,0.91c-0.63,0-0.84-0.14-0.84-0.63v-2.521H74.023
			v2.521c0,0.35-0.14,0.42-0.49,0.56c-0.35,0.07-2.029,0.211-3.01,0.211c-0.63,0-0.91-0.141-0.91-0.7
			c0.07-6.091,0.07-11.201,0.07-17.433c0-0.63,0-1.26,0-3.71l-0.07-3.78c-3.221,3.641-5.251,5.32-10.291,8.681l-0.7-0.91
			c6.511-5.74,9.801-9.73,13.231-16.172h-7.911c0.07,0.421,0.07,0.7,0.07,0.91c0,1.82-1.05,3.991-1.891,3.991
			c-0.56,0-0.699-0.211-1.189-1.82c-0.7-2.45-1.891-4.621-4.2-7.281c0.069,12.531,0.069,12.531,0.35,37.454l-0.07,0.07
			c0,0.56-0.069,0.63-0.49,0.77c-0.489,0.21-2.17,0.351-3.5,0.351c-0.56,0-0.7-0.141-0.7-0.631c0.141-5.88,0.21-8.891,0.21-12.11
			c0-5.951,0.07-9.171,0.07-9.802l0.63-15.681c-1.82,6.161-2.8,8.821-5.04,13.301c-1.891,3.641-2.94,5.391-5.601,8.821l-0.91-0.561
			c3.08-5.811,4.9-10.361,7.421-18.622c1.47-4.97,1.89-6.721,2.66-11.901h-4.971c-1.4,0-1.96,0.07-3.15,0.28l-0.28-2.31
			c1.261,0.28,2.381,0.42,3.921,0.42h5.04v-9.521c0-2.1-0.069-3.43-0.42-6.091c1.54,0.21,2.73,0.35,3.431,0.42
			c3.29,0.28,4.2,0.56,4.2,1.19c0,0.56-0.63,0.98-2.87,1.68l0.07,12.321h1.26c1.19-1.61,1.61-2.1,2.87-3.71
			c1.891,1.89,2.521,2.45,4.41,4.411c0.21,0.21,0.28,0.35,0.28,0.49c0,0.28-0.28,0.42-0.7,0.42h-8.12v7
			c3.71,2.1,4.62,2.66,6.16,4.13H72.693z M92.296,210.774H74.023v7.981h18.272V210.774z M74.023,220.365v9.171h18.272v-9.171H74.023
			z M89.565,198.803c-1.61-2.94-2.101-4.06-3.221-7.841h-6.23c-1.12,3.081-1.96,4.971-3.5,7.841H89.565z"/>
		<path class="st3" d="M43.291,270.133c4.2,1.681,6.16,2.591,8.12,3.851c2.45,1.54,3.081,2.45,3.081,4.271
			c0,2.311-0.98,4.2-2.171,4.2c-0.49,0-0.91-0.42-1.47-1.47c-1.681-3.15-3.641-5.671-7.981-10.222L43.291,270.133z M44.131,296.315
			c2.66,0.771,3.92,1.12,4.48,1.12c0.979,0,1.61-1.189,8.19-16.172c1.82-4.2,2.801-6.23,6.651-14.911l1.12,0.49l-10.571,29.473
			c-0.771,2.171-1.12,3.501-1.12,4.48c0,0.63,0,0.63,0.7,2.591c0.84,2.1,1.54,5.67,1.54,7.49c0,1.75-0.42,3.081-1.19,4.061
			c-1.05,1.261-2.59,2.101-3.78,2.101c-0.98,0-1.61-0.771-1.61-1.891c0-0.77,0.07-1.12,0.91-5.95c0.21-1.12,0.28-2.311,0.28-3.78
			c0-2.311-0.42-3.921-1.261-5.041c-0.699-0.979-1.33-1.4-4.69-3.36L44.131,296.315z M48.191,255.781
			c2.94,0.98,6.79,2.66,8.891,3.851c1.891,1.12,2.59,2.24,2.59,4.131c0,2.03-0.979,3.99-1.96,3.99c-0.63,0-1.05-0.351-1.68-1.54
			c-0.841-1.261-1.82-2.73-3.221-4.551c-1.96-2.38-2.8-3.36-5.11-5.181L48.191,255.781z M69.264,312.768v3.92
			c0,0.42-0.141,0.561-0.631,0.7c-0.42,0.141-2.31,0.351-3.15,0.351c-0.699,0-1.05-0.21-1.05-0.7c0,0,0-0.07,0-0.141
			c0.21-10.291,0.28-18.762,0.28-34.934c0-7.21,0-9.171-0.21-13.441c2.38,1.33,3.01,1.82,5.181,3.36h11.621v-8.4
			c0-3.641-0.07-5.11-0.42-8.471c7.84,0.84,8.33,0.91,8.33,1.75c0,0.56-0.63,0.84-3.29,1.68v13.441h12.531
			c1.12-1.399,1.47-1.82,2.66-3.08c1.75,1.33,2.311,1.681,3.921,3.011c0.42,0.42,0.56,0.7,0.56,0.91c0,0.56-0.35,0.91-2.24,2.24
			v13.091c0,17.712,0,19.112,0.351,28.283c-0.07,0.84-0.771,1.05-3.921,1.05c-0.77,0-1.05-0.21-1.05-0.84v-3.78H69.264z
			 M81.305,289.945v-16.452H69.264v16.452H81.305z M81.305,311.157v-19.602H69.264v19.602H81.305z M98.736,273.493H85.925v16.452
			h12.812V273.493z M85.925,291.556v19.602h12.812v-19.602H85.925z"/>
	</g>
	<g>
		<path class="st3" d="M39.905,367.248c0,0.885,0.06,1.17,0.27,1.334c0.15,0.136,0.54,0.195,1.141,0.195v0.375h-4.2v-0.375
			c0.646,0,1.005-0.075,1.155-0.225c0.195-0.165,0.24-0.465,0.24-1.305v-8.61c-2.686,0.03-3.12,0.375-3.495,2.82l-0.48-0.03
			l0.271-3.149h8.819l0.271,3.149l-0.48,0.03c-0.39-2.445-0.81-2.79-3.51-2.82V367.248z"/>
		<path class="st3" d="M44.755,366.782h0.465c0.061,0.705,0.165,1.065,0.42,1.396c0.391,0.54,0.945,0.81,1.636,0.81
			c1.02,0,1.635-0.524,1.635-1.41c0-0.345-0.135-0.675-0.36-0.869c-0.27-0.226-0.314-0.24-1.68-0.841
			c-1.62-0.704-2.115-1.244-2.115-2.265c0-0.524,0.15-1.035,0.405-1.38c0.405-0.54,1.11-0.854,1.86-0.854
			c0.39,0,0.585,0.029,1.395,0.18c0.12,0.015,0.225,0.03,0.314,0.03c0.181,0,0.421-0.03,0.721-0.105l-0.075,2.37H48.88
			c-0.03-1.335-0.689-2.13-1.785-2.13c-0.93,0-1.529,0.524-1.529,1.335c0,0.345,0.135,0.615,0.404,0.81
			c0.285,0.21,0.57,0.36,1.561,0.78c1.005,0.42,1.38,0.645,1.725,1.02c0.315,0.346,0.495,0.841,0.495,1.426
			c0,1.38-0.915,2.265-2.325,2.265c-0.42,0-0.615-0.03-1.5-0.18c-0.21-0.03-0.39-0.046-0.555-0.046s-0.375,0.016-0.675,0.061
			L44.755,366.782z"/>
		<path class="st3" d="M56.812,369.258c-0.045-0.36-0.074-0.811-0.074-1.545c-0.585,1.02-1.561,1.619-2.67,1.619
			c-0.96,0-1.695-0.465-1.995-1.26c-0.15-0.404-0.21-1.02-0.21-2.324v-2.476c0-0.779-0.061-1.095-0.226-1.229
			c-0.09-0.09-0.225-0.12-0.51-0.135c-0.195,0-0.195,0-0.27,0v-0.33l2.324-0.15c-0.074,1.395-0.09,1.755-0.09,2.79v1.305
			c0,1.515,0.03,1.92,0.21,2.445c0.181,0.555,0.601,0.84,1.215,0.84c0.825,0,1.561-0.54,1.95-1.455
			c0.225-0.51,0.271-0.84,0.271-1.77v-2.311c0-0.795-0.046-1.08-0.226-1.215c-0.09-0.09-0.24-0.135-0.51-0.149h-0.271v-0.33
			l2.325-0.15c-0.045,1.125-0.075,2.115-0.075,2.79v2.835c0,1.5,0.136,1.77,0.915,1.77h0.105v0.33L56.812,369.258z"/>
		<path class="st3" d="M60.987,369.183h-0.404c0.045-0.585,0.045-0.69,0.045-2.685v-6.525c0-1.274-0.061-1.35-1.096-1.365v-0.329
			l2.415-0.12c-0.06,1.005-0.09,2.22-0.09,3v1.68c0.585-1.005,1.35-1.47,2.43-1.47c1.95,0,3.195,1.5,3.195,3.854
			c0,2.55-1.29,4.14-3.375,4.14c-0.975,0-1.695-0.314-2.52-1.109L60.987,369.183z M62.263,367.982c0.33,0.646,0.99,1.035,1.74,1.035
			c1.38,0,2.084-1.23,2.084-3.615c0-2.399-0.675-3.63-1.994-3.63c-1.44,0-2.295,1.38-2.295,3.735
			C61.798,366.588,61.947,367.397,62.263,367.982z"/>
		<path class="st3" d="M75.889,369.122c-0.585,0.091-1.245,0.15-1.545,0.15c-0.45,0-0.57-0.24-0.63-1.245
			c-0.24,0.271-0.435,0.436-0.735,0.646c-0.659,0.479-1.185,0.645-1.949,0.645c-0.66,0-1.155-0.149-1.53-0.465
			c-0.405-0.36-0.66-0.96-0.66-1.59c0-1.186,0.75-1.95,2.205-2.28c0.78-0.18,1.575-0.285,2.67-0.359v-0.945
			c0-0.69-0.06-1.05-0.21-1.365c-0.195-0.39-0.615-0.585-1.229-0.585c-0.99,0-1.5,0.45-1.561,1.38
			c-0.015,0.315-0.045,0.42-0.165,0.511c-0.104,0.074-0.3,0.119-0.524,0.119c-0.511,0-0.735-0.135-0.735-0.449
			c0-0.54,0.39-1.08,1.02-1.44c0.57-0.314,1.306-0.479,2.19-0.479c0.96,0,1.649,0.225,2.01,0.659c0.3,0.375,0.435,0.87,0.435,1.695
			c0,0.045,0,0.045-0.029,1.515l-0.016,1.425l-0.015,0.69c0,0.63,0.075,1.17,0.165,1.29s0.27,0.165,0.84,0.165V369.122z
			 M73.714,364.968c-1.335,0.12-1.92,0.24-2.52,0.54c-0.66,0.314-1.005,0.915-1.005,1.71c0,0.944,0.51,1.59,1.26,1.59
			c0.765,0,1.545-0.45,1.92-1.095c0.239-0.42,0.345-1.051,0.345-2.04V364.968z"/>
		<path class="st3" d="M79.286,367.277c0,1.396,0.075,1.516,1.08,1.545v0.33h-3.345v-0.33c0.99-0.029,1.064-0.149,1.064-1.545
			v-7.305c0-1.274-0.06-1.35-1.064-1.365v-0.329l2.354-0.12c-0.06,1.005-0.09,2.22-0.09,3v4.755l2.355-2.58
			c0.345-0.375,0.524-0.705,0.524-0.931c0-0.314-0.285-0.465-0.944-0.494v-0.33h3.314v0.33c-0.435,0.045-0.675,0.135-1.005,0.329
			c-0.51,0.315-0.57,0.36-1.47,1.335l-0.78,0.841l2.1,3.3c0.511,0.81,0.766,1.005,1.425,1.109v0.33h-2.039
			c-0.15-0.314-0.63-1.17-0.78-1.439l-1.53-2.49l-1.17,1.305V367.277z"/>
		<path class="st3" d="M88.242,361.413c-0.045,0.87-0.09,2.175-0.09,2.805v3.06c0,1.396,0.075,1.516,1.08,1.545v0.33h-3.42v-0.33
			c1.035-0.029,1.11-0.149,1.11-1.545v-4.005c0-0.75-0.061-1.095-0.226-1.229c-0.12-0.105-0.359-0.135-0.885-0.135v-0.33
			L88.242,361.413z M87.492,358.233c0.465,0,0.84,0.374,0.84,0.84c0,0.479-0.375,0.854-0.84,0.854c-0.479,0-0.854-0.375-0.854-0.854
			C86.638,358.607,87.013,358.233,87.492,358.233z"/>
		<path class="st3" d="M96.883,359.778c0.899-1.125,2.204-1.71,3.824-1.71c1.635,0,2.91,0.569,3.825,1.71
			c0.825,1.05,1.245,2.354,1.245,3.93c0,1.574-0.42,2.895-1.245,3.914c-0.93,1.155-2.19,1.726-3.825,1.726
			c-1.62,0-2.939-0.601-3.824-1.726c-0.825-1.05-1.245-2.354-1.245-3.914C95.638,362.133,96.042,360.843,96.883,359.778z
			 M97.962,367.308c0.601,1.064,1.545,1.635,2.745,1.635s2.146-0.57,2.745-1.635c0.54-0.975,0.81-2.145,0.81-3.6
			s-0.27-2.625-0.81-3.601c-0.6-1.079-1.545-1.635-2.745-1.635s-2.145,0.57-2.745,1.635c-0.54,0.99-0.81,2.176-0.81,3.601
			S97.422,366.303,97.962,367.308z"/>
		<path class="st3" d="M109.646,361.413c-0.045,0.87-0.09,2.175-0.09,2.805v3.06c0,1.396,0.075,1.516,1.08,1.545v0.33h-3.421v-0.33
			c1.036-0.029,1.11-0.149,1.11-1.545v-4.005c0-0.75-0.06-1.095-0.225-1.229c-0.12-0.105-0.36-0.135-0.886-0.135v-0.33
			L109.646,361.413z M108.896,358.233c0.465,0,0.84,0.374,0.84,0.84c0,0.479-0.375,0.854-0.84,0.854
			c-0.48,0-0.855-0.375-0.855-0.854C108.04,358.607,108.415,358.233,108.896,358.233z"/>
		<path class="st3" d="M111.835,368.822c0.99-0.029,1.065-0.149,1.065-1.545v-7.305c0-0.734-0.061-1.095-0.226-1.229
			c-0.104-0.09-0.329-0.12-0.84-0.136v-0.329l2.4-0.12c-0.061,1.005-0.09,2.205-0.09,3v6.119c0,1.396,0.074,1.516,1.08,1.545v0.33
			h-3.391V368.822z"/>
	</g>
	<g>
		<path class="st5" d="M72.942,38.468c19.195-0.322,31.856,7.433,38.853,19.37c1.362,2.323,4.216,9.594,3.153,13.852
			c-1.882,7.543-11.556,16.907-19.37,18.357c0.026-4.953,0.974-15.931-1.014-18.582c-5.928-7.905-33.38-7.781-39.079,0.225
			c-1.81,2.543-0.936,13.051-0.901,17.456c-0.038,0-0.075,0-0.113,0c-8.456-3.36-16.39-8.149-19.145-17.118
			c-0.667-2.171,0.201-5.684,0.676-7.433c1.798-6.622,5.019-12.037,9.685-15.767c4.905-3.921,10.357-6.872,17.231-8.897
			c2.327-0.413,4.655-0.826,6.982-1.239C70.915,38.618,71.928,38.543,72.942,38.468z"/>
		<path class="st5" d="M31.048,60.316c0,0,0.477,7.756,0.788,8.784c1.818,6.008,4.881,12.115,9.347,15.541
			c6.663,5.112,15.073,8.15,24.776,10.248c5.374,1.162,12.342,0.076,17.906,1.239c5.913,1.235,10.167,4.086,13.739,7.658
			c5.017,5.017,6.052,11.51,2.365,18.695c-0.826,1.351-1.652,2.703-2.478,4.054c-2.965,0.638-5.932,1.276-8.897,1.915
			c-9.199,1.985-22.461,2.223-31.308-0.225c-15.617-4.322-26.745-13.437-32.772-27.254c-2.762-6.33-4.608-16.188-2.14-24.438
			C24.352,69.929,27.741,65.379,31.048,60.316z"/>
		<path class="st5" d="M118.552,60.992c1.784,1.021,3.085,3.978,4.167,5.744c3.962,6.462,7.851,16.909,5.18,27.479
			c-3.726,14.745-14.049,26.468-27.141,31.871c1.031-3.047,2.968-5.493,3.716-9.235c2.134-10.669-8.629-19.852-15.992-21.848
			c1.126-0.338,2.252-0.676,3.379-1.014c2.703-1.051,5.406-2.102,8.109-3.153C109.91,86.457,119.998,75.87,118.552,60.992z"/>
		<path class="st5" d="M66.973,92.525c-3.651-0.187-6.911-1.598-10.023-2.478c0-3.754,0-7.508,0-11.262
			c2.941,1.848,5.943,3.029,10.023,3.942C66.973,85.993,66.973,89.259,66.973,92.525z"/>
		<path class="st5" d="M93.213,78.785c0,4.091,0,8.184,0,12.275c-3.099,0.518-6.293,1.626-9.685,2.365
			c0.038-3.603,0.075-7.208,0.113-10.811C86.983,82.348,91.418,80.783,93.213,78.785z"/>
		<path class="st5" d="M69.338,83.065c3.826,0.254,7.99,0.099,11.825,0c0,3.453,0,6.908,0,10.361
			c-3.941-0.188-7.884-0.375-11.825-0.563C69.338,89.597,69.338,86.33,69.338,83.065z"/>
	</g>
</g>
</svg>
