<?xml version="1.0" encoding="utf-8"?>
<!-- Generator: Adobe Illustrator 26.0.0, SVG Export Plug-In . SVG Version: 6.00 Build 0)  -->
<svg version="1.1" id="レイヤー_1" xmlns="http://www.w3.org/2000/svg" xmlns:xlink="http://www.w3.org/1999/xlink" x="0px"
	 y="0px" width="250px" height="250px" viewBox="0 0 250 250" style="enable-background:new 0 0 250 250;" xml:space="preserve">
<style type="text/css">
	.st0{fill:#FFF7DB;}
</style>
<g>
	<rect class="st0" width="250" height="250"/>
</g>
<g>
	<path d="M53.49,113.612h-5.281v10.892h-0.946v-11.837h6.227V113.612z"/>
	<path d="M60.858,130.775c0.902-3.389,1.408-5.567,2.068-8.537h-2.289c-0.858,0-1.672,0.044-2.376,0.132l-0.11-0.836
		c0.792,0.153,1.386,0.198,2.486,0.198h2.398c0.704-3.191,0.704-3.191,1.078-6.184h-4.708c-1.254,0-1.782,0.022-2.442,0.088
		l-0.132-0.77c0.836,0.153,1.232,0.176,2.575,0.176h12.167c0.594-0.704,0.792-0.924,1.386-1.606c0.968,0.748,1.254,0.99,2.178,1.805
		c0.066,0.065,0.11,0.132,0.11,0.176c0,0.088-0.11,0.132-0.308,0.132h-9.219c-0.264,1.475-0.66,3.521-1.188,6.184h4.841
		c0.396-0.551,0.528-0.704,0.968-1.211c0.66,0.507,0.88,0.66,1.496,1.166c0.11,0.089,0.176,0.154,0.176,0.221
		c0,0.153-0.198,0.308-0.836,0.726v8.142h1.562c0.55-0.771,0.727-1.013,1.276-1.738c0.946,0.814,1.232,1.078,2.2,1.958
		c0.044,0.066,0.066,0.11,0.066,0.154c0,0.088-0.088,0.132-0.242,0.132H58.525c-0.88,0-1.65,0.044-2.354,0.154l-0.132-0.814
		c0.924,0.132,1.408,0.154,2.508,0.154H60.858z M69.615,130.775v-8.537h-5.171c-0.616,3.103-0.792,3.872-2.002,8.537H69.615z"/>
	<path d="M86.134,130.182h3.741v-1.629c0-0.374-0.022-0.704-0.044-1.408c1.914,0.242,2.068,0.265,2.068,0.484
		c0,0.154-0.154,0.242-0.66,0.352c0.022,1.738,0.022,2.641,0.022,2.729c-0.044,0.265-0.22,0.33-0.946,0.33
		c-0.33,0-0.418-0.044-0.44-0.198v-0.153H80.7v1.254c-0.044,0.33-0.242,0.418-1.034,0.418c-0.374,0-0.506-0.088-0.506-0.352
		c0.044-1.122,0.066-1.562,0.066-2.421c0-1.452-0.022-1.804-0.088-2.486c2.267,0.353,2.354,0.374,2.354,0.594
		c0,0.154-0.176,0.265-0.792,0.44v2.047h3.982v-4.005h-2.2v0.22c-0.022,0.176-0.044,0.242-0.11,0.265
		c-0.132,0.088-0.418,0.132-0.77,0.153c-0.088,0-0.132,0-0.154,0c-0.044,0-0.066,0-0.066,0c-0.286,0-0.418-0.088-0.418-0.308
		c0.044-1.782,0.066-5.347,0.066-8.978c0-0.792-0.044-1.98-0.088-3.124c0.836,0.374,1.056,0.506,1.827,0.99h2.112
		c0.352-0.616,0.77-1.717,0.99-2.531c1.893,0.396,2.398,0.528,2.398,0.727s-0.176,0.264-1.034,0.396
		c-0.308,0.241-0.308,0.241-1.342,1.078c-0.088,0.065-0.242,0.176-0.44,0.33h5.809c0.352-0.44,0.462-0.572,0.836-0.99
		c0.66,0.418,0.836,0.571,1.43,0.99c0.132,0.088,0.22,0.197,0.22,0.285c0,0.11-0.198,0.265-0.792,0.639
		c-0.022,1.012-0.022,1.804-0.022,2.311c0,1.122,0,1.408,0.044,3.234c-0.044,0.308-0.242,0.374-0.902,0.396
		c-0.066,0-0.066,0-0.198,0h-0.022c-0.264,0-0.396-0.109-0.396-0.352v-0.704h-8.977v1.98H94.1c0.55-0.639,0.726-0.837,1.298-1.431
		c0.814,0.704,1.078,0.924,1.915,1.628c0.022,0.066,0.044,0.11,0.044,0.154c0,0.088-0.088,0.154-0.198,0.154H82.482v1.98h12.036
		c0.374-0.374,0.484-0.484,0.88-0.837c0.594,0.44,0.771,0.595,1.32,1.034c0.176,0.177,0.242,0.265,0.242,0.33
		c0,0.133-0.044,0.154-0.77,0.528c-0.264,2.376-0.726,4.335-1.232,5.237c-0.506,0.857-1.1,1.166-2.508,1.298
		c-0.088-0.99-0.374-1.188-2.398-1.562l0.022-0.308c1.937,0.088,2.597,0.109,2.905,0.109c0.484,0,0.682-0.197,0.924-0.99
		c0.44-1.363,0.66-2.53,0.792-4.334h-8.559V130.182z M91.459,117.97v-2.068h-8.977v2.068H91.459z M82.482,118.476v2.223h8.977
		v-2.223H82.482z"/>
	<path d="M105.287,132.909c1.298-1.056,2.156-1.958,2.904-3.168c1.145-1.87,1.871-4.423,1.871-6.689c0-2.178-0.792-3.521-2.09-3.521
		c-1.167,0-2.707,0.946-4.225,2.597c-0.418,0.418-0.55,0.506-0.902,0.506c-0.462,0-0.99-0.352-1.452-0.99
		c-0.374-0.506-0.594-1.078-0.594-1.474c0-0.286,0.088-0.484,0.352-0.814c0.198,0.969,0.638,1.519,1.21,1.519
		c0.308,0,0.88-0.242,2.024-0.858c1.871-1.012,2.597-1.254,3.719-1.254c1.012,0,2.09,0.572,2.729,1.474
		c0.528,0.771,0.836,1.915,0.836,3.234c0,2.597-0.99,5.171-2.729,7.107c-1.078,1.188-2.2,2.024-3.454,2.574L105.287,132.909z
		 M104.077,112.908c1.078,0.902,2.574,1.408,4.114,1.408h0.506c0.44,0,0.748,0.154,1.188,0.528c0.308,0.265,0.462,0.528,0.462,0.748
		c0,0.309-0.308,0.484-0.902,0.484c-0.924,0.022-0.924,0.022-5.479,1.342l-0.11-0.308c1.65-0.748,3.168-1.431,3.719-1.628
		c-1.805-0.374-2.883-1.057-3.719-2.398L104.077,112.908z"/>
	<path d="M120.251,114.163c0.66,0,1.694,0.198,2.222,0.418c0.44,0.176,0.616,0.374,0.616,0.704c0,0.021,0,0.021,0,0.044
		c0,0.154-0.022,0.176-0.176,0.572c-0.264,0.726-0.484,2.618-0.484,4.444c0,1.298,0.176,1.628,0.858,1.628
		c0.462,0,0.946-0.176,2.949-1.1c0.396-0.198,0.638-0.265,0.902-0.265c0.527,0,1.056,0.463,1.056,0.925
		c0,0.286-0.153,0.527-0.462,0.66c-0.154,0.065-0.462,0.176-1.475,0.462c-2.662,0.748-4.114,1.408-5.5,2.464
		c-1.188,0.925-1.716,1.782-1.716,2.816c0,1.585,1.254,2.398,3.697,2.398c1.364,0,3.52-0.286,5.104-0.66
		c0.221-0.044,0.309-0.065,0.44-0.065c0.572,0,1.188,0.55,1.188,1.078c0,0.418-0.242,0.594-0.946,0.748
		c-0.704,0.132-2.904,0.286-4.225,0.286c-1.606,0-2.816-0.177-3.74-0.507c-1.475-0.55-2.398-1.804-2.398-3.278
		c0-1.275,0.704-2.464,2.156-3.696c0.66-0.572,1.386-1.034,2.684-1.76c-0.022,0-0.044,0-0.088,0c-0.374,0-0.594-0.066-0.968-0.33
		c-0.55-0.463-0.704-1.232-0.792-4.313c-0.044-1.87-0.088-2.178-0.264-2.53c-0.286-0.462-0.682-0.66-1.584-0.813
		C119.635,114.229,119.811,114.163,120.251,114.163z M128.129,115.263c0.813,0.462,1.408,0.881,1.958,1.364
		c0.792,0.727,1.101,1.232,1.101,1.761s-0.309,0.924-0.683,0.924c-0.286,0-0.286,0-0.99-1.43c-0.396-0.771-1.078-1.738-1.673-2.333
		L128.129,115.263z M130.395,113.987c0.793,0.352,1.431,0.748,2.091,1.254c0.857,0.638,1.144,1.078,1.144,1.694
		c0,0.527-0.22,0.901-0.55,0.901c-0.198,0-0.33-0.109-0.506-0.418c-0.771-1.386-1.21-1.958-2.421-3.146L130.395,113.987z"/>
	<path d="M152.598,123.889c-0.462,2.002-1.145,3.542-2.156,4.906c-1.21,1.628-2.883,2.618-4.4,2.618
		c-0.683,0-1.408-0.242-1.893-0.638c-0.616-0.506-0.814-1.166-0.968-2.971c-0.133-1.408-0.221-1.937-0.396-2.376
		c-0.242-0.704-0.771-1.057-1.496-1.057c-1.893,0-3.873,2.2-5.127,5.699c-0.396,1.122-0.462,1.232-0.792,1.232
		c-0.22,0-0.44-0.221-0.594-0.595c-0.154-0.418-0.286-0.946-0.286-1.21s0.065-0.418,0.308-0.748c0.902-1.232,2.311-3.74,4.4-7.877
		c1.387-2.707,2.024-4.291,2.024-4.951c0-0.704-0.352-1.078-1.496-1.628c0.242-0.132,0.418-0.198,0.616-0.198
		c0.506,0,1.386,0.374,2.244,0.99c0.55,0.374,0.748,0.638,0.748,0.968c0,0.309-0.044,0.396-0.396,0.837
		c-0.309,0.374-1.034,1.54-1.959,3.124c-0.33,0.55-0.857,1.475-1.628,2.772c-0.902,1.519-1.122,1.893-1.782,3.08h0.044
		c1.431-1.474,2.641-2.156,3.807-2.156c1.101,0,1.98,0.528,2.486,1.475c0.308,0.594,0.374,0.924,0.704,2.971
		c0.198,1.188,0.66,1.716,1.496,1.716c2.2,0,4.753-2.53,6.139-6.073L152.598,123.889z"/>
	<path d="M155.741,132.491h5.28V121.6h0.946v11.838h-6.227V132.491z"/>
	<path d="M173.034,114.009c0.659,0,1.693,0.198,2.222,0.418c0.44,0.176,0.616,0.396,0.616,0.704c0,0.022,0,0.044,0,0.044
		c0,0.176-0.021,0.176-0.176,0.572c-0.265,0.748-0.484,2.641-0.484,4.467c0,1.298,0.176,1.628,0.858,1.628
		c0.462,0,0.946-0.176,2.948-1.122c0.396-0.198,0.638-0.264,0.902-0.264c0.528,0,1.056,0.462,1.056,0.924
		c0,0.286-0.153,0.528-0.462,0.66c-0.154,0.066-0.462,0.176-1.474,0.462c-2.663,0.748-4.115,1.408-5.501,2.465
		c-1.188,0.924-1.717,1.782-1.717,2.816c0,1.584,1.255,2.398,3.697,2.398c1.363,0,3.521-0.265,5.104-0.639
		c0.22-0.044,0.308-0.065,0.439-0.065c0.572,0,1.188,0.55,1.188,1.078c0,0.396-0.242,0.594-0.946,0.726s-2.904,0.286-4.225,0.286
		c-1.606,0-2.816-0.176-3.74-0.506c-1.475-0.551-2.398-1.805-2.398-3.257c0-1.276,0.704-2.486,2.156-3.696
		c0.66-0.572,1.387-1.057,2.685-1.761c-0.484,0-0.683-0.065-1.057-0.33c-0.33-0.241-0.527-0.726-0.638-1.672
		c-0.066-0.528-0.088-1.012-0.154-2.662c-0.065-1.87-0.088-2.2-0.264-2.53c-0.242-0.418-0.66-0.639-1.584-0.792
		C172.418,114.075,172.594,114.009,173.034,114.009z"/>
	<path d="M191.058,123.316c-0.396,1.386-1.012,3.784-1.275,4.862c-0.221,0.969-0.286,1.32-0.286,1.87
		c-0.022,0.704-0.044,0.792-0.154,0.969c-0.11,0.153-0.242,0.242-0.418,0.242c-0.374,0-0.683-0.309-0.946-0.99
		c-0.44-1.122-0.704-2.795-0.704-4.423c0-2.024,0.242-3.873,0.99-7.327c0.286-1.364,0.33-1.606,0.33-1.98
		c0-0.66-0.176-1.188-0.638-1.937c0.506,0.022,0.924,0.309,1.54,1.101c0.506,0.638,0.792,1.254,0.792,1.672
		c0,0.242,0,0.242-0.353,0.969c-1.056,2.2-1.672,4.818-1.672,7.173c0,1.122,0.088,1.826,0.353,2.729l0.924-2.2l1.188-2.839
		L191.058,123.316z M193.259,119.334c1.056,0.682,1.738,0.901,2.838,0.901c0.771,0,1.606-0.109,2.509-0.308c0-0.418,0-0.771,0-0.968
		c0-2.465-0.022-2.751-0.309-3.059c-0.264-0.286-0.748-0.44-1.452-0.506c0.309-0.286,0.484-0.353,1.057-0.353
		c0.483,0,1.078,0.088,1.496,0.198c0.638,0.198,0.968,0.462,0.968,0.792c0,0.154,0,0.176-0.198,0.682
		c-0.241,0.639-0.374,1.431-0.462,2.949c1.013-0.286,1.65-0.572,2.024-0.902c0.22-0.221,0.286-0.242,0.484-0.242
		c0.264,0,0.77,0.132,1.034,0.286c0.176,0.088,0.286,0.242,0.286,0.396c0,0.484-1.606,1.145-3.895,1.585
		c0,2.926,0.065,4.137,0.286,5.984c2.552,0.683,3.63,1.54,3.63,2.816c0,0.462-0.198,0.814-0.439,0.814
		c-0.177,0-0.33-0.11-0.771-0.55c-0.968-0.99-1.519-1.387-2.376-1.761c0.021,0.198,0.021,0.374,0.021,0.528
		c0,1.584-1.32,2.53-3.521,2.53c-1.914,0-3.256-0.924-3.256-2.244c0-1.519,1.628-2.486,4.136-2.486c0.418,0,0.727,0.021,1.343,0.065
		c0-0.198,0-0.33,0-0.374l-0.044-2.354l-0.022-2.816c-0.66,0.133-1.298,0.177-1.937,0.177c-1.605,0-2.53-0.396-3.63-1.541
		L193.259,119.334z M196.625,127.365c-1.738,0-2.816,0.571-2.816,1.54c0,0.77,0.858,1.298,2.156,1.298
		c1.21,0,2.068-0.352,2.42-1.034c0.221-0.396,0.286-0.726,0.286-1.54C198.055,127.453,197.439,127.365,196.625,127.365z"/>
</g>
<g>
</g>
<g>
</g>
<g>
</g>
<g>
</g>
<g>
</g>
<g>
</g>
<g>
</g>
<g>
</g>
<g>
</g>
<g>
</g>
<g>
</g>
<g>
</g>
<g>
</g>
<g>
</g>
<g>
</g>
</svg>
