<?xml version="1.0" encoding="utf-8"?>
<!-- Generator: Adobe Illustrator 26.0.0, SVG Export Plug-In . SVG Version: 6.00 Build 0)  -->
<svg version="1.1" id="レイヤー_1" xmlns="http://www.w3.org/2000/svg" xmlns:xlink="http://www.w3.org/1999/xlink" x="0px"
	 y="0px" width="250px" height="250px" viewBox="0 0 250 250" style="enable-background:new 0 0 250 250;" xml:space="preserve">
<style type="text/css">
	.st0{fill:#FFF7DB;}
</style>
<g>
	<rect class="st0" width="250" height="250"/>
</g>
<g>
	<path d="M84.627,119.047c0.88,0.792,1.65,1.122,2.618,1.122c0.616,0,1.188-0.066,2.201-0.286c0.021-0.638,0.021-1.628,0.021-2.024
		c0-2.311-0.264-2.772-1.782-3.037c0.309-0.242,0.484-0.308,0.946-0.308c0.748,0,1.672,0.22,2.267,0.55
		c0.286,0.154,0.483,0.462,0.483,0.704c0,0.132,0,0.132-0.242,0.572c-0.352,0.638-0.571,1.672-0.682,3.278
		c1.166-0.396,1.694-0.682,2.398-1.276c0.176-0.132,0.396-0.22,0.528-0.22c0.197,0,0.571,0.088,0.836,0.198
		c0.22,0.088,0.374,0.286,0.374,0.484c0,0.308-0.198,0.484-0.99,0.858c-0.99,0.462-2.024,0.814-3.213,1.078
		c-0.021,0.308-0.021,0.308-0.065,1.1c-0.022,0.594-0.066,1.562-0.088,2.882c2.464-0.88,4.048-1.21,5.83-1.21
		c3.015,0,4.907,1.43,4.907,3.762c0,2.156-1.65,3.829-3.763,3.829c-2.024,0-3.477-1.343-4.246-3.895l0.33-0.11
		c0.527,1.013,0.857,1.474,1.319,1.914c0.616,0.572,1.299,0.837,2.091,0.837c1.606,0,2.75-1.255,2.75-3.016
		c0-1.694-1.144-2.618-3.256-2.618c-1.738,0-3.829,0.55-5.963,1.584c0,2.333,0,2.333,0.021,2.993
		c0.022,0.418,0.022,0.66,0.022,0.836c0,0.527-0.088,0.946-0.286,1.299c-0.265,0.506-0.683,0.813-1.057,0.813
		c-0.308,0-0.308,0-1.649-1.188c-0.463-0.374-1.101-0.814-1.475-0.99c-0.484-0.22-0.727-0.55-0.727-0.924
		c0-0.352,0.221-0.792,0.66-1.232c0.814-0.836,1.562-1.32,3.499-2.266c0.021-0.308,0.021-0.638,0.044-1.056
		c0.044-0.99,0.044-0.99,0.11-3.168c-0.683,0.11-1.188,0.154-1.717,0.154c-1.408,0-2.354-0.506-3.278-1.804L84.627,119.047z
		 M87.048,127.959c-0.44,0.462-0.66,0.813-0.66,1.056c0,0.22,0.286,0.462,0.88,0.683c0.484,0.197,1.078,0.352,1.364,0.352
		c0.264,0,0.374-0.154,0.396-0.55c0.11-1.98,0.154-3.059,0.154-3.19C88.147,126.946,87.598,127.364,87.048,127.959z M96.861,116.825
		c1.342,0.066,2.332,0.308,3.234,0.792c0.968,0.528,1.54,1.254,1.54,1.936c0,0.396-0.264,0.638-0.66,0.638
		c-0.044,0-0.154,0-0.33-0.044c-0.308-0.044-0.396-0.044-0.462-0.044c-0.33,0-0.858,0.11-2.707,0.594l-0.132-0.22
		c1.32-0.682,2.091-1.144,2.398-1.408c-0.352-0.616-0.704-0.968-1.386-1.364c-0.44-0.242-0.792-0.374-1.519-0.572L96.861,116.825z"
		/>
	<path d="M106.344,132.096c-0.022,0.285-0.176,0.352-0.858,0.373c-0.11,0-0.22,0.022-0.308,0.022c-0.022,0-0.044,0-0.044,0
		c-0.242,0-0.33-0.088-0.33-0.33c0.065-1.231,0.088-2.003,0.088-3.718c0-3.103-0.022-5.018-0.066-5.744
		c0.792,0.374,1.013,0.506,1.761,0.968h4.137c0.396-0.484,0.527-0.638,0.968-1.1c0.55,0.462,0.704,0.594,1.188,1.056
		c0.153,0.198,0.197,0.264,0.197,0.352c0,0.154,0,0.154-0.682,0.594c0,1.782,0.021,5.809,0.044,7.195
		c-0.022,0.197-0.066,0.285-0.22,0.33c-0.132,0.065-0.683,0.131-0.99,0.131c-0.198,0-0.286-0.065-0.33-0.264V130.6h-4.555V132.096z
		 M106.344,130.093h4.555v-5.919h-4.555V130.093z M109.754,121.556c-0.021,0.352-0.242,0.44-1.034,0.44
		c-0.374,0-0.439-0.044-0.483-0.242c0.044-1.827,0.044-2.289,0.044-4.291c0-1.87,0-2.816-0.044-3.917
		c0.836,0.418,1.1,0.55,1.958,1.034h7.283c0.396-0.484,0.527-0.616,0.946-1.034c0.615,0.484,0.813,0.638,1.408,1.144
		c0.132,0.132,0.176,0.22,0.176,0.308c0,0.154-0.154,0.286-0.748,0.594c0,1.958,0.021,4.291,0.044,5.809
		c0,0.198-0.044,0.286-0.198,0.352c-0.132,0.066-0.616,0.132-0.902,0.132c-0.308,0-0.418-0.066-0.439-0.33v-1.034h-8.01V121.556z
		 M109.754,120.016h8.01v-4.929h-8.01V120.016z M115.035,125.714c0-1.034-0.022-1.738-0.044-3.146c0.748,0.44,0.99,0.594,1.738,1.1
		h4.114c0.374-0.44,0.484-0.572,0.88-1.012c0.616,0.506,0.792,0.66,1.343,1.122c0.132,0.132,0.176,0.198,0.176,0.308
		c0,0.154-0.154,0.286-0.66,0.506v1.166c0,2.201,0.021,5.126,0.044,6.073c-0.022,0.198-0.066,0.286-0.22,0.353
		c-0.133,0.065-0.639,0.132-0.969,0.132c-0.264,0-0.374-0.089-0.396-0.33V130.6h-4.599v1.342c-0.044,0.285-0.177,0.352-0.727,0.396
		c-0.198,0-0.352,0.021-0.374,0.021c-0.021,0-0.044,0-0.044,0c-0.198,0-0.286-0.066-0.308-0.242L115.035,125.714z M116.443,130.093
		h4.599v-5.919h-4.599V130.093z"/>
	<path d="M143.386,117.155c0.483-0.572,0.638-0.749,1.144-1.276c0.771,0.616,0.99,0.814,1.717,1.496
		c0.044,0.066,0.065,0.132,0.065,0.176c0,0.066-0.088,0.11-0.264,0.11h-3.564c0,0.902,0.021,1.298,0.044,2.464
		c-0.022,0.154-0.044,0.22-0.176,0.264c-0.198,0.088-0.792,0.176-1.101,0.176c-0.176,0-0.242-0.044-0.264-0.198v-0.264h-4.797v1.738
		h4.665c0.462-0.528,0.594-0.704,1.034-1.21c0.77,0.616,1.012,0.792,1.716,1.453c0.066,0.088,0.088,0.132,0.088,0.154
		c0,0.088-0.044,0.11-0.264,0.11h-7.239v1.871h6.314c0.484-0.616,0.639-0.814,1.145-1.43c0.836,0.682,1.101,0.902,1.893,1.628
		c0.044,0.066,0.065,0.132,0.065,0.176c0,0.088-0.088,0.132-0.264,0.132h-16.062c-1.584,0-2.244,0.044-3.213,0.176l-0.176-0.924
		c1.034,0.198,1.672,0.242,3.389,0.242h5.479v-1.871h-4.929c-0.836,0-1.474,0.044-2.046,0.132l-0.154-0.836
		c0.836,0.154,1.255,0.198,2.2,0.198h4.929v-1.738h-4.643c-0.88,0-1.276,0.022-2.002,0.132l-0.177-0.814
		c0.727,0.132,1.277,0.176,2.267,0.176h4.555v-1.936h-6.579c-1.231,0-1.782,0.022-2.618,0.132l-0.154-0.858
		c0.946,0.176,1.519,0.22,2.86,0.22h6.491v-1.805h-4.29c-0.771,0-1.364,0.044-1.914,0.11l-0.177-0.836
		c0.814,0.176,1.255,0.22,2.091,0.22h4.29c-0.021-0.88-0.021-1.1-0.088-1.937c2.2,0.198,2.311,0.22,2.311,0.462
		c0,0.154-0.176,0.242-0.792,0.44v1.034h4.665c0.352-0.396,0.462-0.528,0.836-0.902c0.55,0.396,0.704,0.506,1.231,0.902
		c0.133,0.11,0.198,0.198,0.198,0.264c0,0.154-0.132,0.264-0.638,0.55v1.497H143.386z M130.624,132.777
		c-0.022,0.176-0.066,0.242-0.198,0.264c-0.132,0.045-0.683,0.088-1.034,0.088c-0.286,0-0.374-0.065-0.374-0.285
		c0,0,0-0.045,0-0.066c0.088-1.738,0.109-2.398,0.109-4.158c0-1.673-0.021-2.179-0.088-3.147c0.858,0.352,1.101,0.484,1.937,0.924
		h9.594c0.374-0.462,0.483-0.594,0.88-1.012c0.594,0.418,0.77,0.55,1.342,1.012c0.132,0.132,0.177,0.22,0.177,0.286
		c0,0.132-0.133,0.22-0.66,0.528v2.002c0,1.21,0.021,2.002,0.065,3.543c0,0.176-0.065,0.264-0.22,0.308
		c-0.132,0.044-0.727,0.11-1.078,0.11c-0.198,0-0.265-0.066-0.286-0.242v-0.881h-10.165V132.777z M140.789,126.902h-10.165v1.959
		h10.165V126.902z M130.624,129.367v2.178h10.165v-2.178H130.624z M140.987,115.351h-4.797v1.805h4.797V115.351z M136.19,117.661
		v1.936h4.797v-1.936H136.19z"/>
	<path d="M149.798,117.331c1.034,0.748,1.761,0.99,2.927,0.99c1.012,0,2.641-0.286,3.608-0.66c-0.506-0.946-1.387-2.09-1.893-2.464
		c-0.286-0.22-0.88-0.374-1.694-0.462c0.154-0.374,0.286-0.44,0.881-0.572c0.352-0.088,0.615-0.11,1.012-0.11
		c0.771,0,1.298,0.11,1.496,0.286c0.198,0.176,0.22,0.242,0.265,0.858c0.021,0.44,0.021,0.44,0.901,2.178
		c2.024-0.748,2.553-1.012,3.146-1.628c0.177-0.154,0.374-0.22,0.704-0.22c0.858,0,1.299,0.198,1.299,0.572
		c0,0.308-0.286,0.484-1.431,0.968c-0.352,0.154-1.43,0.528-3.234,1.1c0.22,0.374,0.22,0.374,0.484,0.814
		c0.132,0.22,0.483,0.836,1.078,1.804c1.738-0.682,2.156-0.858,2.729-1.21c-0.463-0.484-0.616-0.616-1.145-1.034l0.154-0.22
		c0.836,0.418,1.408,0.616,1.848,0.616c0,0,0,0,0.396-0.044c0.065-0.022,0.132-0.022,0.176-0.022c0.353,0,0.594,0.22,0.594,0.55
		c0,0.528-1.275,1.21-4.269,2.266c0.683,1.167,0.793,1.364,0.99,1.716c0.507,0.902,0.507,0.902,1.013,1.738
		c0.264,0.418,0.374,0.77,0.374,1.188c0,0.858-0.286,1.431-0.727,1.431c-0.198,0-0.264-0.044-0.616-0.33
		c-1.122-0.902-3.168-1.519-5.104-1.519c-1.012,0-2.002,0.221-2.75,0.616c-0.902,0.462-1.32,1.034-1.32,1.782
		c0,1.364,1.452,2.09,4.158,2.09c1.078,0,1.717-0.065,2.772-0.308c0.11-0.022,0.198-0.044,0.265-0.044
		c0.66,0,1.452,0.616,1.452,1.166c0,0.176-0.11,0.33-0.33,0.418c-0.418,0.176-1.761,0.33-3.015,0.33
		c-1.717,0-3.234-0.242-4.225-0.66c-1.343-0.594-2.135-1.628-2.135-2.771c0-1.98,2.333-3.301,5.81-3.301
		c1.298,0,2.53,0.132,4.136,0.484c-0.241-0.88-0.836-2.178-1.649-3.741c-1.475,0.506-3.345,0.836-4.688,0.836
		c-0.945,0-1.649-0.198-2.288-0.638c-0.439-0.308-0.682-0.616-1.056-1.32l0.264-0.198c0.704,0.946,1.431,1.298,2.597,1.298
		c1.276,0,2.882-0.286,4.708-0.836c-0.462-0.858-1.034-1.848-1.54-2.641c-1.474,0.462-2.926,0.704-4.093,0.704
		c-1.21,0-2.244-0.528-3.212-1.606L149.798,117.331z"/>
</g>
<g>
</g>
<g>
</g>
<g>
</g>
<g>
</g>
<g>
</g>
<g>
</g>
<g>
</g>
<g>
</g>
<g>
</g>
<g>
</g>
<g>
</g>
<g>
</g>
<g>
</g>
<g>
</g>
<g>
</g>
</svg>
