<?xml version="1.0" encoding="utf-8"?>
<!-- Generator: Adobe Illustrator 26.0.0, SVG Export Plug-In . SVG Version: 6.00 Build 0)  -->
<svg version="1.1" id="レイヤー_1" xmlns="http://www.w3.org/2000/svg" xmlns:xlink="http://www.w3.org/1999/xlink" x="0px"
	 y="0px" width="250px" height="250px" viewBox="0 0 250 250" style="enable-background:new 0 0 250 250;" xml:space="preserve">
<style type="text/css">
	.st0{fill:#FFF7DB;}
</style>
<g>
	<rect class="st0" width="250" height="250"/>
</g>
<g>
	<path d="M80.415,122.062c0.374-0.484,0.484-0.638,0.902-1.144c0.682,0.44,0.88,0.594,1.474,1.034
		c0.198,0.176,0.286,0.286,0.286,0.396c0,0.198-0.198,0.352-0.836,0.66v5.413c0,0.901,0,1.364,0.044,4.026
		c0,0.221-0.044,0.309-0.176,0.374c-0.176,0.088-0.638,0.154-1.1,0.154c-0.286,0-0.374-0.066-0.396-0.265v-0.902h-13.07
		c-0.858,0-1.144,0.022-1.936,0.133l-0.132-0.793c0.704,0.111,1.166,0.154,2.024,0.154h13.114v-4.356h-12.08
		c-0.968,0-1.276,0.022-1.98,0.11l-0.154-0.793c0.704,0.111,1.188,0.154,2.134,0.154h12.08v-3.828H67.521
		c-0.528,0-0.968,0.022-1.738,0.11l-0.176-0.814c0.572,0.088,1.408,0.176,1.958,0.176h5.655v-6.249c0-0.902-0.022-1.408-0.132-2.486
		c0.55,0.066,0.946,0.11,1.21,0.132c1.188,0.132,1.518,0.22,1.518,0.462c0,0.22-0.308,0.374-1.012,0.484v7.657H80.415z
		 M66.355,114.471c1.166,0.858,2.398,2.046,3.433,3.278c0.396,0.484,0.66,1.078,0.66,1.474c0,0.771-0.572,1.849-0.99,1.849
		c-0.198,0-0.22-0.066-0.506-0.902c-0.836-2.398-1.254-3.212-2.86-5.501L66.355,114.471z M80.195,114.272
		c2.486,0.771,2.619,0.814,2.619,1.034c0,0.242-0.286,0.352-1.254,0.506c-2.134,3.036-2.75,3.806-4.533,5.765l-0.352-0.176
		c0.704-1.056,1.034-1.672,2.333-4.247c0.418-0.858,0.418-0.88,0.858-2.002L80.195,114.272z"/>
	<path d="M102.103,115.835c0.528-0.726,0.704-0.924,1.254-1.606c1.012,0.748,1.32,0.99,2.267,1.804
		c0.022,0.088,0.044,0.154,0.044,0.176c0,0.088-0.044,0.132-0.176,0.132H89.297c0,0.638,0,1.166,0,1.43
		c0,5.303-0.33,8.405-1.144,10.672c-0.638,1.76-1.298,2.859-2.574,4.312l-0.264-0.154c0.99-1.672,1.518-3.08,1.892-5.171
		c0.352-1.804,0.484-4.225,0.484-8.538c0-2.178-0.022-3.036-0.088-4.203c0.836,0.462,1.1,0.616,1.849,1.145h6.271v-1.496
		c0-0.132-0.022-0.418-0.044-0.814c0-0.154-0.022-0.396-0.044-0.726c2.002,0.22,2.508,0.352,2.508,0.55
		c0,0.176-0.33,0.352-0.946,0.484v2.002H102.103z M101.069,120.631c0.55-0.726,0.726-0.924,1.276-1.584
		c0.99,0.77,1.276,0.99,2.223,1.804c0.044,0.066,0.066,0.132,0.066,0.154c0,0.088-0.066,0.132-0.198,0.132h-7.239v4.114h4.356
		c0.352-0.462,0.44-0.594,0.792-1.034c0.616,0.44,0.792,0.572,1.342,0.99c0.176,0.154,0.242,0.242,0.242,0.33
		c0,0.154-0.198,0.308-0.704,0.55v2.244c0,1.871,0,2.268,0.044,3.895c0,0.177-0.044,0.265-0.132,0.309
		c-0.088,0.044-0.858,0.133-1.188,0.133c-0.198,0-0.286-0.066-0.286-0.242v-1.013h-9.241v1.013c-0.022,0.242-0.11,0.308-0.55,0.352
		c-0.088,0.021-0.462,0.044-0.572,0.044c-0.308,0-0.44-0.088-0.44-0.308c0-0.022,0-0.066,0-0.11c0.022-0.99,0.066-5.347,0.066-6.161
		c0-0.638-0.022-1.166-0.066-2.024c0.792,0.396,1.034,0.55,1.738,1.034h3.124v-6.447c0-0.946,0-1.122-0.11-1.826
		c1.958,0.154,2.333,0.22,2.333,0.418c0,0.154-0.22,0.286-0.748,0.462v2.772H101.069z M92.421,130.907h9.241v-5.149h-9.241V130.907z
		"/>
	<path d="M112.19,123.316c-0.044,0.198-0.374,1.584-0.99,4.137c-0.308,1.297-0.374,1.649-0.374,2.332
		c0,0.638-0.022,0.814-0.066,0.945c-0.088,0.242-0.286,0.375-0.528,0.375c-0.374,0-0.704-0.309-0.946-0.902
		c-0.484-1.145-0.77-2.927-0.77-4.687c0-0.66,0.066-1.474,0.176-2.354c0.154-1.276,0.154-1.276,0.77-4.159
		c0.22-1.034,0.308-1.584,0.308-2.046c0-0.726-0.176-1.276-0.616-2.068c0.484,0.022,0.88,0.308,1.474,1.078
		c0.55,0.682,0.814,1.254,0.814,1.738c0,0.352-0.022,0.44-0.462,1.32c-0.44,0.924-0.968,2.464-1.188,3.499
		c-0.198,0.836-0.286,1.782-0.286,2.728c0,1.211,0.11,1.98,0.418,2.904c0.374-0.77,0.55-1.21,0.792-1.87l1.166-3.08L112.19,123.316z
		 M114.963,124.416c-0.044,0.44-0.066,0.638-0.066,0.924c0,2.42,1.386,3.41,4.797,3.41c0.638,0,1.276-0.043,1.87-0.153
		c0.462-0.065,0.462-0.065,1.167-0.353c0.132-0.043,0.242-0.065,0.33-0.065c0.572,0,1.386,0.771,1.386,1.298
		c0,0.264-0.176,0.44-0.484,0.551c-0.462,0.153-1.518,0.242-2.75,0.242c-2.75,0-4.708-0.463-5.699-1.343
		c-0.792-0.726-1.188-1.65-1.188-2.86c0-0.55,0.066-1.034,0.264-1.738L114.963,124.416z M114.918,117.419
		c0.771,0.462,1.254,0.594,2.046,0.594c1.364,0,3.499-0.484,4.423-0.99c0.286-0.154,0.33-0.176,0.484-0.176
		c0.176,0,0.462,0.11,0.77,0.308c0.462,0.264,0.682,0.528,0.682,0.814s-0.154,0.418-0.616,0.506c-1.453,0.22-2.267,0.418-3.125,0.77
		c-0.682,0.286-1.958,0.99-2.838,1.562l-0.22-0.22c0.99-0.836,1.738-1.452,2.09-1.716c-0.462,0.022-0.704,0.044-0.902,0.044
		c-1.232,0-2.046-0.33-2.992-1.232L114.918,117.419z"/>
	<path d="M134.239,129.961c2.024-0.506,3.477-1.057,4.862-1.848c2.574-1.453,4.049-3.609,4.049-5.919c0-2.2-1.629-3.697-4.027-3.697
		c-2.574,0-5.939,1.408-8.844,3.675c-0.354,0.286-0.572,0.374-0.837,0.374c-1.034,0-2.64-1.541-2.64-2.53
		c0-0.154,0.043-0.286,0.176-0.55c0.22,0.462,0.352,0.616,0.615,0.814c0.33,0.242,0.595,0.352,0.902,0.352
		c0.572,0,1.408-0.242,2.662-0.792c3.477-1.518,5.766-2.112,8.053-2.112c3.346,0,5.633,1.958,5.633,4.841
		c0,2.729-1.848,5.083-5.061,6.447c-1.672,0.704-3.277,1.078-5.434,1.276L134.239,129.961z"/>
	<path d="M155.469,122.656c-1.605,3.697-2.068,4.995-2.068,5.875c0,0.176,0,0.176,0.133,0.748c0.021,0.109,0.043,0.242,0.043,0.352
		c0,0.309-0.219,0.55-0.484,0.55c-0.615,0-1.738-0.858-2.42-1.87c-0.748-1.078-1.275-2.64-1.496-4.4
		c-0.131-0.968-0.154-1.519-0.154-3.873c-0.021-2.046-0.176-2.553-1.121-3.785c0.066,0,0.109,0,0.197,0
		c0.352,0,0.99,0.418,1.65,1.078c0.66,0.638,0.99,1.232,0.99,1.738c0,0.132-0.021,0.308-0.066,0.572
		c-0.264,1.342-0.396,2.376-0.396,3.278c0,1.188,0.178,2.288,0.508,3.19s0.594,1.298,1.143,1.716
		c0.242-0.352,0.242-0.352,0.727-1.166c0.705-1.188,0.705-1.188,1.848-3.102c0.354-0.572,0.354-0.572,0.639-1.056L155.469,122.656z
		 M160.156,118.673c2.771,0.616,4.973,3.542,4.973,6.579c0,1.057-0.441,1.738-1.102,1.738c-0.219,0-0.352-0.044-0.66-0.242
		c-0.285-0.197-0.703-0.264-1.648-0.264c-0.508,0-0.926,0-1.674,0.044l-0.064-0.33c1.781-0.484,2.771-0.77,2.969-0.836
		c0.441-0.154,0.508-0.242,0.508-0.66c0-0.814-0.309-2.09-0.684-2.882c-0.594-1.276-1.475-2.201-2.729-2.882L160.156,118.673z"/>
	<path d="M167.871,118.189c0.309,0.286,0.551,0.375,0.99,0.375c0.617,0,1.166-0.11,6.096-1.298c0.924-0.22,2.111-0.484,3.564-0.77
		c1.672-0.33,2.311-0.484,2.971-0.704c0.439-0.132,0.594-0.176,0.77-0.176c0.264,0,0.748,0.198,1.188,0.462
		c0.441,0.286,0.639,0.528,0.639,0.836c0,0.33-0.264,0.55-0.682,0.55c-0.088,0-0.242,0-0.396-0.022
		c-0.285-0.044-0.396-0.044-0.615-0.044c-3.764,0-7.395,3.586-7.395,7.283c0,2.025,1.014,3.521,2.906,4.334
		c0.725,0.308,1.605,0.507,2.244,0.528c0.439,0,0.594,0.066,0.924,0.352c0.396,0.396,0.66,0.793,0.66,1.057
		c0,0.374-0.33,0.615-0.814,0.615c-1.254,0-3.234-0.703-4.467-1.584c-1.672-1.188-2.553-2.882-2.553-4.928
		c0-1.782,0.881-3.741,2.398-5.369c0.881-0.968,1.76-1.562,3.586-2.508c-2.002,0.286-3.807,0.704-6.314,1.518
		c-1.387,0.44-2.816,1.034-3.52,1.408c-0.441,0.264-0.594,0.308-0.881,0.308c-0.527,0-1.188-0.506-1.693-1.298
		c-0.354-0.528-0.572-1.122-0.572-1.474c0-0.176,0.043-0.308,0.242-0.572C167.344,117.595,167.52,117.881,167.871,118.189z"/>
</g>
<g>
</g>
<g>
</g>
<g>
</g>
<g>
</g>
<g>
</g>
<g>
</g>
<g>
</g>
<g>
</g>
<g>
</g>
<g>
</g>
<g>
</g>
<g>
</g>
<g>
</g>
<g>
</g>
<g>
</g>
</svg>
