<?xml version="1.0" encoding="utf-8"?>
<!-- Generator: Adobe Illustrator 26.0.0, SVG Export Plug-In . SVG Version: 6.00 Build 0)  -->
<svg version="1.1" id="レイヤー_1" xmlns="http://www.w3.org/2000/svg" xmlns:xlink="http://www.w3.org/1999/xlink" x="0px"
	 y="0px" width="250px" height="250px" viewBox="0 0 250 250" style="enable-background:new 0 0 250 250;" xml:space="preserve">
<style type="text/css">
	.st0{fill:#FFF7DB;}
</style>
<g>
	<rect class="st0" width="250" height="250"/>
</g>
<g>
	<path d="M90.82,131.854c1.628-1.343,3.014-3.279,3.982-5.545c0.726-1.672,1.32-3.829,1.32-4.797c0-0.594-0.418-1.034-1.298-1.408
		c0.132-0.154,0.286-0.22,0.506-0.22c0.286,0,1.056,0.286,1.694,0.638c0.572,0.308,0.792,0.484,0.946,0.77
		c1.012-0.616,2.993-2.178,3.938-3.146c0.506-0.484,0.682-0.726,0.682-0.88c0-0.264-0.264-0.33-1.298-0.33
		c-1.453,0-5.215,0.594-7.591,1.21c-0.836,0.22-1.606,0.484-2.244,0.77c-0.132,0.066-0.352,0.11-0.506,0.11
		c-0.484,0-1.276-0.66-1.76-1.474c-0.242-0.418-0.418-0.924-0.418-1.188c0-0.154,0.044-0.308,0.154-0.506
		c0.396,0.902,1.1,1.32,2.178,1.32c0.792,0,1.188-0.044,5.303-0.572c0.198-0.022,0.682-0.088,1.518-0.176
		c3.411-0.396,3.586-0.44,4.049-0.66c0.132-0.044,0.176-0.066,0.286-0.066c0.242,0,0.638,0.22,1.167,0.638
		c0.946,0.726,1.584,1.474,1.584,1.848c0,0.33-0.132,0.418-0.792,0.594c-0.352,0.11-0.594,0.198-1.078,0.462
		c-1.826,1.034-2.816,1.541-5.193,2.663c-0.132,0.374-0.154,0.418-0.33,0.99c-0.99,3.014-1.848,4.731-3.168,6.293
		c-1.078,1.254-2.178,2.222-3.41,2.947L90.82,131.854z"/>
	<path d="M107.166,123.844c1.628-1.364,3.081-3.08,4.621-5.391c0.902-1.364,1.452-2.486,1.452-2.97c0-0.286-0.088-0.462-0.418-0.748
		c-0.286-0.242-0.286-0.242-0.528-0.396c-0.242-0.11-0.242-0.11-0.396-0.198c0.198-0.11,0.286-0.132,0.418-0.132
		c0.484,0,1.21,0.242,1.805,0.594c0.704,0.396,1.034,0.77,1.034,1.122c0,0.264-0.022,0.286-1.188,2.002
		c0.286,0.066,0.418,0.088,0.572,0.088c0.44,0,1.518-0.176,2.64-0.44c0.902-0.22,1.276-0.352,1.738-0.594
		c0.176-0.11,0.242-0.132,0.374-0.132c0.528,0,1.782,1.144,1.782,1.628c0,0.198-0.066,0.308-0.33,0.55
		c-0.374,0.33-0.484,0.506-1.056,1.562c-1.936,3.63-3.806,6.028-6.491,8.272c-1.892,1.607-3.542,2.641-5.457,3.434l-0.154-0.309
		c1.76-1.078,3.081-2.156,4.863-3.938c2.662-2.641,4.73-5.633,6.007-8.713c0.22-0.484,0.352-0.946,0.352-1.122
		c0-0.088-0.066-0.154-0.198-0.154c-0.33,0-1.716,0.352-2.794,0.704c-0.396,0.132-0.528,0.154-0.726,0.154
		c-0.462,0-0.924-0.22-1.364-0.638c-1.694,2.42-3.938,4.555-6.337,6.029L107.166,123.844z"/>
	<path d="M134.681,125.362c1.144-1.144,2.354-2.574,3.388-4.027c0.33-0.462,0.551-0.814,0.551-0.902s-0.066-0.154-0.154-0.154
		c-0.33,0-1.057,0.22-2.971,0.902c-2.641,0.924-3.014,1.078-3.895,1.43c-0.043,1.012-0.043,1.386-0.043,2.024
		c0,2.222,0.109,3.256,0.439,3.762c0.33,0.528,1.1,0.771,2.486,0.771c1.541,0,3.059-0.22,3.982-0.572
		c0.286-0.11,0.33-0.132,0.44-0.132c0.198,0,0.528,0.132,0.858,0.352c0.439,0.286,0.66,0.616,0.66,0.924
		c0,0.265-0.176,0.44-0.506,0.507c-0.749,0.198-2.047,0.286-3.631,0.286c-3.125,0-4.577-0.463-5.237-1.694
		c-0.483-0.858-0.638-2.223-0.683-5.809c-0.197,0.11-0.197,0.11-1.078,0.462c-0.153,0.066-0.439,0.198-0.857,0.374
		c-0.221,0.11-0.462,0.22-0.682,0.33c-0.309,0.132-0.33,0.154-0.617,0.33c-0.285,0.176-0.483,0.242-0.703,0.242
		c-0.462,0-1.057-0.44-1.606-1.144c-0.374-0.484-0.616-1.012-0.616-1.32c0-0.066,0.022-0.154,0.044-0.264
		c0.682,0.814,1.144,1.1,1.782,1.1c0.551,0,2.707-0.572,4.357-1.144c-0.045-4.159-0.045-4.356-0.199-4.907
		c-0.176-0.594-0.682-0.968-1.628-1.232c0.198-0.22,0.374-0.286,0.748-0.286c0.749,0,1.694,0.264,2.442,0.66
		c0.44,0.242,0.66,0.528,0.66,0.814c0,0.132,0,0.132-0.176,0.528c-0.264,0.572-0.463,2.024-0.572,4.048
		c2.553-0.858,4.07-1.364,4.73-1.628c1.211-0.462,1.211-0.462,1.629-0.771c0.22-0.176,0.352-0.22,0.572-0.22
		c0.418,0,1.033,0.352,1.716,0.946c0.483,0.44,0.683,0.704,0.683,0.968c0,0.308-0.111,0.396-0.617,0.594
		c-0.22,0.088-0.791,0.528-2.311,1.804c-1.033,0.836-1.781,1.386-3.168,2.311L134.681,125.362z"/>
	<path d="M144.594,130.643c2.113-1.32,4.291-3.102,5.92-4.818c1.32-1.386,2.904-3.455,4.202-5.479
		c0.704-1.078,1.078-1.805,1.496-2.839c-1.056,0.066-2.222,0.308-4.643,0.968c-1.056,0.286-1.144,0.308-1.849,0.594
		c-0.109,0.044-0.242,0.066-0.373,0.066c-0.484,0-0.947-0.396-1.431-1.254c-0.308-0.506-0.462-0.968-0.462-1.32
		c0-0.132,0.043-0.242,0.154-0.44c0.638,1.144,1.1,1.474,2.068,1.474c0.726,0,2.947-0.286,4.62-0.616
		c1.276-0.242,1.673-0.374,2.068-0.616c0.241-0.154,0.353-0.198,0.506-0.198c0.462,0,1.716,1.122,1.716,1.54
		c0,0.154-0.088,0.286-0.285,0.418c-0.463,0.308-0.463,0.308-1.254,1.496c-1.057,1.584-1.057,1.584-2.773,3.829
		c3.104,1.628,4.841,2.75,5.699,3.718c0.594,0.639,0.836,1.277,0.836,2.179c0,0.704-0.22,1.144-0.594,1.144
		c-0.154,0-0.33-0.109-0.506-0.352c-0.088-0.109-0.088-0.109-0.528-0.88c-1.101-1.849-2.993-3.807-5.237-5.391
		c-1.781,2.156-3.212,3.498-5.324,4.95c-1.387,0.969-2.332,1.496-3.851,2.156L144.594,130.643z"/>
</g>
<g>
</g>
<g>
</g>
<g>
</g>
<g>
</g>
<g>
</g>
<g>
</g>
<g>
</g>
<g>
</g>
<g>
</g>
<g>
</g>
<g>
</g>
<g>
</g>
<g>
</g>
<g>
</g>
<g>
</g>
</svg>
