<?xml version="1.0" encoding="utf-8"?>
<!-- Generator: Adobe Illustrator 26.0.0, SVG Export Plug-In . SVG Version: 6.00 Build 0)  -->
<svg version="1.1" xmlns="http://www.w3.org/2000/svg" xmlns:xlink="http://www.w3.org/1999/xlink" x="0px" y="0px"
	 width="524.409px" height="411.024px" viewBox="0 0 524.409 411.024" style="enable-background:new 0 0 524.409 411.024;"
	 xml:space="preserve">
<style type="text/css">
	.st0{clip-path:url(#SVGID_00000180367799378183860680000013694977935852831423_);}
	.st1{fill:#BEE0E5;}
	.st2{fill:#FFFFFF;}
	.st3{fill:none;stroke:#533F32;stroke-width:22;}
	.st4{fill:none;stroke:#533F32;stroke-width:12;}
	.st5{fill:none;stroke:#000000;stroke-width:2;}
	.st6{fill:none;stroke:#000000;stroke-width:8;}
	.st7{fill:none;stroke:#000000;stroke-width:12;}
	.st8{fill:#7C2226;}
	.st9{fill:#FDF5DA;}
	.st10{fill:none;stroke:#7C2226;stroke-width:0.75;stroke-miterlimit:10;}
</style>
<g id="道">
</g>
<g id="建物">
	<g>
		<defs>
			<rect id="SVGID_1_" width="524.409" height="411.024"/>
		</defs>
		<clipPath id="SVGID_00000023989997256609633670000001523259759199465351_">
			<use xlink:href="#SVGID_1_"  style="overflow:visible;"/>
		</clipPath>
		<g style="clip-path:url(#SVGID_00000023989997256609633670000001523259759199465351_);">
			<rect x="427.906" y="-18.237" class="st1" width="33.313" height="539.131"/>
			<rect x="418.928" y="288.882" class="st2" width="46.377" height="31.121"/>
			<line class="st3" x1="-20.371" y1="304.42" x2="528.114" y2="304.42"/>
			<line class="st3" x1="162.963" y1="-6.155" x2="162.963" y2="513.542"/>
			<line class="st3" x1="323.568" y1="-6.155" x2="323.568" y2="513.542"/>
			<line class="st3" x1="172.053" y1="160.511" x2="528.114" y2="160.511"/>
			<line class="st4" x1="390.235" y1="-6.155" x2="390.235" y2="528.693"/>
			<line class="st4" x1="223.568" y1="-6.155" x2="223.568" y2="528.693"/>
			<line class="st4" x1="-3.704" y1="48.39" x2="528.114" y2="48.39"/>
			<line class="st4" x1="-3.704" y1="154.898" x2="162.963" y2="154.898"/>
			<line class="st4" x1="162.963" y1="213.166" x2="223.568" y2="213.166"/>
			<polyline class="st5" points="475.472,275.198 464.571,287.484 423.88,287.484 412.98,275.198 			"/>
			<polyline class="st5" points="475.808,332.301 464.907,320.015 424.215,320.015 413.316,332.301 			"/>
			<path class="st6" d="M136.217,68.582c0,1.089,0.883,1.973,1.973,1.973c1.089,0,1.973-0.883,1.973-1.973
				c0-1.089-0.883-1.973-1.973-1.973C137.1,66.609,136.217,67.492,136.217,68.582z"/>
			<path class="st6" d="M247.113,137.978c0,1.089,0.884,1.973,1.973,1.973c1.089,0,1.973-0.883,1.973-1.973
				c0-1.089-0.884-1.973-1.973-1.973C247.997,136.005,247.113,136.888,247.113,137.978z"/>
			<rect x="136.217" y="77.616" class="st7" width="0" height="0"/>
			<g>
				<path d="M242.522,111.211c0.444,0.312,1.703,1.332,2.003,1.595l-0.48,0.612c-0.276-0.312-0.983-0.972-1.523-1.452v3.227h-0.792
					v-3.31c-0.576,0.947-1.319,1.835-1.991,2.362c-0.132-0.192-0.372-0.456-0.54-0.587c0.852-0.564,1.787-1.691,2.375-2.794h-2.146
					v-0.708h2.303v-1.271h-2.459v-0.708h1.475c-0.06-0.516-0.264-1.271-0.516-1.847l0.648-0.18c0.276,0.6,0.503,1.379,0.563,1.895
					l-0.444,0.132h2.015c-0.156-0.06-0.324-0.12-0.336-0.12c0.24-0.528,0.528-1.367,0.672-1.943l0.911,0.288
					c-0.024,0.072-0.108,0.108-0.24,0.12c-0.168,0.468-0.456,1.164-0.696,1.655h1.751v0.708h-2.435
					c-0.036,0.012-0.072,0.024-0.12,0.024v1.248h2.375v0.708h-2.375V111.211z M244.825,105.394v0.696h-5.313v-0.696h2.219v-1.343
					l1.019,0.06c-0.012,0.084-0.072,0.144-0.228,0.168v1.115H244.825z M250.414,108.177v0.755h-1.416v6.261h-0.792v-6.261h-1.895
					v0.444c0,1.799-0.228,4.174-1.955,5.841c-0.096-0.18-0.372-0.456-0.564-0.564c1.571-1.511,1.751-3.586,1.751-5.289v-4.173
					l0.588,0.192c1.247-0.36,2.591-0.852,3.346-1.295l0.804,0.612c-0.036,0.036-0.12,0.06-0.252,0.036
					c-0.888,0.444-2.363,0.936-3.718,1.271v2.171H250.414z"/>
				<path d="M251.77,107.433c0.78,0.288,1.727,0.804,2.195,1.199l-0.456,0.684c-0.468-0.408-1.403-0.959-2.171-1.283L251.77,107.433
					z M251.65,114.533c0.587-0.972,1.427-2.639,2.051-4.054l0.636,0.468c-0.564,1.319-1.319,2.866-1.859,3.826
					c0.048,0.06,0.06,0.12,0.06,0.168s-0.012,0.096-0.036,0.132L251.65,114.533z M252.417,104.147
					c0.768,0.336,1.703,0.887,2.159,1.307l-0.468,0.66c-0.456-0.432-1.379-1.02-2.147-1.367L252.417,104.147z M261.952,110.396
					l0.432,0.072c0,0.072-0.024,0.168-0.024,0.252c-0.168,2.782-0.336,3.79-0.671,4.15c-0.252,0.288-0.54,0.324-1.2,0.324
					c-0.288,0-0.66-0.012-1.02-0.024c-0.012-0.216-0.096-0.504-0.204-0.708c0.587,0.06,1.151,0.072,1.355,0.072
					c0.216,0,0.324-0.024,0.42-0.132c0.216-0.228,0.384-1.091,0.516-3.262h-5.217c-0.504,0.624-1.092,1.175-1.667,1.595
					c-0.132-0.144-0.372-0.408-0.54-0.551c0.912-0.624,1.859-1.643,2.471-2.747h-1.283v-4.51l0.516,0.168
					c0.636-0.312,1.367-0.744,1.835-1.067l0.696,0.612c-0.048,0.048-0.072,0.048-0.24,0.048c-0.54,0.312-1.392,0.72-2.063,0.996
					v1.079h1.895v0.672h-1.895v1.307h5.025v-1.307h-2.194v-0.672h2.194v-1.259h-2.207v-0.695h2.974v4.629h-4.162
					c-0.06,0.048-0.132,0.084-0.252,0.072c-0.156,0.3-0.348,0.6-0.54,0.899h4.869L261.952,110.396z M256.231,112.23
					c-0.144,0.996-0.42,2.015-1.127,2.59l-0.552-0.384c0.624-0.503,0.923-1.427,1.055-2.351L256.231,112.23z M257.083,114.509
					c0.012-0.588-0.096-1.487-0.276-2.195l0.587-0.084c0.192,0.696,0.312,1.607,0.312,2.183L257.083,114.509z M258.954,113.981
					c-0.144-0.504-0.503-1.271-0.863-1.835l0.528-0.192c0.372,0.563,0.743,1.307,0.887,1.799L258.954,113.981z M259.829,111.583
					c0.492,0.432,0.996,1.02,1.248,1.427l-0.48,0.336c-0.24-0.419-0.744-1.031-1.199-1.463L259.829,111.583z"/>
				<path d="M263.782,107.829c1.079,0.24,2.422,0.696,3.226,1.08l-0.36,0.755c-0.792-0.384-2.171-0.863-3.226-1.103L263.782,107.829
					z M264.501,113.694c3.897-1.308,6.56-3.382,8.155-6.98c0.18,0.156,0.552,0.408,0.731,0.528
					c-1.607,3.562-4.401,5.781-8.071,7.088c0.024,0.108-0.036,0.252-0.144,0.3L264.501,113.694z M265.101,104.854
					c1.079,0.288,2.398,0.768,3.214,1.175l-0.396,0.731c-0.852-0.432-2.099-0.911-3.178-1.211L265.101,104.854z"/>
				<path d="M284.411,109.1h-4.054l0.204,0.06c-0.024,0.072-0.108,0.132-0.24,0.144c-0.324,2.23-1.139,4.222-3.706,5.481
					c-0.144-0.156-0.443-0.444-0.647-0.6c2.495-1.2,3.19-2.878,3.466-5.085h-4.665v-0.804h9.643V109.1z M283.223,105.718h-7.364
					v-0.803h7.364V105.718z"/>
				<path d="M293.255,107.193c-0.048,0.06-0.12,0.084-0.204,0.084c-0.06,0-0.108-0.012-0.168-0.024
					c-0.768,0.768-1.751,1.583-2.639,2.219c0.156,0.06,0.228,0.083,0.264,0.108c-0.024,0.048-0.108,0.108-0.204,0.132v5.205h-0.731
					v-5.001c-1.02,0.72-2.65,1.667-3.946,2.291c-0.096-0.144-0.288-0.432-0.432-0.564c2.062-0.947,5.157-2.758,7.232-5.037
					L293.255,107.193z"/>
				<path d="M242.714,121.604c-0.552,1.403-1.343,2.663-2.267,3.562l-0.695-0.456c0.863-0.827,1.691-1.979,2.171-3.394
					L242.714,121.604z M245.269,119.733v5.709c0,1.343-1.056,1.331-2.843,1.307c-0.048-0.216-0.144-0.552-0.264-0.792
					c0.276,0.012,1.619,0,1.751,0c0.336,0,0.492-0.216,0.492-0.504v-5.721h-4.078v-0.804h4.078v-2.458l1.139,0.06
					c-0.012,0.12-0.096,0.216-0.275,0.228v2.171h4.054v0.804H245.269z M247.416,121.244c0.875,0.971,1.883,2.375,2.531,3.49
					l-0.768,0.444c-0.588-1.103-1.643-2.638-2.447-3.55L247.416,121.244z"/>
				<path d="M260.608,121.1h-4.054l0.204,0.06c-0.024,0.072-0.108,0.132-0.24,0.144c-0.324,2.23-1.139,4.222-3.706,5.481
					c-0.144-0.156-0.444-0.444-0.647-0.6c2.495-1.2,3.19-2.878,3.466-5.085h-4.666v-0.804h9.643V121.1z M259.421,117.718h-7.364
					v-0.803h7.364V117.718z"/>
				<path d="M264.17,118.27c-0.012,0.108-0.12,0.18-0.276,0.204c-0.072,3.226-0.336,6.165-2.183,8.312
					c-0.192-0.144-0.48-0.324-0.72-0.456c1.787-1.943,2.003-4.941,2.039-8.167L264.17,118.27z M267.277,125.178
					c2.003-0.971,3.298-2.722,3.994-4.821c0.18,0.156,0.54,0.36,0.744,0.468c-0.852,2.423-2.339,4.21-4.894,5.421
					c-0.036,0.096-0.12,0.192-0.204,0.24l-0.624-0.792l0.132-0.18v-8.803l1.115,0.06c-0.012,0.108-0.096,0.204-0.264,0.228V125.178z
					"/>
			</g>
			<path class="st6" d="M138.19,279.3c0,1.09,0.884,1.973,1.973,1.973s1.973-0.883,1.973-1.973c0-1.09-0.884-1.973-1.973-1.973
				S138.19,278.21,138.19,279.3z"/>
			<path class="st6" d="M184.19,327.805c0,1.09,0.884,1.973,1.973,1.973c1.089,0,1.973-0.883,1.973-1.973
				c0-1.09-0.884-1.973-1.973-1.973C185.073,325.832,184.19,326.715,184.19,327.805z"/>
			<g>
				<path d="M184.927,346.035c-0.42,0.204-1.235,0.408-2.279,0.408c-2.351,0-4.246-1.523-4.246-4.617
					c0-2.951,1.835-4.786,4.51-4.786c1.091,0,1.727,0.228,2.015,0.372l-0.264,0.839c-0.42-0.204-1.008-0.372-1.727-0.372
					c-2.075,0-3.49,1.391-3.49,3.91c0,2.398,1.295,3.814,3.43,3.814c0.696,0,1.379-0.156,1.835-0.372L184.927,346.035z"/>
				<path d="M193.147,341.658c0,3.214-1.799,4.797-3.958,4.797c-2.267,0-3.874-1.787-3.874-4.642c0-2.974,1.691-4.785,3.982-4.785
					C191.636,337.028,193.147,338.899,193.147,341.658z M186.359,341.79c0,1.943,1.007,3.838,2.866,3.838
					c1.883,0,2.878-1.835,2.878-3.922c0-1.835-0.899-3.85-2.854-3.85C187.234,337.855,186.359,339.847,186.359,341.79z"/>
				<path d="M194.316,342.269h3.274v0.768h-3.274V342.269z"/>
				<path d="M205.27,346.035c-0.42,0.204-1.235,0.408-2.279,0.408c-2.351,0-4.246-1.523-4.246-4.617c0-2.951,1.835-4.786,4.51-4.786
					c1.091,0,1.727,0.228,2.015,0.372l-0.264,0.839c-0.42-0.204-1.008-0.372-1.727-0.372c-2.075,0-3.49,1.391-3.49,3.91
					c0,2.398,1.295,3.814,3.43,3.814c0.696,0,1.379-0.156,1.835-0.372L205.27,346.035z"/>
				<path d="M206.413,345.699c0-0.456,0.3-0.779,0.72-0.779s0.708,0.324,0.708,0.779c0,0.432-0.276,0.756-0.72,0.756
					C206.665,346.455,206.413,346.095,206.413,345.699z"/>
				<path d="M215.452,345.939c-0.492,0.192-1.451,0.467-2.603,0.467c-3.586,0-4.438-2.674-4.438-4.605
					c0-2.782,1.811-4.713,4.677-4.713c0.875,0,1.655,0.168,2.111,0.384l-0.264,0.828c-0.444-0.204-1.02-0.372-1.871-0.372
					c-2.159,0-3.61,1.391-3.61,3.814c0,2.471,1.379,3.85,3.466,3.85c0.768,0,1.283-0.12,1.547-0.264v-2.926h-1.847v-0.804h2.83
					V345.939z"/>
			</g>
			<g>
				<path d="M99.094,283.388h-0.996l-2.915-4.81c-0.611-1.019-1.199-2.039-1.643-3.046l-0.048,0.012
					c0.084,1.164,0.096,2.231,0.096,3.814v4.03h-0.936v-9.139h1.043l2.95,4.81c0.648,1.091,1.175,2.039,1.595,2.986l0.024-0.012
					c-0.096-1.271-0.12-2.362-0.12-3.802v-3.982h0.948V283.388z"/>
				<path d="M105.778,283.388h-4.821v-9.139h4.617v0.84h-3.622v3.094h3.406v0.828h-3.406v3.538h3.826V283.388z"/>
				<path d="M113.302,283.388h-1.139l-1.199-2.111c-0.456-0.768-0.744-1.259-1.032-1.811h-0.024
					c-0.264,0.552-0.528,1.031-0.983,1.811l-1.115,2.111h-1.14l2.71-4.629l-2.603-4.51h1.14l1.235,2.231
					c0.324,0.576,0.576,1.031,0.828,1.547h0.036c0.264-0.552,0.504-0.972,0.828-1.547l1.259-2.231h1.14l-2.687,4.45L113.302,283.388
					z"/>
				<path d="M120.318,275.101h-2.699v8.288h-0.996v-8.288h-2.687v-0.839h6.381V275.101z"/>
				<path d="M126.283,283.388h-5.313v-0.612l0.875-0.923c2.135-2.159,3.214-3.466,3.214-4.929c0-0.959-0.419-1.847-1.715-1.847
					c-0.72,0-1.367,0.396-1.799,0.744l-0.336-0.696c0.552-0.492,1.367-0.875,2.327-0.875c1.811,0,2.531,1.319,2.531,2.555
					c0,1.691-1.188,3.13-3.046,5.001l-0.708,0.744v0.024h3.97V283.388z"/>
				<path d="M129.345,283.388v-8.047h-0.024l-1.475,0.851l-0.24-0.743l1.859-1.043h0.852v8.983H129.345z"/>
			</g>
			<g>
				<path d="M473.164,262.964c0.444,0.312,1.703,1.332,2.003,1.595l-0.479,0.612c-0.276-0.312-0.983-0.972-1.523-1.452v3.227h-0.791
					v-3.31c-0.576,0.947-1.319,1.835-1.991,2.362c-0.132-0.192-0.372-0.456-0.54-0.587c0.852-0.564,1.787-1.691,2.375-2.794h-2.146
					v-0.708h2.303v-1.271h-2.459v-0.708h1.475c-0.06-0.516-0.264-1.271-0.516-1.847l0.648-0.18c0.275,0.6,0.503,1.379,0.563,1.895
					l-0.444,0.132h2.016c-0.156-0.06-0.324-0.12-0.336-0.12c0.239-0.528,0.527-1.367,0.672-1.943l0.911,0.288
					c-0.024,0.072-0.108,0.108-0.24,0.12c-0.168,0.468-0.455,1.164-0.695,1.655h1.751v0.708h-2.435
					c-0.036,0.012-0.072,0.024-0.12,0.024v1.248h2.375v0.708h-2.375V262.964z M475.467,257.147v0.696h-5.312v-0.696h2.219v-1.343
					l1.019,0.06c-0.012,0.084-0.071,0.144-0.228,0.168v1.115H475.467z M481.056,259.93v0.755h-1.415v6.261h-0.792v-6.261h-1.895
					v0.444c0,1.799-0.228,4.174-1.955,5.841c-0.096-0.18-0.372-0.456-0.563-0.564c1.571-1.511,1.751-3.586,1.751-5.289v-4.173
					l0.588,0.192c1.247-0.36,2.591-0.852,3.346-1.295l0.804,0.612c-0.036,0.036-0.12,0.06-0.252,0.036
					c-0.888,0.444-2.362,0.936-3.718,1.271v2.171H481.056z"/>
				<path d="M482.411,259.186c0.78,0.288,1.728,0.804,2.195,1.199l-0.456,0.684c-0.468-0.408-1.403-0.959-2.171-1.283
					L482.411,259.186z M482.292,266.286c0.587-0.972,1.427-2.639,2.051-4.054l0.636,0.468c-0.564,1.319-1.319,2.866-1.859,3.826
					c0.048,0.06,0.06,0.12,0.06,0.168s-0.012,0.096-0.035,0.132L482.292,266.286z M483.06,255.9
					c0.768,0.336,1.703,0.887,2.158,1.307l-0.468,0.66c-0.455-0.432-1.379-1.02-2.146-1.367L483.06,255.9z M492.594,262.148
					l0.432,0.072c0,0.072-0.023,0.168-0.023,0.252c-0.168,2.782-0.336,3.79-0.672,4.15c-0.252,0.288-0.54,0.324-1.199,0.324
					c-0.288,0-0.66-0.012-1.02-0.024c-0.012-0.216-0.096-0.504-0.204-0.708c0.588,0.06,1.151,0.072,1.355,0.072
					c0.216,0,0.324-0.024,0.42-0.132c0.216-0.228,0.384-1.091,0.516-3.262h-5.217c-0.504,0.624-1.092,1.175-1.667,1.595
					c-0.133-0.144-0.372-0.408-0.54-0.551c0.911-0.624,1.858-1.643,2.471-2.747h-1.283v-4.51l0.516,0.168
					c0.636-0.312,1.367-0.744,1.835-1.067l0.695,0.612c-0.048,0.048-0.072,0.048-0.239,0.048c-0.54,0.312-1.392,0.72-2.063,0.996
					v1.079h1.896v0.672h-1.896v1.307h5.025v-1.307h-2.194v-0.672h2.194v-1.259h-2.207v-0.695h2.975v4.629h-4.162
					c-0.06,0.048-0.132,0.084-0.252,0.072c-0.155,0.3-0.348,0.6-0.539,0.899h4.869L492.594,262.148z M486.873,263.983
					c-0.144,0.996-0.42,2.015-1.127,2.59l-0.552-0.384c0.623-0.503,0.923-1.427,1.055-2.351L486.873,263.983z M487.725,266.262
					c0.012-0.588-0.096-1.487-0.275-2.195l0.587-0.084c0.192,0.696,0.312,1.607,0.312,2.183L487.725,266.262z M489.596,265.734
					c-0.144-0.504-0.504-1.271-0.863-1.835l0.527-0.192c0.372,0.563,0.743,1.307,0.888,1.799L489.596,265.734z M490.471,263.335
					c0.492,0.432,0.996,1.02,1.248,1.427l-0.48,0.336c-0.239-0.419-0.743-1.031-1.199-1.463L490.471,263.335z"/>
				<path d="M494.942,263.335c-0.061,1.104-0.192,2.303-0.672,2.975l-0.468-0.276c0.432-0.636,0.575-1.727,0.623-2.794
					L494.942,263.335z M498.696,261.812l0.384,0.06l-0.013,0.24c-0.168,3.094-0.3,4.162-0.611,4.521
					c-0.228,0.264-0.468,0.324-1.008,0.324c-0.228,0-0.504-0.012-0.779-0.024c-0.024-0.204-0.084-0.492-0.191-0.671
					c0.455,0.036,0.863,0.048,1.031,0.048c0.348,0,0.527-0.048,0.695-1.751l-0.408,0.18c-0.119-0.443-0.432-1.115-0.731-1.607
					l0.408-0.156c0.3,0.468,0.575,1.091,0.72,1.511h0.012c0.048-0.516,0.096-1.163,0.144-1.979h-3.142v0.312h-0.696v-6.512h4.474
					v0.696h-1.822v1.151h1.57v0.659h-1.57v1.164h1.57v0.66h-1.57v1.199h1.367L498.696,261.812z M496.465,257.003h-1.259v1.151h1.259
					V257.003z M496.465,259.978v-1.164h-1.259v1.164H496.465z M495.206,260.637v1.199h1.259v-1.199H495.206z M495.458,265.722
					c0.023-0.611-0.061-1.523-0.181-2.243l0.444-0.06c0.144,0.708,0.228,1.631,0.216,2.231L495.458,265.722z M496.609,263.252
					c0.264,0.611,0.479,1.415,0.539,1.943l-0.455,0.12c-0.049-0.527-0.265-1.343-0.504-1.967L496.609,263.252z M504.645,261.213
					h-1.991c0.372,2.315,1.116,4.222,2.531,5.121c-0.181,0.144-0.432,0.444-0.552,0.66c-1.535-1.104-2.315-3.166-2.699-5.781h-1.223
					c-0.024,1.823-0.229,4.174-1.38,5.745c-0.132-0.132-0.468-0.335-0.647-0.419c1.164-1.583,1.271-3.85,1.271-5.613v-4.617h4.689
					V261.213z M503.901,257.063h-3.19v3.395h3.19V257.063z"/>
				<path d="M505.82,261.741v-0.744h9.391c-0.636-0.48-1.451-1.259-2.015-2.015l0.647-0.396c0.815,1.055,2.003,2.099,3.07,2.782
					c-1.067,0.684-2.255,1.727-3.07,2.783l-0.647-0.396c0.563-0.755,1.379-1.535,2.015-2.015H505.82z"/>
			</g>
			<g>
				<path d="M133.364,326.976c-0.024,0.072-0.12,0.12-0.264,0.12c-0.18,0.504-0.456,1.14-0.732,1.691h4.941v9.019h-0.839v-0.803
					h-7.244v0.863h-0.804v-9.079h3.035c0.288-0.624,0.611-1.487,0.779-2.111L133.364,326.976z M136.47,329.602h-7.244v2.878h7.244
					V329.602z M129.226,336.198h7.244v-2.915h-7.244V336.198z"/>
				<path d="M136.83,341.614l1.067,0.072c-0.012,0.084-0.084,0.144-0.24,0.167v7.82h-0.827v-0.971h-7.952v1.02h-0.816v-8.096
					l1.056,0.072c-0.012,0.084-0.072,0.144-0.24,0.168v6.021h3.49v-8.911l1.08,0.072c-0.012,0.084-0.084,0.144-0.24,0.168v8.671
					h3.622V341.614z"/>
				<path d="M133.208,350.783v9.391c0.479-0.636,1.259-1.451,2.015-2.015l0.396,0.648c-1.056,0.815-2.099,2.003-2.783,3.07
					c-0.684-1.067-1.727-2.255-2.782-3.07l0.396-0.648c0.756,0.564,1.535,1.379,2.015,2.015v-9.391H133.208z"/>
			</g>
			<g>
				<path d="M101.742,80.808c-0.048,0.06-0.12,0.096-0.228,0.096c-0.036,0-0.072,0-0.12-0.012c-0.924,0.936-2.255,2.027-3.418,2.866
					c0.096,0.036,0.24,0.108,0.288,0.132c-0.024,0.072-0.132,0.144-0.264,0.156v6.44h-0.875v-6.165
					c-1.271,0.899-2.926,1.871-4.569,2.674c-0.12-0.192-0.336-0.492-0.504-0.66c3.274-1.511,6.86-4.078,8.792-6.2L101.742,80.808z"
					/>
				<path d="M110.598,82.067c-0.012,0.06-0.072,0.108-0.144,0.132c-0.444,1.487-1.043,2.854-1.763,3.97
					c0.516,0.3,1.104,0.672,1.547,0.996l-0.504,0.792c-0.432-0.336-1.043-0.731-1.547-1.043c-1.103,1.535-2.519,2.771-4.33,3.646
					c-0.132-0.204-0.444-0.492-0.66-0.624c1.751-0.815,3.154-2.027,4.246-3.454c-0.888-0.492-1.763-0.912-2.651-1.247l0.456-0.672
					c0.875,0.312,1.775,0.72,2.698,1.211c0.624-0.983,1.115-2.027,1.451-3.178h-4.066c-0.731,1.223-1.715,2.435-2.77,3.298
					c-0.156-0.144-0.48-0.408-0.684-0.54c1.571-1.199,3.059-3.358,3.778-5.409l1.139,0.264c-0.048,0.132-0.168,0.168-0.324,0.156
					c-0.168,0.396-0.444,0.983-0.672,1.427h3.982l0.168-0.048L110.598,82.067z"/>
				<path d="M113.488,86.673v-5.829l1.14,0.072c-0.012,0.108-0.096,0.192-0.288,0.216v5.541H113.488z M120.168,80.376
					c-0.012,0.12-0.096,0.18-0.288,0.204v3.814c0,2.519-0.863,4.821-4.306,6.153c-0.12-0.18-0.419-0.492-0.624-0.648
					c3.322-1.235,4.066-3.286,4.066-5.505v-4.09L120.168,80.376z"/>
				<path d="M132.299,81.132c-0.024,0.048-0.096,0.084-0.156,0.108c-0.647,1.535-1.679,2.867-2.842,3.838
					c-0.18-0.156-0.516-0.372-0.731-0.492c1.103-0.804,1.991-1.967,2.387-2.974h-8.587v-0.816h9.043l0.132-0.06L132.299,81.132z
					 M127.622,83.315c-0.012,0.096-0.12,0.18-0.276,0.204c-0.348,2.831-1.319,5.529-3.79,6.956c-0.168-0.144-0.48-0.419-0.708-0.552
					c2.447-1.343,3.322-3.85,3.61-6.74L127.622,83.315z"/>
				<path d="M136.563,86.937v1.032h2.423v0.72h-2.423v2.159h-0.755v-2.159h-2.399v-0.72h2.399v-1.032h-1.931v-4.209h1.931v-0.959
					h-2.231v-0.72h2.231v-1.343l0.995,0.06c-0.012,0.084-0.072,0.144-0.228,0.156v1.127h2.183v0.72h-2.183v0.959h2.003v4.209
					H136.563z M134.537,83.363v1.163h1.332v-1.163H134.537z M134.537,85.126v1.187h1.332v-1.187H134.537z M137.883,84.526v-1.163
					h-1.379v1.163H137.883z M137.883,86.313v-1.187h-1.379v1.187H137.883z M144.551,84.778v0.768h-2.411v5.301h-0.804v-5.301h-2.447
					v-0.768h2.447v-3.634h-2.183v-0.756h5.241v0.756h-2.254v3.634H144.551z"/>
			</g>
			<g>
				<path d="M36.389,212.289c0,1.61-0.205,3.015-0.615,4.215c-0.41,1.25-0.92,1.875-1.53,1.875c-0.12,0-0.245-0.101-0.375-0.3
					c-0.19-0.32-0.305-0.5-0.345-0.54c-0.37-0.311-0.865-0.795-1.485-1.455c1.18,0.7,1.885,1.05,2.115,1.05
					c0.52,0,0.9-0.67,1.14-2.01c0.17-0.92,0.255-2,0.255-3.24c0-1.56-0.52-2.34-1.56-2.34c-0.44,0-0.92,0.06-1.44,0.18
					c-0.97,3.23-1.87,5.735-2.7,7.516c-0.24,0.529-0.43,0.795-0.57,0.795c-0.23,0-0.345-0.365-0.345-1.096
					c0-0.12,0.07-0.27,0.21-0.449c0.21-0.261,0.335-0.426,0.375-0.495c0.34-0.61,0.73-1.471,1.17-2.58
					c0.49-1.24,0.89-2.41,1.2-3.511c-0.59,0.181-1.14,0.396-1.65,0.646c-0.5,0.25-0.795,0.375-0.885,0.375
					c-0.18,0-0.425-0.175-0.735-0.525c-0.3-0.35-0.45-0.574-0.45-0.675c0-0.03,0.02-0.075,0.06-0.135
					c0.29,0.31,0.665,0.465,1.125,0.465c0.35,0,0.775-0.069,1.275-0.21c0.46-0.13,0.92-0.265,1.38-0.405
					c0.28-1.06,0.42-1.914,0.42-2.564c0-0.45-0.23-0.755-0.69-0.915c0.04-0.08,0.11-0.12,0.21-0.12c0.37,0,0.729,0.13,1.08,0.39
					c0.32,0.24,0.48,0.455,0.48,0.646c0,0.07-0.045,0.18-0.135,0.33c-0.11,0.189-0.185,0.359-0.225,0.51l-0.465,1.575
					c0.47-0.09,0.935-0.136,1.395-0.136C35.619,209.153,36.389,210.199,36.389,212.289z M40.529,212.963
					c0,0.39-0.07,0.695-0.21,0.915c-0.13,0.23-0.265,0.345-0.405,0.345c-0.12,0-0.225-0.09-0.315-0.27
					c-0.1-0.22-0.195-0.36-0.285-0.42c-0.15-0.101-0.425-0.21-0.825-0.33c-0.34-0.101-0.51-0.165-0.51-0.195
					c0.07,0,0.2-0.01,0.39-0.03c0.18-0.01,0.315-0.015,0.405-0.015c0.31,0,0.515-0.015,0.615-0.045
					c0.189-0.07,0.285-0.226,0.285-0.465c0-0.96-0.44-1.96-1.32-3c-0.49-0.49-0.975-0.976-1.455-1.455
					c0.7,0.189,1.42,0.665,2.16,1.425C40.039,210.454,40.529,211.633,40.529,212.963z"/>
				<path d="M47.882,215.438c0,0.08-0.035,0.16-0.105,0.24c-0.06,0.09-0.13,0.135-0.21,0.135c-0.26,0-0.6-0.274-1.02-0.824
					c-0.9,1.569-1.7,2.354-2.4,2.354c-0.46,0-0.89-0.285-1.29-0.854c-0.4-0.58-0.6-1.186-0.6-1.815c0-1.78,0.745-3.26,2.235-4.44
					c-0.5-1.369-0.99-2.149-1.47-2.34c0.27-0.1,0.465-0.149,0.585-0.149c0.48,0,0.835,0.239,1.065,0.72
					c0.13,0.45,0.265,0.9,0.405,1.35c0.97-0.609,2.05-0.975,3.24-1.095c0.17-0.67,0.255-1.189,0.255-1.56
					c0-0.261-0.06-0.485-0.18-0.676c-0.08-0.13-0.185-0.244-0.315-0.345l-0.195-0.135c0-0.061,0.12-0.09,0.36-0.09
					c0.29,0,0.605,0.145,0.945,0.435c0.35,0.3,0.525,0.535,0.525,0.705c0,0.09-0.06,0.271-0.18,0.54
					c-0.18,0.38-0.325,0.745-0.435,1.095c1.36,0,2.515,0.426,3.465,1.275c1,0.89,1.5,2.045,1.5,3.465
					c0,1.63-0.815,2.896-2.445,3.795c-1.29,0.71-2.765,1.07-4.425,1.08c1.7-0.3,3.065-0.81,4.095-1.53
					c1.3-0.909,1.95-2.095,1.95-3.555c0-1.26-0.455-2.274-1.365-3.045c-0.791-0.68-1.75-1.05-2.88-1.11
					c-0.56,1.881-1.255,3.625-2.085,5.235c0.13,0.17,0.355,0.396,0.675,0.675C47.782,215.153,47.882,215.308,47.882,215.438z
					 M46.142,214.388c-0.38-0.66-0.885-1.91-1.515-3.75c-1.21,1.09-1.815,2.436-1.815,4.035c0,0.521,0.115,0.97,0.345,1.35
					c0.26,0.42,0.585,0.63,0.975,0.63C44.662,216.653,45.332,215.898,46.142,214.388z M45.197,210.173
					c0.52,1.59,0.96,2.75,1.32,3.479c0.73-1.51,1.3-3.034,1.71-4.574C47.126,209.178,46.117,209.543,45.197,210.173z"/>
				<path d="M64.595,211.883c0,1.851-0.405,3.285-1.215,4.305c-0.98,1.24-2.675,2.08-5.085,2.521c2.08-0.79,3.5-1.66,4.26-2.61
					c0.79-1,1.185-2.49,1.185-4.47c0-1.23-0.165-2.24-0.495-3.03c-0.32-0.76-0.73-1.14-1.23-1.14c-0.77,0-1.48,0.915-2.13,2.745
					c-0.55,1.529-0.825,2.765-0.825,3.705c0,0.08,0.01,0.2,0.03,0.359c0.02,0.15,0.03,0.24,0.03,0.271c0,0.51-0.15,0.765-0.45,0.765
					c-0.29,0-0.605-0.29-0.945-0.87c-0.39-0.68-0.585-1.46-0.585-2.34c0-0.939,0.135-2.025,0.405-3.255
					c0.28-1.23,0.42-1.835,0.42-1.815c0-0.249-0.085-0.465-0.255-0.645c-0.16-0.15-0.325-0.3-0.495-0.45
					c0.34,0,0.725,0.146,1.155,0.436c0.47,0.319,0.705,0.645,0.705,0.975c0,0.07-0.065,0.21-0.195,0.42
					c-0.18,0.28-0.315,0.521-0.405,0.72c-0.49,1.12-0.735,2.315-0.735,3.585c0,0.53,0.075,0.99,0.225,1.38
					c0.14,0.391,0.29,0.585,0.45,0.585c0.06,0,0.175-0.354,0.345-1.064c0.39-1.63,0.75-2.835,1.08-3.615
					c0.65-1.53,1.419-2.295,2.31-2.295c0.71,0,1.28,0.385,1.71,1.155C64.35,209.058,64.595,210.284,64.595,211.883z"/>
				<path d="M79.102,214.329c0,1.26-0.58,2.279-1.74,3.06c-1.07,0.72-2.37,1.08-3.9,1.08c1.38-0.36,2.48-0.85,3.3-1.47
					c0.98-0.75,1.47-1.635,1.47-2.655c0-0.8-0.3-1.51-0.9-2.13s-1.34-0.98-2.22-1.08c-0.13,0.51-0.45,1.185-0.96,2.025
					c-0.55,0.899-1.16,1.71-1.83,2.43c0.17,0.39,0.255,0.66,0.255,0.81c0,0.07-0.03,0.15-0.09,0.24
					c-0.05,0.09-0.12,0.135-0.21,0.135c-0.21,0-0.396-0.194-0.555-0.585c-1.16,1.08-2.125,1.62-2.895,1.62
					c-0.31,0-0.585-0.135-0.825-0.405c-0.3-0.319-0.45-0.76-0.45-1.319c0-0.931,0.35-1.815,1.05-2.655
					c0.7-0.83,1.62-1.485,2.76-1.965c0.06-0.59,0.155-1.365,0.285-2.325c-0.68,0.08-1.2,0.12-1.56,0.12c-0.55,0-1.02-0.16-1.41-0.48
					c-0.33-0.27-0.5-0.529-0.51-0.779c0.49,0.46,1.02,0.689,1.59,0.689c0.65,0,1.31-0.034,1.98-0.104
					c0.13-0.87,0.195-1.39,0.195-1.561c0-0.529-0.25-0.88-0.75-1.05c0-0.08,0.085-0.12,0.255-0.12c0.24,0,0.545,0.08,0.915,0.24
					c0.43,0.18,0.645,0.37,0.645,0.57c0,0.06-0.04,0.149-0.12,0.27c-0.09,0.15-0.15,0.261-0.18,0.33
					c-0.13,0.39-0.245,0.811-0.345,1.26c0.8-0.109,1.575-0.26,2.325-0.449c0.15-0.04,0.32-0.11,0.51-0.21
					c0.19-0.101,0.3-0.15,0.33-0.15c0.69,0,1.035,0.13,1.035,0.39c0,0.15-0.18,0.261-0.54,0.33c-1.38,0.271-2.64,0.48-3.78,0.63
					c-0.14,0.711-0.245,1.44-0.315,2.19c0.87-0.3,1.775-0.46,2.715-0.48c0.02-0.13,0.03-0.244,0.03-0.345
					c0-0.13-0.025-0.27-0.075-0.42c-0.06-0.16-0.09-0.234-0.09-0.225c0-0.021,0.015-0.03,0.045-0.03c0.08,0,0.19,0.09,0.33,0.27
					c0.17,0.23,0.26,0.485,0.27,0.766c1.28,0.06,2.285,0.479,3.015,1.26C78.787,212.718,79.102,213.478,79.102,214.329z
					 M71.572,215.693c-0.19-0.789-0.285-1.729-0.285-2.819c0-0.28,0.015-0.61,0.045-0.99c-0.97,0.46-1.74,1.055-2.31,1.785
					c-0.61,0.77-0.915,1.585-0.915,2.445c0,0.31,0.085,0.574,0.255,0.795c0.17,0.21,0.35,0.314,0.54,0.314
					C69.622,217.223,70.512,216.713,71.572,215.693z M74.557,211.119c-0.92,0.02-1.81,0.194-2.67,0.524
					c-0.02,0.381-0.03,0.75-0.03,1.11c0,0.98,0.095,1.765,0.285,2.354C73.372,213.749,74.176,212.418,74.557,211.119z"/>
				<path d="M81.872,211.928h0.345c0,0.17-0.005,0.325-0.015,0.465h10.74c0.07-0.04,0.13-0.104,0.18-0.194
					c0.13-0.101,0.205-0.15,0.225-0.15c0.11,0,0.305,0.11,0.585,0.33c0.28,0.24,0.42,0.4,0.42,0.479c0,0.091-0.14,0.146-0.42,0.165
					c-0.21,0.03-0.345,0.056-0.405,0.075l-1.17,1.351l-0.12-0.12c0.21-0.36,0.445-0.87,0.705-1.53h-10.77
					c-0.03,0.36-0.085,0.635-0.165,0.825c-0.09,0.27-0.235,0.485-0.435,0.645c-0.15,0.12-0.285,0.181-0.405,0.181
					c-0.27-0.03-0.41-0.13-0.42-0.301c0-0.079,0.09-0.199,0.27-0.359c0.26-0.21,0.46-0.445,0.6-0.705
					C81.757,212.864,81.842,212.478,81.872,211.928z M80.927,207.233c0.34,0.08,0.85,0.12,1.53,0.12h10.02
					c0.12-0.13,0.235-0.27,0.345-0.42c0.12-0.149,0.22-0.225,0.3-0.225c0.07,0,0.235,0.12,0.495,0.359
					c0.29,0.251,0.435,0.405,0.435,0.466c0,0.149-0.095,0.225-0.285,0.225h-11.31c-0.63,0-1.06,0.04-1.29,0.12L80.927,207.233z
					 M82.562,213.983c0.35,0.07,0.86,0.105,1.53,0.105h6.33c0.12-0.12,0.225-0.25,0.315-0.39c0.11-0.13,0.2-0.195,0.27-0.195
					c0.07,0,0.225,0.11,0.465,0.33c0.28,0.24,0.42,0.385,0.42,0.435c0,0.16-0.1,0.24-0.3,0.24h-3.57v3.105
					c0,0.38-0.175,0.669-0.525,0.869c-0.27,0.16-0.465,0.24-0.585,0.24c-0.19,0-0.305-0.095-0.345-0.285
					c-0.15-0.22-0.8-0.399-1.95-0.54v-0.225l2.175,0.165c0.39,0,0.585-0.115,0.585-0.345v-2.985h-3.285
					c-0.62,0-1.05,0.035-1.29,0.105L82.562,213.983z M83.747,208.523c0.27,0.091,0.515,0.23,0.735,0.42h6.06
					c0.01,0,0.07-0.069,0.18-0.21c0.14-0.14,0.235-0.21,0.285-0.21c0.07,0,0.225,0.115,0.465,0.346c0.2,0.189,0.3,0.31,0.3,0.359
					c0,0.051-0.105,0.13-0.315,0.24c-0.14,0.09-0.21,0.165-0.21,0.225c0,0.62,0.02,1.211,0.06,1.771c0,0.06-0.065,0.115-0.195,0.165
					c-0.09,0.04-0.145,0.06-0.165,0.06c-0.19,0-0.285-0.074-0.285-0.225v-0.24h-6.18l0.015,0.24c0,0.11-0.09,0.19-0.27,0.24
					c-0.11,0.029-0.195,0.045-0.255,0.045c-0.11,0-0.165-0.095-0.165-0.285l0.045-0.765v-0.825
					C83.852,209.383,83.817,208.933,83.747,208.523z M84.452,210.818h6.21v-1.47h-6.225v1.351L84.452,210.818z M86.027,205.478
					c0.96,0.29,1.584,0.556,1.875,0.795c0.189,0.15,0.285,0.315,0.285,0.495c0,0.351-0.115,0.525-0.345,0.525
					c-0.09,0-0.22-0.11-0.39-0.33c-0.25-0.39-0.765-0.805-1.545-1.245L86.027,205.478z"/>
			</g>
			<g>
			</g>
			<g>
				<path class="st2" d="M168.891,191.886h-4.16v2.041h3.51v8.242h-0.884v-0.767h-8.697v0.832h-0.845v-8.307h3.12v-2.041h-3.848
					v-0.845h11.805V191.886z M167.357,200.583v-5.837h-2.665v2.535c0,0.286,0.052,0.338,0.39,0.338h1.118
					c0.299,0,0.352-0.13,0.39-1.066c0.169,0.13,0.508,0.247,0.755,0.312c-0.104,1.235-0.325,1.534-1.04,1.534h-1.326
					c-0.923,0-1.132-0.234-1.132-1.105v-2.548h-2.054v0.572c0,1.248-0.416,2.847-2.158,3.939c-0.117-0.156-0.442-0.468-0.637-0.572
					c1.638-0.988,1.963-2.327,1.963-3.394v-0.546h-2.301v5.837H167.357z M163.846,193.927v-2.041h-2.054v2.041H163.846z"/>
				<path class="st2" d="M160.752,223.802l0.156,0.767c-1.274,0.521-2.613,1.054-3.471,1.392c0,0.104-0.065,0.182-0.156,0.208
					l-0.442-0.988c0.481-0.156,1.079-0.364,1.742-0.598v-4.368h-1.508v-0.832h1.508v-3.095l1.066,0.065
					c-0.013,0.091-0.078,0.156-0.247,0.182v2.848h1.378v0.832H159.4v4.082L160.752,223.802z M168.527,219.992h-6.331v1.21
					c0,2.105-0.234,4.979-1.885,6.851c-0.13-0.169-0.481-0.429-0.663-0.533c1.573-1.78,1.716-4.342,1.716-6.317v-4.538h7.163
					V219.992z M167.682,217.444h-5.486v1.769h5.486V217.444z M167.773,224.438l1.027,0.078c-0.014,0.078-0.078,0.144-0.247,0.169
					v3.497h-0.78v-0.598h-4.316v0.637h-0.78v-3.783l1.027,0.078c-0.013,0.078-0.078,0.144-0.247,0.169v2.146h1.729v-3.095h-2.249
					v-2.95l0.975,0.064c-0.013,0.091-0.078,0.156-0.247,0.169v1.989h1.521v-2.743l1.026,0.065c-0.013,0.091-0.077,0.155-0.247,0.169
					v2.509h1.6v-2.223l1.001,0.064c-0.013,0.091-0.091,0.156-0.247,0.169v2.717h-2.354v3.095h1.808V224.438z"/>
				<path class="st2" d="M159.751,247.357v4.277c1.001,1.547,2.847,1.547,5.317,1.547c1.417,0,3.081-0.025,4.095-0.091
					c-0.104,0.195-0.233,0.598-0.286,0.858c-0.884,0.025-2.288,0.052-3.588,0.052c-2.847,0-4.628,0-5.915-1.625
					c-0.689,0.598-1.404,1.17-1.989,1.612c0,0.116-0.026,0.169-0.117,0.208l-0.494-0.937c0.637-0.416,1.43-0.988,2.132-1.56v-3.511
					h-1.963v-0.832H159.751z M157.789,242.456c0.845,0.599,1.82,1.495,2.236,2.158l-0.65,0.599c-0.416-0.663-1.365-1.6-2.21-2.224
					L157.789,242.456z M165.094,245.46c-0.818-0.403-1.819-0.846-2.665-1.157l0.572-0.507c0.572,0.208,1.235,0.468,1.872,0.754
					c0.689-0.312,1.417-0.715,1.977-1.118h-5.694v-0.715h6.591l0.144-0.039l0.663,0.429c-0.039,0.052-0.131,0.091-0.208,0.104
					c-0.663,0.571-1.664,1.222-2.665,1.702c0.402,0.183,0.767,0.378,1.065,0.547h1.677v5.915c0,0.857-0.272,0.949-2.21,0.949
					c-0.039-0.234-0.143-0.533-0.247-0.741c0.377,0.013,0.741,0.025,1.002,0.025c0.559,0,0.623,0,0.623-0.233v-1.326h-2.443v2.197
					h-0.793v-2.197H162v2.249h-0.832v-6.838H165.094z M164.354,246.161H162v1.235h2.354V246.161z M162,249.359h2.354v-1.287H162
					V249.359z M167.59,247.396v-1.235h-2.443v1.235H167.59z M165.147,249.359h2.443v-1.287h-2.443V249.359z"/>
			</g>
			<g>
				<path class="st2" d="M227.964,193.42h-4.063v2.938h2.951v5.837h-0.667v-0.65h-5.147v0.702h-0.638v-5.889h2.825v-2.938h-4.015
					v-0.858h4.015v-2.418l0.871,0.078c-0.01,0.091-0.058,0.156-0.193,0.182v2.158h4.063V193.42z M226.185,200.7v-3.51h-5.147v3.51
					H226.185z"/>
				<path class="st2" d="M223.63,216.833v8.919h-3.657v1.001h-0.571v-9.92H223.63z M221.222,217.627h-1.248v3.185h1.248V217.627z
					 M219.974,221.592v3.367h1.248v-3.367H219.974z M223.041,220.812v-3.185h-1.277v3.185H223.041z M221.763,224.959h1.277v-3.367
					h-1.277V224.959z M228.148,217.757v0.845h-1.422v8.425c0,1.195-0.396,1.209-2.312,1.209c-0.039-0.247-0.145-0.638-0.242-0.885
					c0.367,0.014,0.726,0.026,1.025,0.026c0.871,0,0.871,0,0.871-0.351v-8.425h-2.273v-0.845H228.148z"/>
				<path class="st2" d="M221.183,247.357v4.277c0.745,1.547,2.118,1.547,3.957,1.547c1.054,0,2.292-0.025,3.047-0.091
					c-0.078,0.195-0.174,0.598-0.213,0.858c-0.658,0.025-1.703,0.052-2.67,0.052c-2.119,0-3.444,0-4.402-1.625
					c-0.513,0.598-1.045,1.17-1.48,1.612c0,0.116-0.02,0.169-0.087,0.208l-0.368-0.937c0.474-0.416,1.064-0.988,1.587-1.56v-3.511
					h-1.461v-0.832H221.183z M219.722,242.456c0.629,0.599,1.354,1.495,1.664,2.158l-0.484,0.599c-0.31-0.663-1.016-1.6-1.645-2.224
					L219.722,242.456z M225.159,245.46c-0.609-0.403-1.354-0.846-1.983-1.157l0.426-0.507c0.425,0.208,0.919,0.468,1.393,0.754
					c0.513-0.312,1.054-0.715,1.47-1.118h-4.237v-0.715h4.905l0.106-0.039l0.494,0.429c-0.029,0.052-0.097,0.091-0.155,0.104
					c-0.494,0.571-1.238,1.222-1.983,1.702c0.3,0.183,0.571,0.378,0.793,0.547h1.248v5.915c0,0.857-0.203,0.949-1.645,0.949
					c-0.029-0.234-0.106-0.533-0.184-0.741c0.28,0.013,0.551,0.025,0.745,0.025c0.416,0,0.464,0,0.464-0.233v-1.326h-1.818v2.197
					h-0.59v-2.197h-1.751v2.249h-0.619v-6.838H225.159z M224.607,246.161h-1.751v1.235h1.751V246.161z M222.856,249.359h1.751
					v-1.287h-1.751V249.359z M227.016,247.396v-1.235h-1.818v1.235H227.016z M225.198,249.359h1.818v-1.287h-1.818V249.359z"/>
			</g>
			<g>
				<g>
					<path class="st2" d="M394.949,193.862h-3.893c0.917,2.314,2.517,4.459,4.256,5.473c-0.182,0.182-0.416,0.52-0.544,0.767
						c-1.675-1.105-3.189-3.186-4.171-5.539v4.264h2.134v0.884h-2.134v2.522h-0.746v-2.522h-2.165v-0.884h2.165v-4.238
						c-1.014,2.353-2.539,4.394-4.149,5.538c-0.128-0.221-0.352-0.546-0.512-0.715c1.675-1.053,3.274-3.237,4.202-5.551h-3.851
						v-0.884h4.31v-2.808l0.96,0.065c-0.011,0.091-0.064,0.156-0.214,0.182v2.561h4.352V193.862z"/>
					<path class="st2" d="M390.299,216.833v8.918h-4.031v1.001h-0.629v-9.919H390.299z M387.644,217.626h-1.376v3.185h1.376V217.626
						z M386.268,221.591v3.367h1.376v-3.367H386.268z M389.648,220.811v-3.185h-1.407v3.185H389.648z M388.241,224.958h1.407v-3.367
						h-1.407V224.958z M395.28,217.756v0.845h-1.568v8.424c0,1.196-0.437,1.21-2.549,1.21c-0.043-0.247-0.16-0.638-0.267-0.885
						c0.405,0.014,0.8,0.026,1.131,0.026c0.96,0,0.96,0,0.96-0.352v-8.424h-2.507v-0.845H395.28z"/>
					<path class="st2" d="M387.601,247.356v4.277c0.821,1.547,2.336,1.547,4.362,1.547c1.163,0,2.528-0.025,3.36-0.091
						c-0.086,0.195-0.192,0.598-0.235,0.858c-0.725,0.025-1.877,0.052-2.943,0.052c-2.336,0-3.797,0-4.853-1.625
						c-0.565,0.598-1.152,1.17-1.633,1.612c0,0.116-0.021,0.169-0.096,0.208l-0.405-0.937c0.522-0.416,1.174-0.988,1.749-1.56
						v-3.511h-1.61v-0.832H387.601z M385.99,242.455c0.693,0.599,1.493,1.495,1.835,2.158l-0.533,0.599
						c-0.342-0.663-1.12-1.6-1.813-2.224L385.99,242.455z M391.984,245.459c-0.672-0.403-1.493-0.846-2.187-1.157l0.47-0.507
						c0.469,0.208,1.013,0.468,1.535,0.754c0.565-0.312,1.163-0.715,1.622-1.118h-4.672v-0.715h5.407l0.117-0.039l0.544,0.429
						c-0.031,0.052-0.106,0.091-0.17,0.104c-0.544,0.571-1.365,1.222-2.187,1.703c0.33,0.182,0.629,0.377,0.874,0.546h1.376v5.915
						c0,0.857-0.224,0.949-1.813,0.949c-0.031-0.234-0.117-0.533-0.202-0.741c0.31,0.013,0.607,0.025,0.821,0.025
						c0.459,0,0.512,0,0.512-0.233v-1.326h-2.005v2.197h-0.65v-2.197h-1.931v2.249h-0.683v-6.838H391.984z M391.377,246.161h-1.931
						v1.234h1.931V246.161z M389.446,249.358h1.931v-1.287h-1.931V249.358z M394.032,247.396v-1.234h-2.005v1.234H394.032z
						 M392.027,249.358h2.005v-1.287h-2.005V249.358z"/>
				</g>
			</g>
			<g>
				<path class="st2" d="M328.273,198.243h-3.522c1.209,1.274,3.159,2.47,4.875,3.042c-0.208,0.182-0.468,0.521-0.611,0.754
					c-1.755-0.689-3.744-2.028-5.031-3.497v3.692h-0.896v-3.64c-1.274,1.43-3.225,2.73-4.928,3.419
					c-0.143-0.221-0.402-0.559-0.61-0.729c1.677-0.598,3.575-1.768,4.784-3.042h-3.315v-4.797h4.069v-1.183h-5.227v-0.832h5.227
					v-1.261l1.157,0.065c-0.014,0.091-0.078,0.156-0.261,0.182v1.014h5.369v0.832h-5.369v1.183h4.29V198.243z M319.876,194.161
					v1.339h3.211v-1.339H319.876z M319.876,196.176v1.365h3.211v-1.365H319.876z M327.39,194.161h-3.406v1.339h3.406V194.161z
					 M327.39,197.541v-1.365h-3.406v1.365H327.39z"/>
				<path class="st2" d="M321.357,223.802l0.156,0.767c-1.274,0.521-2.613,1.054-3.471,1.392c0,0.104-0.065,0.182-0.156,0.208
					l-0.442-0.988c0.481-0.156,1.079-0.364,1.742-0.598v-4.368h-1.508v-0.832h1.508v-3.095l1.066,0.065
					c-0.014,0.091-0.078,0.156-0.247,0.182v2.848h1.378v0.832h-1.378v4.082L321.357,223.802z M329.132,219.992h-6.331v1.21
					c0,2.105-0.234,4.979-1.885,6.851c-0.13-0.169-0.481-0.429-0.663-0.533c1.573-1.78,1.716-4.342,1.716-6.317v-4.538h7.163
					V219.992z M328.287,217.444h-5.486v1.769h5.486V217.444z M328.378,224.438l1.027,0.078c-0.014,0.078-0.078,0.144-0.247,0.169
					v3.497h-0.78v-0.598h-4.316v0.637h-0.78v-3.783l1.027,0.078c-0.013,0.078-0.078,0.144-0.247,0.169v2.146h1.729v-3.095h-2.249
					v-2.95l0.975,0.064c-0.013,0.091-0.078,0.156-0.247,0.169v1.989h1.521v-2.743l1.026,0.065c-0.013,0.091-0.077,0.155-0.247,0.169
					v2.509h1.6v-2.223l1.001,0.064c-0.013,0.091-0.091,0.156-0.247,0.169v2.717h-2.354v3.095h1.808V224.438z"/>
				<path class="st2" d="M320.356,247.357v4.277c1.001,1.547,2.847,1.547,5.317,1.547c1.417,0,3.081-0.025,4.095-0.091
					c-0.104,0.195-0.233,0.598-0.286,0.858c-0.884,0.025-2.288,0.052-3.588,0.052c-2.847,0-4.628,0-5.915-1.625
					c-0.688,0.598-1.404,1.17-1.989,1.612c0,0.116-0.025,0.169-0.116,0.208l-0.494-0.937c0.637-0.416,1.43-0.988,2.132-1.56v-3.511
					h-1.963v-0.832H320.356z M318.394,242.456c0.845,0.599,1.82,1.495,2.236,2.158l-0.65,0.599c-0.416-0.663-1.365-1.6-2.21-2.224
					L318.394,242.456z M325.699,245.46c-0.818-0.403-1.819-0.846-2.665-1.157l0.572-0.507c0.572,0.208,1.235,0.468,1.872,0.754
					c0.689-0.312,1.417-0.715,1.977-1.118h-5.694v-0.715h6.591l0.144-0.039l0.663,0.429c-0.039,0.052-0.131,0.091-0.208,0.104
					c-0.663,0.571-1.664,1.222-2.665,1.702c0.402,0.183,0.767,0.378,1.065,0.547h1.677v5.915c0,0.857-0.272,0.949-2.21,0.949
					c-0.039-0.234-0.143-0.533-0.247-0.741c0.377,0.013,0.741,0.025,1.002,0.025c0.559,0,0.623,0,0.623-0.233v-1.326h-2.443v2.197
					h-0.793v-2.197h-2.354v2.249h-0.832v-6.838H325.699z M324.959,246.161h-2.354v1.235h2.354V246.161z M322.605,249.359h2.354
					v-1.287h-2.354V249.359z M328.195,247.396v-1.235h-2.443v1.235H328.195z M325.752,249.359h2.443v-1.287h-2.443V249.359z"/>
			</g>
			<g>
				<path class="st2" d="M184.979,303.24c0.416,0.455,1.56,1.911,1.833,2.275l-0.559,0.689c-0.234-0.43-0.806-1.287-1.274-1.938
					v6.11h-0.845v-6.475c-0.494,1.547-1.17,3.081-1.859,3.991c-0.091-0.233-0.312-0.585-0.481-0.78
					c0.897-1.131,1.807-3.263,2.236-5.122h-1.911v-0.818h2.015v-2.86l1.092,0.078c-0.013,0.091-0.078,0.143-0.247,0.169v2.613h1.755
					v0.818h-1.755V303.24z M190.959,309.052h3.185v0.819h-8.099v-0.819h1.404v-6.617l1.092,0.065
					c-0.013,0.091-0.078,0.155-0.247,0.182v6.37h1.807v-9.23h-3.393v-0.818h7.215v0.818h-2.964v3.939h2.86v0.819h-2.86V309.052z"/>
				<path class="st2" d="M210.381,305.373c-0.598,0.441-1.235,0.857-1.872,1.209c-0.117-0.183-0.338-0.481-0.533-0.663
					c2.275-1.209,4.511-3.303,5.538-5.122l1.248,0.064c-0.039,0.104-0.13,0.169-0.26,0.183c1.261,1.846,3.601,3.744,5.616,4.706
					c-0.208,0.208-0.429,0.507-0.572,0.754c-0.585-0.325-1.209-0.702-1.807-1.145v5.031h-0.884v-0.533h-5.616v0.572h-0.858V305.373z
					 M212.851,299.041c-0.039,0.078-0.156,0.117-0.299,0.092c-0.884,1.183-2.223,2.431-3.433,3.224
					c-0.156-0.156-0.455-0.441-0.65-0.585c1.183-0.728,2.535-1.937,3.354-3.146L212.851,299.041z M217.453,305.151
					c-1.378-1.026-2.678-2.262-3.484-3.458c-0.715,1.131-1.911,2.379-3.289,3.458H217.453z M211.239,309.078h5.616v-3.146h-5.616
					V309.078z M215.958,298.587c1.274,0.896,2.847,2.21,3.601,3.119l-0.728,0.547c-0.715-0.91-2.249-2.249-3.549-3.186
					L215.958,298.587z"/>
				<path class="st2" d="M237.33,301.85c-0.026,0.104-0.117,0.156-0.286,0.156c-0.377,1.689-1.157,4.069-2.353,5.538
					c-0.208-0.144-0.585-0.364-0.819-0.468c1.196-1.404,1.938-3.68,2.262-5.461L237.33,301.85z M239.605,298.521l1.196,0.065
					c-0.013,0.104-0.091,0.169-0.273,0.182v10.374c0,0.677-0.182,0.949-0.624,1.105c-0.468,0.143-1.274,0.169-2.496,0.169
					c-0.065-0.26-0.221-0.676-0.377-0.923c0.585,0.013,1.144,0.025,1.56,0.025c0.91,0,1.014,0,1.014-0.363V298.521z
					 M245.325,307.765c-0.325-1.56-1.391-4.03-2.548-5.915l0.832-0.325c1.17,1.859,2.301,4.277,2.639,5.851L245.325,307.765z"/>
				<path class="st2" d="M270.584,299.652l0.572,0.273c-0.013,0.064-0.078,0.104-0.117,0.143c-0.416,1.287-1.079,2.418-1.885,3.394
					c0.832,0.832,1.859,1.56,3.068,2.027c-0.182,0.156-0.429,0.494-0.546,0.716c-0.182-0.078-0.364-0.169-0.546-0.261v4.421h-0.845
					v-0.508h-3.471v0.547h-0.819v-4.343c-0.273,0.156-0.559,0.299-0.832,0.416c-0.117-0.208-0.338-0.533-0.52-0.688l0.364-0.156
					H263.2v2.522l2.119-0.494l0.078,0.74c-1.807,0.469-3.718,0.949-4.927,1.248c-0.013,0.104-0.078,0.17-0.169,0.195l-0.364-0.949
					l0.702-0.155v-4.563l0.988,0.078c-0.013,0.078-0.078,0.143-0.234,0.169v4.147l1.014-0.234v-5.435H260.6v-3.991h4.238v3.55
					c1.014-0.937,1.924-2.51,2.457-4.147l1.027,0.312c-0.039,0.092-0.143,0.131-0.273,0.117c-0.117,0.312-0.247,0.638-0.377,0.949
					h2.756L270.584,299.652z M261.393,299.679v2.443h2.626v-2.443H261.393z M265.15,304.853v0.715
					c1.04-0.494,2.054-1.222,2.925-2.145c-0.546-0.663-0.988-1.365-1.326-2.016c-0.416,0.65-0.871,1.223-1.352,1.678
					c-0.13-0.144-0.377-0.352-0.559-0.494v0.312H263.2v1.95H265.15z M270.649,305.672c-0.767-0.468-1.43-1.027-2.015-1.639
					c-0.611,0.638-1.287,1.184-1.976,1.639H270.649z M266.814,309.078h3.471v-2.64h-3.471V309.078z M267.178,300.667
					c0.338,0.715,0.806,1.469,1.404,2.171c0.585-0.716,1.066-1.509,1.404-2.38h-2.691L267.178,300.667z"/>
			</g>
			<circle class="st8" cx="131.758" cy="198.99" r="14.173"/>
			<circle class="st9" cx="131.758" cy="198.99" r="11.339"/>
			<circle class="st8" cx="131.758" cy="198.99" r="7.087"/>
			<path class="st10" d="M96.124,225.097H25.662c-3.451,0-6.275-2.824-6.275-6.275v-12.963c0-3.451,2.824-6.275,6.275-6.275h70.463
				c3.451,0,6.275,2.824,6.275,6.275v12.963C102.399,222.273,99.575,225.097,96.124,225.097z"/>
			<line class="st10" x1="102.399" y1="212.341" x2="131.758" y2="198.99"/>
		</g>
	</g>
	<g>
	</g>
	<g>
	</g>
	<g>
	</g>
	<g>
	</g>
	<g>
	</g>
	<g>
	</g>
</g>
</svg>
