<?xml version="1.0" encoding="utf-8"?>
<!-- Generator: Adobe Illustrator 25.4.1, SVG Export Plug-In . SVG Version: 6.00 Build 0)  -->
<svg version="1.1" id="レイヤー_1" xmlns="http://www.w3.org/2000/svg" xmlns:xlink="http://www.w3.org/1999/xlink" x="0px"
	 y="0px" width="200px" height="48px" viewBox="0 0 200 48" style="enable-background:new 0 0 200 48;" xml:space="preserve">
<style type="text/css">
	.st0{fill:#231815;}
	.st1{fill-rule:evenodd;clip-rule:evenodd;fill:#9A2024;}
</style>
<g>
	<g>
		<path class="st0" d="M60.557,33.159c0,3.719-0.474,6.963-1.42,9.734c-0.947,2.887-2.125,4.331-3.534,4.331
			c-0.277,0-0.567-0.231-0.866-0.693c-0.439-0.74-0.705-1.155-0.797-1.247c-0.854-0.715-1.998-1.836-3.429-3.361
			c2.724,1.617,4.353,2.426,4.885,2.426c1.2,0,2.079-1.548,2.632-4.643c0.393-2.125,0.589-4.619,0.589-7.484
			c0-3.603-1.201-5.405-3.603-5.405c-1.017,0-2.125,0.139-3.326,0.416c-2.24,7.46-4.319,13.246-6.235,17.357
			c-0.554,1.224-0.993,1.835-1.317,1.835c-0.532,0-0.797-0.843-0.797-2.529c0-0.276,0.162-0.623,0.485-1.039
			c0.485-0.6,0.773-0.981,0.866-1.143c0.785-1.409,1.685-3.395,2.702-5.959c1.132-2.864,2.055-5.565,2.771-8.107
			c-1.363,0.416-2.632,0.913-3.811,1.49c-1.155,0.578-1.836,0.866-2.044,0.866c-0.415,0-0.982-0.404-1.697-1.212
			c-0.693-0.808-1.039-1.328-1.039-1.559c0-0.07,0.046-0.173,0.138-0.312c0.67,0.716,1.537,1.074,2.599,1.074
			c0.808,0,1.789-0.162,2.945-0.485c1.062-0.3,2.124-0.612,3.187-0.936c0.647-2.447,0.97-4.423,0.97-5.923
			c0-1.039-0.531-1.744-1.593-2.114c0.091-0.184,0.254-0.277,0.485-0.277c0.854,0,1.685,0.301,2.494,0.901
			c0.739,0.554,1.109,1.051,1.109,1.49c0,0.162-0.104,0.415-0.312,0.762c-0.255,0.439-0.428,0.831-0.52,1.178L52,26.23
			c1.085-0.208,2.16-0.312,3.222-0.312C58.778,25.918,60.557,28.332,60.557,33.159z M70.119,34.718c0,0.901-0.162,1.606-0.485,2.114
			c-0.301,0.532-0.613,0.797-0.936,0.797c-0.276,0-0.52-0.208-0.727-0.624c-0.231-0.507-0.45-0.831-0.658-0.97
			c-0.347-0.23-0.982-0.485-1.906-0.762c-0.785-0.23-1.178-0.381-1.178-0.45c0.162,0,0.461-0.023,0.9-0.07
			c0.416-0.023,0.728-0.035,0.936-0.035c0.715,0,1.189-0.034,1.42-0.103c0.439-0.162,0.659-0.52,0.659-1.074
			c0-2.217-1.017-4.526-3.049-6.929c-1.132-1.132-2.253-2.252-3.361-3.361c1.616,0.44,3.279,1.537,4.988,3.292
			C68.986,28.921,70.119,31.646,70.119,34.718z"/>
		<path class="st0" d="M90.281,40.434c0,0.185-0.081,0.369-0.242,0.554c-0.138,0.208-0.3,0.312-0.485,0.312
			c-0.601,0-1.385-0.635-2.355-1.906c-2.079,3.627-3.927,5.439-5.544,5.439c-1.062,0-2.055-0.659-2.979-1.975
			c-0.924-1.339-1.386-2.737-1.386-4.191c0-4.111,1.721-7.53,5.162-10.255c-1.155-3.164-2.286-4.965-3.395-5.405
			c0.624-0.23,1.074-0.346,1.351-0.346c1.109,0,1.928,0.554,2.46,1.662c0.3,1.039,0.611,2.079,0.935,3.118
			c2.24-1.409,4.735-2.252,7.483-2.529c0.393-1.547,0.589-2.748,0.589-3.603c0-0.601-0.138-1.12-0.415-1.559
			c-0.185-0.3-0.428-0.566-0.727-0.797l-0.451-0.311c0-0.139,0.277-0.209,0.832-0.209c0.67,0,1.397,0.336,2.183,1.005
			c0.808,0.694,1.212,1.236,1.212,1.629c0,0.208-0.139,0.624-0.416,1.247c-0.415,0.878-0.75,1.721-1.005,2.529
			c3.141,0,5.809,0.982,8.003,2.945c2.309,2.055,3.464,4.723,3.464,8.002c0,3.765-1.882,6.687-5.646,8.765
			c-2.98,1.64-6.387,2.471-10.22,2.494c3.925-0.693,7.078-1.871,9.458-3.534c3.002-2.101,4.503-4.838,4.503-8.211
			c0-2.91-1.052-5.254-3.153-7.032c-1.824-1.57-4.042-2.426-6.652-2.564c-1.293,4.342-2.898,8.373-4.815,12.09
			c0.3,0.394,0.819,0.913,1.559,1.559C90.05,39.776,90.281,40.134,90.281,40.434z M86.262,38.01
			c-0.878-1.524-2.044-4.411-3.499-8.661c-2.795,2.518-4.192,5.624-4.192,9.319c0,1.201,0.266,2.24,0.797,3.118
			c0.601,0.97,1.351,1.455,2.252,1.455C82.844,43.24,84.392,41.497,86.262,38.01z M84.08,28.274c1.2,3.672,2.217,6.352,3.049,8.037
			c1.685-3.487,3.002-7.009,3.949-10.566C88.538,25.977,86.205,26.819,84.08,28.274z"/>
		<path class="st0" d="M129.88,32.223c0,4.273-0.935,7.587-2.806,9.943c-2.263,2.864-6.178,4.804-11.744,5.82
			c4.804-1.824,8.084-3.833,9.84-6.028c1.824-2.309,2.737-5.751,2.737-10.324c0-2.841-0.381-5.174-1.143-6.999
			c-0.74-1.755-1.687-2.633-2.841-2.633c-1.779,0-3.419,2.114-4.92,6.34c-1.271,3.535-1.905,6.387-1.905,8.558
			c0,0.185,0.023,0.462,0.069,0.832c0.046,0.346,0.07,0.554,0.07,0.623c0,1.178-0.347,1.767-1.039,1.767
			c-0.67,0-1.397-0.669-2.182-2.009c-0.901-1.57-1.351-3.372-1.351-5.405c0-2.17,0.312-4.676,0.935-7.517
			c0.647-2.841,0.97-4.238,0.97-4.192c0-0.577-0.196-1.073-0.588-1.49c-0.37-0.346-0.751-0.693-1.144-1.039
			c0.785,0,1.675,0.336,2.668,1.005c1.085,0.74,1.628,1.49,1.628,2.252c0,0.163-0.15,0.486-0.45,0.971
			c-0.415,0.647-0.727,1.201-0.935,1.662c-1.132,2.587-1.697,5.347-1.697,8.28c0,1.225,0.173,2.286,0.519,3.187
			c0.323,0.901,0.67,1.351,1.039,1.351c0.139,0,0.404-0.819,0.797-2.46c0.901-3.764,1.732-6.547,2.494-8.349
			c1.502-3.534,3.28-5.3,5.336-5.3c1.639,0,2.956,0.889,3.949,2.668C129.314,25.699,129.88,28.528,129.88,32.223z"/>
		<path class="st0" d="M165.045,37.871c0,2.911-1.34,5.266-4.019,7.067c-2.472,1.663-5.473,2.495-9.007,2.495
			c3.187-0.832,5.727-1.964,7.622-3.395c2.263-1.732,3.395-3.776,3.395-6.132c0-1.848-0.694-3.488-2.079-4.92
			c-1.386-1.431-3.096-2.263-5.127-2.494c-0.301,1.178-1.039,2.737-2.217,4.677c-1.271,2.079-2.68,3.949-4.227,5.612
			c0.393,0.9,0.589,1.524,0.589,1.87c0,0.163-0.07,0.347-0.208,0.554c-0.117,0.208-0.277,0.312-0.485,0.312
			c-0.486,0-0.913-0.45-1.282-1.351c-2.68,2.494-4.908,3.742-6.687,3.742c-0.716,0-1.351-0.312-1.906-0.936
			c-0.693-0.739-1.039-1.755-1.039-3.049c0-2.147,0.808-4.191,2.426-6.132c1.616-1.916,3.741-3.429,6.375-4.538
			c0.138-1.363,0.358-3.153,0.658-5.37c-1.57,0.185-2.771,0.277-3.603,0.277c-1.27,0-2.355-0.369-3.256-1.109
			c-0.762-0.623-1.155-1.224-1.178-1.802c1.132,1.063,2.356,1.594,3.672,1.594c1.502,0,3.026-0.081,4.573-0.242
			c0.301-2.009,0.451-3.21,0.451-3.603c0-1.224-0.578-2.032-1.733-2.425c0-0.185,0.196-0.277,0.589-0.277
			c0.554,0,1.258,0.185,2.114,0.554c0.992,0.415,1.49,0.854,1.49,1.317c0,0.138-0.093,0.346-0.277,0.623
			c-0.208,0.347-0.347,0.601-0.415,0.762c-0.301,0.901-0.567,1.871-0.797,2.911c1.848-0.254,3.638-0.601,5.37-1.039
			c0.346-0.092,0.739-0.254,1.178-0.485c0.439-0.231,0.693-0.347,0.762-0.347c1.594,0,2.391,0.301,2.391,0.901
			c0,0.346-0.416,0.601-1.247,0.762c-3.188,0.623-6.097,1.108-8.731,1.455c-0.324,1.64-0.567,3.326-0.727,5.058
			c2.009-0.693,4.099-1.062,6.27-1.109c0.046-0.3,0.07-0.566,0.07-0.797c0-0.3-0.058-0.623-0.173-0.97
			c-0.139-0.369-0.209-0.542-0.209-0.52c0-0.046,0.035-0.069,0.104-0.069c0.184,0,0.439,0.208,0.762,0.623
			c0.393,0.532,0.601,1.12,0.624,1.767c2.956,0.139,5.277,1.109,6.963,2.911C164.316,34.153,165.045,35.908,165.045,37.871z
			 M147.653,41.024c-0.439-1.824-0.659-3.996-0.659-6.514c0-0.646,0.035-1.408,0.104-2.286c-2.24,1.063-4.019,2.437-5.335,4.123
			c-1.409,1.779-2.114,3.661-2.114,5.647c0,0.716,0.196,1.328,0.589,1.836c0.393,0.485,0.808,0.727,1.247,0.727
			C143.15,44.557,145.205,43.379,147.653,41.024z M154.547,30.457c-2.126,0.047-4.181,0.45-6.167,1.212
			c-0.046,0.879-0.07,1.733-0.07,2.564c0,2.264,0.22,4.077,0.659,5.439C151.811,36.531,153.67,33.459,154.547,30.457z"/>
		<path class="st0" d="M171.177,32.328h0.796c0,0.393-0.011,0.751-0.034,1.074h24.805c0.162-0.092,0.3-0.242,0.416-0.451
			c0.3-0.23,0.473-0.346,0.52-0.346c0.254,0,0.704,0.254,1.35,0.762c0.647,0.554,0.97,0.924,0.97,1.108
			c0,0.209-0.323,0.336-0.97,0.382c-0.485,0.07-0.797,0.127-0.935,0.173l-2.703,3.118l-0.276-0.277
			c0.485-0.832,1.027-2.009,1.628-3.534h-24.874c-0.07,0.832-0.196,1.467-0.382,1.905c-0.208,0.624-0.542,1.121-1.005,1.491
			c-0.346,0.277-0.658,0.415-0.935,0.415c-0.624-0.07-0.947-0.3-0.97-0.693c0-0.185,0.208-0.462,0.623-0.832
			c0.601-0.485,1.062-1.027,1.386-1.629C170.911,34.487,171.107,33.598,171.177,32.328z M168.994,21.483
			c0.785,0.185,1.963,0.277,3.534,0.277h23.142c0.277-0.3,0.543-0.623,0.797-0.97c0.277-0.347,0.508-0.52,0.694-0.52
			c0.161,0,0.542,0.277,1.143,0.832c0.67,0.577,1.005,0.935,1.005,1.074c0,0.346-0.22,0.52-0.658,0.52h-26.122
			c-1.455,0-2.448,0.092-2.979,0.277L168.994,21.483z M172.77,37.074c0.808,0.162,1.987,0.242,3.534,0.242h14.62
			c0.277-0.277,0.52-0.577,0.727-0.9c0.254-0.3,0.461-0.45,0.624-0.45c0.161,0,0.52,0.254,1.074,0.762
			c0.646,0.554,0.97,0.889,0.97,1.005c0,0.369-0.231,0.554-0.694,0.554h-8.245v7.172c0,0.878-0.404,1.548-1.212,2.009
			c-0.624,0.369-1.074,0.554-1.351,0.554c-0.439,0-0.705-0.22-0.797-0.658c-0.347-0.508-1.848-0.924-4.503-1.247v-0.52l5.023,0.381
			c0.9,0,1.351-0.266,1.351-0.797v-6.894h-7.588c-1.432,0-2.425,0.082-2.979,0.242L172.77,37.074z M175.507,24.464
			c0.623,0.208,1.189,0.531,1.697,0.97h13.996c0.023,0,0.162-0.162,0.415-0.485c0.323-0.323,0.542-0.485,0.659-0.485
			c0.161,0,0.52,0.266,1.074,0.797c0.461,0.439,0.693,0.716,0.693,0.831c0,0.117-0.242,0.301-0.727,0.554
			c-0.324,0.208-0.485,0.382-0.485,0.52c0,1.432,0.046,2.795,0.138,4.088c0,0.139-0.15,0.266-0.45,0.382
			c-0.208,0.092-0.335,0.138-0.382,0.138c-0.439,0-0.658-0.173-0.658-0.52v-0.554h-14.273l0.035,0.554
			c0,0.255-0.208,0.439-0.624,0.554c-0.255,0.07-0.45,0.103-0.588,0.103c-0.255,0-0.382-0.219-0.382-0.658l0.104-1.767v-1.906
			C175.75,26.45,175.668,25.411,175.507,24.464z M177.135,29.764h14.343v-3.395H177.1v3.118L177.135,29.764z M180.773,17.43
			c2.217,0.67,3.66,1.282,4.331,1.836c0.438,0.347,0.658,0.727,0.658,1.144c0,0.808-0.266,1.212-0.797,1.212
			c-0.208,0-0.507-0.254-0.9-0.762c-0.578-0.901-1.767-1.859-3.568-2.876L180.773,17.43z"/>
	</g>
	<g>
		<path class="st0" d="M42.566,1.771c0.349,0.083,0.872,0.123,1.57,0.123h8.654c0.154-0.174,0.297-0.359,0.43-0.554
			c0.144-0.195,0.262-0.293,0.354-0.293c0.102,0,0.319,0.144,0.647,0.431c0.37,0.329,0.554,0.523,0.554,0.585
			c0,0.164-0.117,0.246-0.354,0.246h-5.958l-0.986,3.972h3.926c0.052,0,0.133-0.087,0.246-0.262
			c0.144-0.143,0.226-0.215,0.246-0.215c0.123,0,0.308,0.092,0.554,0.277c0.267,0.236,0.4,0.4,0.4,0.492
			c0,0.062-0.107,0.149-0.323,0.262c-0.102,0.092-0.154,0.205-0.154,0.338v5.42h1.386c0.154-0.184,0.292-0.384,0.415-0.601
			c0.154-0.205,0.277-0.307,0.369-0.307c0.103,0,0.324,0.154,0.663,0.461c0.4,0.35,0.601,0.559,0.601,0.632
			c0,0.154-0.123,0.231-0.369,0.231H43.413c-0.647,0-1.088,0.04-1.324,0.123l-0.246-0.663c0.359,0.083,0.882,0.123,1.57,0.123h1.786
			l1.447-5.897h-1.971c-0.492,0-0.851,0.041-1.078,0.123l-0.246-0.724c0.431,0.123,0.873,0.185,1.324,0.185h2.079L47.74,2.31h-3.603
			c-0.647,0-1.088,0.041-1.324,0.123L42.566,1.771z M45.922,12.595h5.728V6.698h-4.28L45.922,12.595z"/>
		<path class="st0" d="M62.315,0.262l0.908,0.277c0.206,0.082,0.308,0.169,0.308,0.261c0,0.062-0.098,0.108-0.292,0.139
			c-0.195,0.051-0.304,0.087-0.323,0.107c-0.206,0.339-0.483,0.678-0.832,1.017h4.327c0.01,0,0.082-0.072,0.215-0.216
			c0.164-0.174,0.272-0.261,0.323-0.261c0.083,0,0.257,0.133,0.523,0.4c0.216,0.226,0.323,0.375,0.323,0.446
			c0,0.052-0.107,0.129-0.323,0.231c-0.144,0.102-0.215,0.184-0.215,0.246c0,1.272,0.021,2.474,0.061,3.603
			c0,0.071-0.076,0.133-0.23,0.184c-0.114,0.041-0.18,0.062-0.2,0.062c-0.195,0-0.293-0.083-0.293-0.246V6.097h-6.867v1.324h8.191
			l0.262-0.323c0.175-0.267,0.308-0.4,0.4-0.4c0.061,0,0.221,0.123,0.477,0.369c0.318,0.298,0.477,0.477,0.477,0.539
			c0,0.154-0.077,0.231-0.231,0.231h-9.577V9.1h9.085c0.092-0.071,0.169-0.154,0.23-0.246c0.083-0.113,0.17-0.169,0.262-0.169
			c0.052,0,0.215,0.117,0.492,0.354c0.267,0.236,0.4,0.421,0.4,0.554c0,0.052-0.067,0.093-0.2,0.124
			c-0.288,0.082-0.441,0.179-0.461,0.292c-0.072,0.842-0.185,1.662-0.339,2.463c-0.061,0.4-0.23,0.749-0.507,1.047
			c-0.237,0.288-0.596,0.483-1.078,0.585c-0.072,0-0.129-0.072-0.169-0.215c-0.062-0.206-0.257-0.339-0.585-0.4
			c-0.246-0.072-0.554-0.149-0.924-0.231l0.061-0.246c0.873,0.04,1.432,0.061,1.678,0.061c0.257,0,0.446-0.061,0.57-0.184
			c0.205-0.257,0.323-0.648,0.353-1.171c0.133-0.81,0.226-1.539,0.277-2.186h-6.975v2.648h2.942v-0.97
			c0-0.596-0.037-1.017-0.108-1.263l1.047,0.185c0.215,0.031,0.323,0.092,0.323,0.184c0,0.083-0.118,0.145-0.354,0.185
			c-0.195,0.062-0.292,0.139-0.292,0.231v2.279c0,0.164-0.108,0.277-0.323,0.338c-0.072,0.021-0.129,0.031-0.169,0.031
			c-0.114,0-0.17-0.102-0.17-0.308c0-0.154,0.01-0.313,0.031-0.477h-6.775v0.663c0,0.164-0.102,0.272-0.307,0.323
			c-0.083,0.021-0.139,0.031-0.17,0.031c-0.123,0-0.184-0.098-0.184-0.293c0-0.215,0.021-0.436,0.061-0.662v-1.386
			c0-0.605-0.04-1.026-0.123-1.262l1.063,0.184c0.215,0.031,0.323,0.087,0.323,0.17c0,0.092-0.118,0.159-0.354,0.2
			c-0.206,0.061-0.308,0.138-0.308,0.23v1.386h3.188V9.531h-1.478l0.031,0.415c0,0.114-0.103,0.195-0.308,0.246
			c-0.133,0.041-0.231,0.062-0.292,0.062c-0.114,0-0.17-0.102-0.17-0.308l0.047-0.893v-6.02c0-0.544-0.057-1.047-0.17-1.509
			c0.319,0.114,0.611,0.293,0.878,0.539h1.971C62.063,1.489,62.253,0.888,62.315,0.262z M59.728,3.818h6.867V2.494h-6.867V3.818z
			 M59.728,5.682h6.867V4.235h-6.867V5.682z"/>
		<path class="st0" d="M82.472,1.355c-1.078,0.329-2.381,0.59-3.91,0.786v2.694h3.787c0.123-0.144,0.257-0.313,0.4-0.508
			c0.133-0.144,0.221-0.215,0.262-0.215c0.082,0,0.159,0.041,0.231,0.123c0.174,0.175,0.364,0.365,0.57,0.57
			c0.113,0.102,0.169,0.175,0.169,0.215c0,0.154-0.062,0.231-0.185,0.231h-5.235v2.833h4.757c0.133-0.154,0.277-0.339,0.431-0.554
			c0.144-0.154,0.236-0.231,0.277-0.231c0.092,0,0.18,0.046,0.262,0.139c0.174,0.184,0.374,0.39,0.601,0.616
			c0.113,0.102,0.169,0.175,0.169,0.215c0,0.154-0.062,0.231-0.185,0.231h-6.313v4.096c0,0.523-0.185,0.919-0.554,1.186
			c-0.298,0.215-0.513,0.323-0.647,0.323c-0.215,0-0.35-0.118-0.4-0.354c-0.164-0.277-0.893-0.503-2.187-0.678l0.062-0.292
			l2.279,0.169c0.482,0,0.724-0.138,0.724-0.415V8.499h-3.911c-1.262,0-2.084,0.041-2.463,0.123l-0.354-0.724
			c0.811,0.093,1.75,0.154,2.817,0.185h3.911V5.251h-2.833c-1.262,0-2.084,0.041-2.463,0.123L72.187,4.65
			c0.811,0.092,1.75,0.154,2.817,0.185h2.833V2.218c-1.807,0.205-3.649,0.338-5.528,0.399l-0.123-0.246
			c1.817-0.102,3.5-0.277,5.05-0.523c1.18-0.164,2.207-0.374,3.08-0.631c0.656-0.164,1.314-0.421,1.971-0.771l0.801,0.493
			c0.226,0.123,0.338,0.241,0.338,0.353c0,0.052-0.056,0.087-0.169,0.108L82.472,1.355z"/>
		<path class="st0" d="M86.022,1.355c0.349,0.072,0.811,0.108,1.385,0.108h1.802l0.308-0.308c0.082-0.031,0.139-0.046,0.169-0.046
			c0.021,0,0.072,0.025,0.154,0.077c0.185,0.123,0.349,0.246,0.492,0.369c0.093,0.072,0.139,0.144,0.139,0.215
			c0,0.072-0.072,0.133-0.216,0.185l-0.384,0.169l-1.956,3.434h1.709c0.051-0.071,0.123-0.169,0.215-0.292
			c0.071-0.083,0.144-0.124,0.215-0.124c0.093,0,0.262,0.118,0.508,0.354c0.216,0.185,0.323,0.323,0.323,0.416
			c0,0.061-0.082,0.117-0.246,0.169c-0.154,0.041-0.231,0.108-0.231,0.2c-0.503,2.043-1.047,3.536-1.631,4.481
			c0.543,0.605,1.262,1.078,2.155,1.416c0.934,0.4,2.5,0.601,4.696,0.601c1.397,0,2.762-0.062,4.097-0.185v0.185
			c-0.514,0.154-0.811,0.354-0.894,0.601c0,0.154-0.123,0.231-0.369,0.231c-3.1,0-5.148-0.139-6.143-0.416
			c-0.975-0.175-1.858-0.518-2.648-1.031c-0.473-0.288-0.863-0.616-1.17-0.986c-0.606,0.883-1.576,1.796-2.911,2.74l-0.108-0.123
			c1.222-1.129,2.115-2.15,2.679-3.064c-0.071-0.092-0.133-0.179-0.184-0.262c-0.421-0.616-0.811-1.57-1.171-2.864L87.1,7.545
			c0.318,1.099,0.755,2.018,1.308,2.756c0.021-0.04,0.041-0.077,0.062-0.108c0.575-1.098,1.001-2.505,1.278-4.219h-2.064
			l-0.338,0.601c-0.083,0.083-0.185,0.123-0.308,0.123c-0.226,0-0.344-0.061-0.354-0.184l2.648-4.62h-1.925
			c-0.318,0-0.682,0.037-1.093,0.108L86.022,1.355z M97.754,1.463c-0.667,0.298-1.452,0.538-2.355,0.724v3.495h1.74l0.246-0.308
			c0.164-0.236,0.288-0.354,0.369-0.354c0.062,0,0.211,0.114,0.447,0.339c0.297,0.277,0.446,0.442,0.446,0.492
			c0,0.164-0.077,0.246-0.231,0.246h-3.018v4.158h0.77c0.359,0,0.836-0.036,1.432-0.108c0.39-0.04,0.687-0.107,0.893-0.2
			c0.133-0.04,0.205-0.061,0.215-0.061c0.041,0,0.139,0.056,0.293,0.169c0.082,0.113,0.123,0.179,0.123,0.2
			c0,0.113-0.087,0.206-0.262,0.277c-0.452,0.175-1.242,0.261-2.371,0.261H93.89c-0.893,0-1.462-0.102-1.709-0.307
			c-0.215-0.144-0.323-0.406-0.323-0.786V5.851c0-0.513-0.04-0.949-0.123-1.309c0.37,0.093,0.688,0.17,0.955,0.231
			c0.164,0.041,0.246,0.103,0.246,0.185c0,0.061-0.077,0.113-0.23,0.154c-0.164,0.092-0.247,0.159-0.247,0.2V9.7
			c0,0.206,0.037,0.334,0.108,0.385c0.092,0.113,0.354,0.169,0.786,0.169h1.385V2.31c-0.021,0.01-0.036,0.015-0.046,0.015
			c-1.303,0.216-2.628,0.35-3.972,0.4l-0.123-0.231c1.252-0.102,2.412-0.276,3.48-0.523c0.82-0.164,1.529-0.374,2.125-0.631
			c0.451-0.175,0.908-0.431,1.37-0.771l0.801,0.493c0.226,0.123,0.338,0.236,0.338,0.338c0,0.062-0.061,0.102-0.184,0.123
			L97.754,1.463z"/>
		<path class="st0" d="M109.767,7.668c0,1.52-0.467,2.808-1.401,3.865c-0.697,0.78-1.606,1.396-2.725,1.848
			c-0.77,0.308-1.35,0.461-1.74,0.461c1.57-0.687,2.694-1.365,3.372-2.032c1.068-1.047,1.601-2.433,1.601-4.158
			c0-1.057-0.154-1.806-0.461-2.248c-0.308-0.452-0.848-0.678-1.617-0.678c-0.534,0-1.093,0.133-1.678,0.4
			c-0.359,0.164-0.826,0.431-1.401,0.801c-0.513,0.329-0.862,0.523-1.047,0.585c-0.257,0-0.528-0.133-0.816-0.4
			c-0.277-0.257-0.415-0.513-0.415-0.771c0.307,0.226,0.672,0.339,1.093,0.339c0.267,0,0.657-0.129,1.17-0.385
			c0.77-0.38,1.272-0.616,1.509-0.708c0.678-0.257,1.339-0.385,1.986-0.385c0.832,0,1.484,0.369,1.956,1.109
			C109.562,5.959,109.767,6.744,109.767,7.668z M108.473,2.141c0,0.164-0.288,0.246-0.862,0.246c-0.781,0-1.617,0.242-2.51,0.724
			c0.092-0.093,0.308-0.288,0.647-0.585c0.206-0.174,0.308-0.292,0.308-0.354c0-0.03-0.185-0.102-0.554-0.215
			c-0.452-0.154-0.811-0.308-1.078-0.462c-0.411-0.256-0.662-0.554-0.755-0.893c0.771,0.492,1.709,0.74,2.818,0.74
			c0.174,0,0.374,0,0.601,0c0.215,0.01,0.359,0.015,0.43,0.015c0.236,0,0.462,0.102,0.678,0.308
			C108.381,1.848,108.473,2.007,108.473,2.141z"/>
		<path class="st0" d="M123.54,12.365c0,0.236-0.534,0.451-1.601,0.647c-1.068,0.205-2.254,0.307-3.557,0.307
			c-1.477,0-2.648-0.241-3.51-0.724c-0.934-0.523-1.401-1.288-1.401-2.294c0-0.841,0.411-1.637,1.232-2.386
			c0.503-0.462,1.252-0.965,2.248-1.509c-0.391-0.605-0.585-1.616-0.585-3.034V2.248c0-0.482-0.067-0.816-0.2-1.001
			c-0.133-0.184-0.396-0.333-0.785-0.446c0.256-0.133,0.451-0.2,0.585-0.2c0.319,0,0.657,0.114,1.016,0.339
			c0.36,0.226,0.539,0.415,0.539,0.57c0,0.021-0.026,0.087-0.077,0.2c-0.062,0.113-0.092,0.226-0.092,0.338
			c0,0.062-0.01,0.334-0.031,0.817c-0.031,0.482-0.046,0.918-0.046,1.308c0,0.955,0.113,1.586,0.338,1.895
			c0.924-0.38,2.13-0.894,3.618-1.54c0.339-0.164,0.508-0.334,0.508-0.508c0-0.071-0.021-0.153-0.061-0.246l-0.062-0.154
			c0-0.051,0.031-0.076,0.092-0.076c0.133,0,0.375,0.144,0.724,0.43c0.39,0.308,0.585,0.581,0.585,0.817
			c0,0.123-0.092,0.221-0.277,0.292c-0.041,0.021-0.236,0.071-0.585,0.154c-2.011,0.492-3.706,1.072-5.08,1.74
			c-2.002,0.986-3.003,2.048-3.003,3.188c0,0.882,0.436,1.504,1.309,1.863c0.647,0.267,1.606,0.4,2.879,0.4
			c0.903,0,1.714-0.061,2.433-0.185c0.451-0.071,0.909-0.179,1.37-0.323c0.38-0.123,0.617-0.184,0.709-0.184
			c0.205,0,0.384,0.061,0.538,0.184C123.463,12.041,123.54,12.19,123.54,12.365z M123.54,2.556c0,0.257-0.102,0.385-0.308,0.385
			c-0.113,0-0.251-0.114-0.415-0.339c-0.257-0.38-0.396-0.585-0.415-0.616c-0.175-0.185-0.504-0.498-0.986-0.94
			c0.38,0,0.811,0.149,1.293,0.446C123.263,1.822,123.54,2.177,123.54,2.556z M124.741,1.386c0,0.277-0.108,0.415-0.323,0.415
			c-0.092,0-0.236-0.117-0.431-0.354c-0.164-0.205-0.338-0.415-0.523-0.631c-0.185-0.206-0.529-0.477-1.032-0.817
			c0.442,0,0.924,0.139,1.447,0.416C124.453,0.714,124.741,1.038,124.741,1.386z"/>
		<path class="st0" d="M138.33,8.823c-0.062,0.965-0.314,1.858-0.755,2.679c-0.637,1.191-1.535,1.787-2.694,1.787
			c-1.694,0-2.541-0.986-2.541-2.957V8.468c0-0.893-0.344-1.339-1.031-1.339c-0.637,0-1.294,0.329-1.972,0.986
			c-0.574,0.554-1.185,1.981-1.832,4.28c-0.226,0.79-0.457,1.186-0.694,1.186c-0.092,0-0.2-0.118-0.323-0.354
			c-0.113-0.246-0.169-0.544-0.169-0.893c0-0.308,0.087-0.611,0.262-0.909c0.164-0.267,0.323-0.534,0.477-0.801
			c1.488-3.336,2.73-5.938,3.726-7.807c0.226-0.43,0.338-0.779,0.338-1.047c0-0.328-0.246-0.651-0.739-0.97
			c0.482,0,0.944,0.216,1.385,0.647c0.39,0.37,0.585,0.667,0.585,0.894c0,0.102-0.108,0.276-0.323,0.523
			c-0.164,0.184-0.329,0.369-0.493,0.554c-0.575,0.729-1.391,2.193-2.448,4.389c0.913-0.749,1.709-1.124,2.387-1.124
			c1.18,0,1.771,0.698,1.771,2.094c0,0.164,0.005,0.457,0.015,0.878c0,0.431,0,0.729,0,0.893c0,1.315,0.554,1.971,1.663,1.971
			C136.395,12.518,137.53,11.287,138.33,8.823z"/>
	</g>
	<g>
		<path class="st1" d="M17.472,17.198c6.484-0.109,10.761,2.511,13.125,6.543c0.46,0.785,1.424,3.241,1.065,4.679
			c-0.636,2.548-3.904,5.711-6.543,6.201c0.009-1.673,0.329-5.382-0.342-6.277c-2.003-2.67-11.276-2.628-13.201,0.076
			c-0.611,0.859-0.316,4.409-0.304,5.897c-0.013,0-0.025,0-0.038,0c-2.856-1.135-5.537-2.753-6.467-5.782
			c-0.225-0.734,0.068-1.92,0.228-2.511c0.607-2.237,1.695-4.066,3.272-5.326c1.657-1.324,3.499-2.321,5.821-3.005
			c0.786-0.139,1.573-0.279,2.359-0.418C16.787,17.249,17.129,17.224,17.472,17.198z"/>
		<path class="st1" d="M3.32,24.579c0,0,0.161,2.62,0.266,2.967c0.614,2.03,1.649,4.092,3.158,5.25
			c2.251,1.727,5.092,2.753,8.369,3.462c1.815,0.393,4.169,0.026,6.049,0.418c1.998,0.417,3.434,1.38,4.641,2.587
			c1.695,1.695,2.044,3.888,0.799,6.315c-0.279,0.456-0.558,0.913-0.837,1.37c-1.002,0.216-2.004,0.431-3.005,0.647
			c-3.108,0.671-7.587,0.751-10.576-0.076c-5.275-1.46-9.034-4.539-11.07-9.206c-0.933-2.138-1.557-5.468-0.723-8.255
			C1.058,27.826,2.203,26.289,3.32,24.579z"/>
		<path class="st1" d="M32.879,24.807c0.603,0.345,1.042,1.344,1.408,1.94c1.338,2.183,2.652,5.712,1.75,9.282
			c-1.259,4.981-4.746,8.941-9.168,10.766c0.348-1.029,1.003-1.855,1.255-3.119c0.721-3.604-2.915-6.706-5.402-7.38
			c0.38-0.114,0.761-0.228,1.141-0.342c0.913-0.355,1.826-0.71,2.739-1.065C29.96,33.409,33.368,29.833,32.879,24.807z"/>
		<path class="st1" d="M15.456,35.459c-1.233-0.063-2.335-0.54-3.386-0.837c0-1.268,0-2.536,0-3.804
			c0.994,0.624,2.008,1.023,3.386,1.331C15.456,33.252,15.456,34.356,15.456,35.459z"/>
		<path class="st1" d="M24.319,30.818c0,1.382,0,2.765,0,4.147c-1.047,0.175-2.126,0.549-3.272,0.799
			c0.013-1.217,0.025-2.435,0.038-3.652C22.215,32.021,23.713,31.492,24.319,30.818z"/>
		<path class="st1" d="M16.254,32.263c1.292,0.086,2.699,0.033,3.994,0c0,1.167,0,2.333,0,3.5c-1.331-0.063-2.663-0.127-3.994-0.19
			C16.254,34.47,16.254,33.366,16.254,32.263z"/>
	</g>
</g>
<g>
</g>
<g>
</g>
<g>
</g>
<g>
</g>
<g>
</g>
<g>
</g>
<g>
</g>
<g>
</g>
<g>
</g>
<g>
</g>
<g>
</g>
<g>
</g>
<g>
</g>
<g>
</g>
<g>
</g>
</svg>
