<?xml version="1.0" encoding="utf-8"?>
<!-- Generator: Adobe Illustrator 25.4.1, SVG Export Plug-In . SVG Version: 6.00 Build 0)  -->
<svg version="1.1" id="レイヤー_1" xmlns="http://www.w3.org/2000/svg" xmlns:xlink="http://www.w3.org/1999/xlink" x="0px"
	 y="0px" width="157px" height="49px" viewBox="0 0 157 49" style="enable-background:new 0 0 157 49;" xml:space="preserve">
<style type="text/css">
	.st0{fill:#FFFFFF;}
</style>
<g>
	<g>
		<path class="st0" d="M19.728,33.865c0,3.864-0.492,7.235-1.476,10.115c-0.984,3-2.208,4.5-3.672,4.5c-0.288,0-0.589-0.24-0.9-0.72
			c-0.456-0.769-0.732-1.2-0.828-1.296c-0.888-0.743-2.076-1.908-3.563-3.492c2.831,1.681,4.523,2.521,5.076,2.521
			c1.247,0,2.16-1.608,2.735-4.824c0.408-2.208,0.612-4.8,0.612-7.776c0-3.744-1.248-5.616-3.744-5.616
			c-1.057,0-2.208,0.145-3.456,0.433c-2.328,7.752-4.488,13.765-6.479,18.036C3.456,47.017,3,47.652,2.664,47.652
			c-0.553,0-0.828-0.876-0.828-2.628c0-0.287,0.168-0.647,0.504-1.08c0.504-0.623,0.804-1.02,0.9-1.188
			c0.815-1.464,1.751-3.528,2.808-6.192c1.176-2.976,2.136-5.783,2.88-8.424c-1.416,0.433-2.735,0.948-3.96,1.548
			c-1.2,0.601-1.908,0.9-2.124,0.9c-0.432,0-1.021-0.42-1.764-1.26C0.36,28.489,0,27.949,0,27.709c0-0.072,0.048-0.18,0.144-0.324
			c0.696,0.744,1.597,1.116,2.7,1.116c0.84,0,1.859-0.168,3.061-0.504c1.104-0.312,2.207-0.636,3.312-0.973
			c0.672-2.543,1.008-4.596,1.008-6.155c0-1.08-0.552-1.812-1.655-2.196c0.095-0.191,0.264-0.288,0.504-0.288
			c0.888,0,1.751,0.312,2.592,0.937c0.768,0.575,1.152,1.092,1.152,1.548c0,0.168-0.108,0.432-0.324,0.792
			c-0.265,0.456-0.444,0.863-0.54,1.224l-1.116,3.78c1.128-0.216,2.244-0.324,3.348-0.324C17.88,26.341,19.728,28.849,19.728,33.865
			z M29.664,35.484c0,0.937-0.168,1.669-0.504,2.196c-0.312,0.553-0.637,0.828-0.973,0.828c-0.287,0-0.54-0.216-0.756-0.648
			c-0.24-0.527-0.468-0.863-0.684-1.008c-0.36-0.239-1.021-0.504-1.98-0.792c-0.815-0.239-1.224-0.396-1.224-0.468
			c0.168,0,0.479-0.023,0.936-0.072c0.433-0.023,0.757-0.036,0.973-0.036c0.743,0,1.235-0.035,1.476-0.107
			c0.456-0.168,0.685-0.54,0.685-1.116c0-2.304-1.057-4.703-3.168-7.2c-1.177-1.176-2.341-2.34-3.492-3.492
			c1.68,0.457,3.407,1.597,5.184,3.421C28.487,29.461,29.664,32.293,29.664,35.484z"/>
		<path class="st0" d="M48.455,41.425c0,0.192-0.084,0.384-0.252,0.576c-0.144,0.216-0.312,0.324-0.504,0.324
			c-0.624,0-1.439-0.66-2.447-1.98c-2.16,3.769-4.081,5.652-5.761,5.652c-1.104,0-2.136-0.685-3.096-2.053
			c-0.96-1.392-1.44-2.844-1.44-4.355c0-4.271,1.788-7.824,5.364-10.656c-1.2-3.288-2.376-5.159-3.528-5.616
			c0.648-0.239,1.116-0.359,1.404-0.359c1.152,0,2.004,0.576,2.557,1.728c0.312,1.08,0.635,2.16,0.972,3.24
			c2.327-1.464,4.92-2.34,7.775-2.628c0.408-1.607,0.612-2.855,0.612-3.744c0-0.624-0.144-1.164-0.432-1.62
			c-0.192-0.312-0.444-0.588-0.756-0.828l-0.469-0.323c0-0.145,0.288-0.217,0.864-0.217c0.696,0,1.452,0.349,2.269,1.044
			c0.84,0.721,1.26,1.284,1.26,1.692c0,0.216-0.145,0.648-0.433,1.296c-0.432,0.912-0.779,1.788-1.044,2.628
			c3.264,0,6.036,1.021,8.316,3.061c2.399,2.136,3.6,4.908,3.6,8.315c0,3.912-1.956,6.948-5.867,9.108
			c-3.097,1.704-6.637,2.567-10.62,2.592c4.079-0.72,7.355-1.944,9.828-3.672c3.119-2.184,4.68-5.027,4.68-8.532
			c0-3.023-1.093-5.46-3.276-7.308c-1.896-1.632-4.2-2.521-6.912-2.664c-1.344,4.512-3.012,8.7-5.004,12.563
			c0.312,0.409,0.852,0.948,1.62,1.62C48.215,40.741,48.455,41.113,48.455,41.425z M44.279,38.905c-0.912-1.584-2.124-4.584-3.636-9
			c-2.904,2.616-4.356,5.844-4.356,9.684c0,1.248,0.276,2.328,0.828,3.24c0.624,1.008,1.404,1.512,2.34,1.512
			C40.728,44.341,42.336,42.529,44.279,38.905z M42.012,28.789c1.247,3.815,2.304,6.601,3.168,8.352
			c1.751-3.623,3.119-7.283,4.104-10.979C46.644,26.401,44.22,27.276,42.012,28.789z"/>
		<path class="st0" d="M87.443,32.893c0,4.44-0.972,7.884-2.916,10.332c-2.352,2.977-6.42,4.992-12.204,6.048
			c4.992-1.896,8.4-3.983,10.225-6.264c1.896-2.399,2.844-5.976,2.844-10.728c0-2.952-0.396-5.376-1.188-7.272
			c-0.769-1.823-1.753-2.736-2.952-2.736c-1.849,0-3.553,2.196-5.112,6.588c-1.32,3.673-1.979,6.637-1.979,8.893
			c0,0.192,0.023,0.48,0.071,0.864c0.048,0.359,0.072,0.575,0.072,0.647c0,1.225-0.36,1.836-1.08,1.836
			c-0.696,0-1.452-0.695-2.268-2.088c-0.937-1.632-1.404-3.504-1.404-5.616c0-2.255,0.324-4.859,0.972-7.812
			c0.672-2.952,1.008-4.404,1.008-4.356c0-0.6-0.204-1.115-0.611-1.548c-0.385-0.359-0.78-0.72-1.188-1.08
			c0.815,0,1.74,0.349,2.772,1.044c1.128,0.769,1.691,1.548,1.691,2.34c0,0.169-0.156,0.505-0.468,1.009
			c-0.432,0.672-0.756,1.248-0.972,1.728c-1.177,2.688-1.764,5.557-1.764,8.604c0,1.272,0.18,2.376,0.539,3.312
			c0.336,0.937,0.696,1.404,1.08,1.404c0.145,0,0.42-0.852,0.828-2.557c0.937-3.911,1.8-6.804,2.592-8.676
			c1.561-3.672,3.408-5.508,5.545-5.508c1.703,0,3.071,0.924,4.104,2.772C86.855,26.113,87.443,29.053,87.443,32.893z"/>
		<path class="st0" d="M120.385,38.761c0,3.024-1.393,5.472-4.177,7.344c-2.568,1.729-5.688,2.593-9.359,2.593
			c3.312-0.864,5.951-2.041,7.92-3.528c2.352-1.8,3.528-3.924,3.528-6.372c0-1.92-0.721-3.624-2.16-5.112
			c-1.44-1.487-3.217-2.352-5.328-2.592c-0.312,1.224-1.08,2.844-2.304,4.86c-1.32,2.16-2.785,4.104-4.393,5.832
			c0.408,0.936,0.612,1.584,0.612,1.943c0,0.169-0.072,0.36-0.216,0.576c-0.121,0.216-0.288,0.324-0.504,0.324
			c-0.505,0-0.949-0.468-1.332-1.404c-2.785,2.592-5.101,3.889-6.948,3.889c-0.744,0-1.404-0.324-1.98-0.973
			c-0.72-0.768-1.08-1.823-1.08-3.168c0-2.231,0.84-4.355,2.521-6.372c1.68-1.991,3.888-3.563,6.624-4.716
			c0.144-1.416,0.372-3.276,0.684-5.58c-1.632,0.192-2.88,0.288-3.744,0.288c-1.319,0-2.447-0.384-3.384-1.152
			c-0.792-0.647-1.2-1.271-1.224-1.872c1.176,1.104,2.448,1.656,3.815,1.656c1.561,0,3.145-0.084,4.752-0.252
			c0.312-2.088,0.469-3.336,0.469-3.744c0-1.271-0.601-2.111-1.801-2.52c0-0.192,0.204-0.288,0.612-0.288
			c0.576,0,1.308,0.192,2.196,0.576c1.031,0.432,1.548,0.888,1.548,1.368c0,0.144-0.097,0.359-0.288,0.647
			c-0.216,0.36-0.36,0.624-0.432,0.792c-0.312,0.937-0.589,1.944-0.828,3.024c1.92-0.264,3.78-0.624,5.58-1.08
			c0.359-0.096,0.768-0.264,1.224-0.504s0.72-0.36,0.792-0.36c1.656,0,2.484,0.312,2.484,0.937c0,0.359-0.433,0.624-1.296,0.792
			c-3.312,0.647-6.336,1.151-9.072,1.512c-0.337,1.704-0.589,3.456-0.756,5.256c2.088-0.72,4.26-1.104,6.516-1.152
			c0.048-0.312,0.072-0.588,0.072-0.828c0-0.312-0.061-0.647-0.18-1.008c-0.145-0.384-0.217-0.563-0.217-0.54
			c0-0.048,0.036-0.071,0.108-0.071c0.191,0,0.456,0.216,0.792,0.647c0.408,0.553,0.624,1.164,0.648,1.836
			c3.071,0.145,5.483,1.152,7.235,3.024C119.628,34.897,120.385,36.722,120.385,38.761z M102.312,42.037
			c-0.456-1.896-0.685-4.152-0.685-6.769c0-0.671,0.036-1.463,0.108-2.376c-2.328,1.104-4.176,2.532-5.544,4.284
			c-1.464,1.849-2.196,3.805-2.196,5.868c0,0.744,0.204,1.38,0.612,1.908c0.408,0.504,0.84,0.756,1.296,0.756
			C97.633,45.709,99.769,44.484,102.312,42.037z M109.477,31.057c-2.209,0.049-4.345,0.468-6.408,1.26
			c-0.048,0.913-0.072,1.801-0.072,2.664c0,2.353,0.229,4.236,0.685,5.652C106.633,37.369,108.564,34.177,109.477,31.057z"/>
		<path class="st0" d="M126.768,33.001h0.827c0,0.408-0.012,0.78-0.035,1.116h25.775c0.168-0.096,0.312-0.252,0.433-0.469
			c0.312-0.239,0.491-0.359,0.54-0.359c0.264,0,0.731,0.264,1.403,0.792c0.672,0.576,1.008,0.96,1.008,1.151
			c0,0.217-0.336,0.349-1.008,0.396c-0.504,0.072-0.828,0.132-0.972,0.18l-2.809,3.24l-0.287-0.288
			c0.504-0.864,1.067-2.088,1.691-3.672h-25.848c-0.072,0.864-0.204,1.524-0.396,1.979c-0.216,0.648-0.563,1.165-1.044,1.549
			c-0.359,0.288-0.684,0.432-0.972,0.432c-0.648-0.072-0.984-0.312-1.008-0.72c0-0.192,0.216-0.48,0.647-0.864
			c0.624-0.504,1.104-1.067,1.44-1.692C126.491,35.245,126.695,34.321,126.768,33.001z M124.499,21.732
			c0.815,0.192,2.04,0.288,3.672,0.288h24.048c0.288-0.312,0.564-0.647,0.828-1.008c0.288-0.36,0.528-0.54,0.721-0.54
			c0.167,0,0.563,0.288,1.188,0.864c0.696,0.6,1.044,0.972,1.044,1.116c0,0.359-0.229,0.54-0.684,0.54h-27.145
			c-1.512,0-2.544,0.096-3.096,0.288L124.499,21.732z M128.423,37.933c0.84,0.168,2.064,0.252,3.672,0.252h15.192
			c0.288-0.288,0.54-0.6,0.756-0.936c0.264-0.312,0.479-0.468,0.648-0.468c0.167,0,0.54,0.264,1.116,0.792
			c0.671,0.575,1.008,0.924,1.008,1.044c0,0.384-0.24,0.575-0.721,0.575h-8.567v7.452c0,0.912-0.42,1.608-1.26,2.088
			c-0.648,0.384-1.116,0.576-1.404,0.576c-0.456,0-0.732-0.229-0.828-0.684c-0.36-0.528-1.92-0.96-4.68-1.296v-0.54l5.22,0.396
			c0.936,0,1.404-0.276,1.404-0.828v-7.164h-7.885c-1.488,0-2.52,0.085-3.096,0.252L128.423,37.933z M131.268,24.829
			c0.647,0.216,1.235,0.552,1.764,1.008h14.544c0.023,0,0.168-0.168,0.432-0.504c0.336-0.336,0.563-0.504,0.685-0.504
			c0.167,0,0.54,0.276,1.116,0.828c0.479,0.456,0.72,0.744,0.72,0.863c0,0.121-0.252,0.312-0.756,0.576
			c-0.337,0.216-0.504,0.396-0.504,0.54c0,1.488,0.048,2.904,0.144,4.248c0,0.145-0.156,0.276-0.468,0.396
			c-0.216,0.096-0.349,0.144-0.396,0.144c-0.456,0-0.684-0.18-0.684-0.54v-0.576h-14.832l0.036,0.576
			c0,0.265-0.216,0.456-0.648,0.576c-0.265,0.072-0.468,0.107-0.611,0.107c-0.265,0-0.396-0.228-0.396-0.684l0.108-1.836v-1.98
			C131.52,26.894,131.435,25.813,131.268,24.829z M132.959,30.337h14.904v-3.528h-14.94v3.24L132.959,30.337z M136.739,17.521
			c2.304,0.696,3.804,1.332,4.5,1.908c0.455,0.36,0.684,0.756,0.684,1.188c0,0.84-0.276,1.26-0.828,1.26
			c-0.216,0-0.527-0.264-0.936-0.792c-0.601-0.937-1.836-1.932-3.708-2.988L136.739,17.521z"/>
	</g>
	<g>
		<path class="st0" d="M2.487,1.84C2.85,1.926,3.394,1.968,4.119,1.968h8.992c0.16-0.181,0.309-0.373,0.447-0.575
			c0.149-0.203,0.272-0.305,0.368-0.305c0.106,0,0.331,0.149,0.672,0.448c0.385,0.342,0.576,0.544,0.576,0.608
			c0,0.171-0.122,0.256-0.368,0.256H8.615L7.591,6.528h4.08c0.054,0,0.139-0.091,0.256-0.272c0.149-0.148,0.234-0.224,0.256-0.224
			c0.128,0,0.32,0.096,0.576,0.288c0.277,0.245,0.416,0.416,0.416,0.512c0,0.064-0.111,0.155-0.336,0.272
			c-0.106,0.096-0.16,0.213-0.16,0.352v5.632h1.44c0.16-0.191,0.304-0.399,0.432-0.624c0.16-0.213,0.288-0.319,0.384-0.319
			c0.107,0,0.337,0.16,0.688,0.479c0.416,0.363,0.624,0.581,0.624,0.656c0,0.16-0.128,0.24-0.384,0.24H3.367
			c-0.672,0-1.131,0.042-1.376,0.128L1.735,12.96c0.373,0.086,0.917,0.128,1.632,0.128h1.855L6.727,6.96H4.679
			c-0.512,0-0.885,0.043-1.12,0.128L3.303,6.336C3.751,6.464,4.21,6.528,4.679,6.528h2.16L7.863,2.4H4.119
			c-0.672,0-1.131,0.043-1.376,0.128L2.487,1.84z M5.975,13.088h5.952V6.96H7.479L5.975,13.088z"/>
		<path class="st0" d="M23.009,0.272l0.943,0.288c0.214,0.085,0.32,0.176,0.32,0.271c0,0.064-0.102,0.112-0.304,0.145
			c-0.203,0.053-0.315,0.091-0.336,0.111c-0.214,0.353-0.502,0.704-0.864,1.057h4.496c0.011,0,0.085-0.075,0.224-0.225
			c0.171-0.181,0.282-0.271,0.336-0.271c0.086,0,0.267,0.139,0.544,0.416c0.225,0.234,0.336,0.39,0.336,0.464
			c0,0.054-0.111,0.134-0.336,0.24c-0.149,0.106-0.224,0.191-0.224,0.256c0,1.322,0.021,2.57,0.063,3.744
			c0,0.074-0.079,0.139-0.239,0.191c-0.118,0.043-0.188,0.064-0.208,0.064c-0.203,0-0.305-0.086-0.305-0.256V6.336H20.32v1.376
			h8.512l0.272-0.336c0.182-0.277,0.32-0.416,0.416-0.416c0.063,0,0.229,0.128,0.496,0.384c0.33,0.31,0.496,0.496,0.496,0.561
			c0,0.16-0.08,0.24-0.24,0.24H20.32v1.312h9.44C29.856,9.382,29.937,9.296,30,9.2c0.086-0.117,0.177-0.176,0.272-0.176
			c0.054,0,0.224,0.122,0.512,0.368C31.062,9.638,31.2,9.83,31.2,9.968c0,0.054-0.069,0.097-0.208,0.129
			c-0.299,0.085-0.458,0.187-0.479,0.304c-0.075,0.875-0.192,1.728-0.353,2.56c-0.063,0.416-0.239,0.778-0.527,1.088
			c-0.246,0.299-0.619,0.502-1.12,0.608c-0.075,0-0.134-0.075-0.176-0.224c-0.064-0.214-0.268-0.353-0.608-0.416
			c-0.256-0.075-0.576-0.155-0.96-0.24l0.063-0.256c0.907,0.042,1.488,0.063,1.744,0.063c0.267,0,0.464-0.063,0.593-0.191
			c0.213-0.267,0.336-0.673,0.367-1.217c0.139-0.842,0.234-1.6,0.288-2.271h-7.248v2.752h3.057v-1.008
			c0-0.619-0.038-1.057-0.112-1.312l1.088,0.192c0.224,0.032,0.336,0.096,0.336,0.191c0,0.086-0.123,0.15-0.368,0.192
			c-0.202,0.064-0.304,0.145-0.304,0.24v2.368c0,0.17-0.112,0.288-0.336,0.352c-0.075,0.021-0.134,0.032-0.176,0.032
			c-0.118,0-0.177-0.106-0.177-0.32c0-0.16,0.011-0.325,0.032-0.496h-7.04v0.688c0,0.17-0.106,0.282-0.319,0.336
			c-0.086,0.021-0.145,0.032-0.177,0.032c-0.128,0-0.191-0.102-0.191-0.305c0-0.224,0.021-0.453,0.063-0.688v-1.44
			c0-0.629-0.042-1.066-0.128-1.312l1.104,0.191c0.224,0.032,0.336,0.091,0.336,0.177c0,0.096-0.123,0.165-0.368,0.208
			c-0.214,0.063-0.32,0.144-0.32,0.239v1.44h3.312V9.904h-1.536l0.032,0.432c0,0.118-0.107,0.203-0.32,0.256
			c-0.139,0.043-0.24,0.064-0.304,0.064c-0.118,0-0.177-0.106-0.177-0.32l0.049-0.928V3.152c0-0.565-0.06-1.088-0.177-1.568
			c0.331,0.118,0.635,0.305,0.912,0.561h2.048C22.747,1.547,22.944,0.923,23.009,0.272z M20.32,3.968h7.136V2.592H20.32V3.968z
			 M20.32,5.904h7.136V4.4H20.32V5.904z"/>
		<path class="st0" d="M43.955,1.408c-1.12,0.342-2.475,0.613-4.063,0.816v2.8h3.936c0.128-0.149,0.267-0.325,0.416-0.528
			c0.139-0.149,0.229-0.224,0.272-0.224c0.085,0,0.165,0.043,0.24,0.128c0.181,0.182,0.378,0.379,0.592,0.592
			c0.117,0.106,0.176,0.182,0.176,0.224c0,0.16-0.064,0.24-0.192,0.24h-5.439V8.4h4.943c0.139-0.16,0.288-0.353,0.448-0.576
			c0.149-0.16,0.245-0.24,0.288-0.24c0.096,0,0.187,0.048,0.272,0.145c0.181,0.191,0.389,0.405,0.624,0.64
			c0.117,0.106,0.176,0.182,0.176,0.224c0,0.16-0.064,0.24-0.192,0.24h-6.56v4.256c0,0.544-0.192,0.955-0.576,1.232
			c-0.31,0.224-0.533,0.336-0.672,0.336c-0.224,0-0.363-0.123-0.416-0.368C38.057,14,37.3,13.766,35.955,13.584l0.064-0.304
			l2.368,0.176c0.501,0,0.752-0.144,0.752-0.432V8.832h-4.064c-1.312,0-2.165,0.043-2.56,0.128l-0.368-0.752
			c0.843,0.097,1.818,0.16,2.928,0.192h4.064V5.456h-2.944c-1.312,0-2.165,0.043-2.56,0.128l-0.368-0.752
			c0.843,0.096,1.818,0.16,2.928,0.192h2.944v-2.72c-1.878,0.213-3.792,0.352-5.744,0.415l-0.128-0.256
			c1.888-0.106,3.637-0.288,5.248-0.544c1.227-0.17,2.293-0.389,3.2-0.655c0.682-0.171,1.365-0.438,2.048-0.801l0.832,0.513
			c0.234,0.128,0.352,0.25,0.352,0.367c0,0.054-0.059,0.091-0.176,0.112L43.955,1.408z"/>
		<path class="st0" d="M47.644,1.408c0.362,0.075,0.843,0.112,1.439,0.112h1.872l0.32-0.32c0.085-0.032,0.145-0.048,0.176-0.048
			c0.021,0,0.075,0.026,0.16,0.08c0.192,0.128,0.362,0.256,0.512,0.384c0.097,0.075,0.145,0.149,0.145,0.224
			c0,0.075-0.075,0.139-0.225,0.192l-0.399,0.176l-2.032,3.568h1.776c0.053-0.074,0.128-0.176,0.224-0.304
			c0.074-0.086,0.149-0.129,0.224-0.129c0.097,0,0.272,0.123,0.528,0.368c0.225,0.192,0.336,0.336,0.336,0.433
			c0,0.063-0.085,0.122-0.256,0.176c-0.16,0.043-0.24,0.112-0.24,0.208c-0.522,2.123-1.088,3.675-1.695,4.656
			c0.564,0.629,1.312,1.12,2.239,1.472c0.971,0.416,2.598,0.624,4.88,0.624c1.451,0,2.87-0.064,4.257-0.192v0.192
			c-0.534,0.16-0.843,0.368-0.929,0.624c0,0.16-0.128,0.24-0.384,0.24c-3.222,0-5.35-0.145-6.384-0.433
			c-1.014-0.182-1.931-0.538-2.752-1.071c-0.491-0.299-0.896-0.641-1.216-1.024c-0.63,0.918-1.638,1.866-3.024,2.848l-0.112-0.128
			c1.27-1.173,2.197-2.234,2.784-3.184c-0.074-0.096-0.139-0.187-0.191-0.272c-0.438-0.64-0.843-1.632-1.217-2.976l0.305-0.064
			c0.33,1.142,0.784,2.097,1.359,2.864c0.021-0.042,0.043-0.08,0.064-0.112c0.598-1.141,1.04-2.603,1.328-4.384h-2.145L49.02,6.832
			c-0.086,0.086-0.192,0.128-0.32,0.128c-0.234,0-0.357-0.063-0.368-0.191l2.752-4.801h-2c-0.33,0-0.709,0.038-1.136,0.112
			L47.644,1.408z M59.835,1.521c-0.693,0.31-1.509,0.56-2.447,0.752v3.632h1.808l0.256-0.32c0.171-0.245,0.299-0.368,0.384-0.368
			c0.064,0,0.219,0.118,0.465,0.353c0.309,0.288,0.464,0.459,0.464,0.512c0,0.171-0.08,0.256-0.24,0.256h-3.136v4.32h0.8
			c0.373,0,0.869-0.037,1.488-0.112c0.405-0.042,0.714-0.111,0.928-0.208c0.139-0.042,0.213-0.063,0.224-0.063
			c0.043,0,0.145,0.059,0.305,0.176c0.085,0.117,0.128,0.187,0.128,0.208c0,0.117-0.091,0.214-0.272,0.288
			c-0.47,0.182-1.291,0.271-2.464,0.271h-2.704c-0.928,0-1.52-0.106-1.776-0.319c-0.224-0.149-0.336-0.422-0.336-0.816v-4
			c0-0.533-0.042-0.986-0.128-1.36c0.385,0.097,0.715,0.177,0.992,0.24c0.171,0.043,0.256,0.107,0.256,0.192
			c0,0.063-0.08,0.117-0.239,0.16c-0.171,0.096-0.257,0.165-0.257,0.208v4.56c0,0.214,0.038,0.347,0.112,0.4
			c0.096,0.117,0.368,0.176,0.816,0.176h1.439V2.4c-0.021,0.011-0.037,0.016-0.048,0.016c-1.354,0.225-2.73,0.363-4.128,0.416
			l-0.128-0.24c1.301-0.106,2.507-0.287,3.616-0.544c0.853-0.17,1.589-0.389,2.208-0.655c0.469-0.182,0.943-0.448,1.424-0.801
			l0.832,0.513c0.234,0.128,0.352,0.245,0.352,0.352c0,0.064-0.063,0.106-0.191,0.128L59.835,1.521z"/>
		<path class="st0" d="M72.317,7.968c0,1.579-0.485,2.918-1.456,4.017c-0.725,0.811-1.669,1.45-2.832,1.92
			c-0.8,0.32-1.402,0.479-1.808,0.479c1.632-0.714,2.8-1.418,3.504-2.111c1.109-1.088,1.664-2.528,1.664-4.32
			c0-1.099-0.16-1.877-0.479-2.336c-0.32-0.47-0.881-0.704-1.681-0.704c-0.555,0-1.136,0.139-1.744,0.416
			c-0.373,0.171-0.858,0.448-1.456,0.832c-0.533,0.342-0.896,0.544-1.088,0.608c-0.267,0-0.549-0.139-0.848-0.416
			c-0.288-0.267-0.432-0.533-0.432-0.801c0.319,0.235,0.698,0.353,1.136,0.353c0.277,0,0.683-0.134,1.216-0.4
			c0.8-0.395,1.322-0.64,1.568-0.735c0.704-0.267,1.392-0.4,2.063-0.4c0.864,0,1.542,0.384,2.032,1.152
			C72.104,6.192,72.317,7.008,72.317,7.968z M70.974,2.225c0,0.17-0.299,0.256-0.896,0.256c-0.812,0-1.681,0.251-2.608,0.752
			c0.096-0.097,0.32-0.299,0.672-0.608c0.214-0.181,0.32-0.304,0.32-0.368c0-0.031-0.192-0.106-0.576-0.224
			c-0.47-0.16-0.843-0.32-1.12-0.48c-0.427-0.266-0.688-0.575-0.784-0.928c0.801,0.512,1.776,0.769,2.929,0.769
			c0.181,0,0.389,0,0.624,0c0.224,0.011,0.373,0.016,0.447,0.016c0.245,0,0.48,0.106,0.704,0.32
			C70.878,1.92,70.974,2.086,70.974,2.225z"/>
		<path class="st0" d="M86.63,12.849c0,0.245-0.555,0.469-1.664,0.672c-1.109,0.213-2.342,0.319-3.696,0.319
			c-1.535,0-2.752-0.25-3.647-0.752c-0.971-0.544-1.456-1.338-1.456-2.384c0-0.874,0.427-1.701,1.28-2.479
			c0.522-0.48,1.301-1.003,2.336-1.568c-0.406-0.629-0.608-1.68-0.608-3.152V2.336c0-0.501-0.069-0.848-0.208-1.04
			c-0.139-0.191-0.411-0.346-0.815-0.464c0.266-0.139,0.469-0.208,0.607-0.208c0.331,0,0.683,0.118,1.056,0.353
			c0.374,0.234,0.561,0.432,0.561,0.592c0,0.021-0.027,0.091-0.08,0.208c-0.064,0.117-0.096,0.234-0.096,0.352
			c0,0.064-0.011,0.347-0.032,0.849c-0.032,0.501-0.048,0.954-0.048,1.359c0,0.992,0.117,1.648,0.352,1.969
			c0.96-0.395,2.214-0.929,3.76-1.601c0.353-0.17,0.528-0.347,0.528-0.528c0-0.074-0.021-0.159-0.063-0.256L84.63,3.76
			c0-0.053,0.032-0.079,0.096-0.079c0.139,0,0.39,0.149,0.752,0.447c0.405,0.32,0.608,0.604,0.608,0.849
			c0,0.128-0.096,0.229-0.288,0.304c-0.043,0.021-0.245,0.074-0.608,0.16c-2.09,0.512-3.851,1.114-5.279,1.808
			c-2.08,1.024-3.12,2.128-3.12,3.312c0,0.917,0.453,1.562,1.36,1.936c0.672,0.277,1.669,0.416,2.991,0.416
			c0.938,0,1.781-0.063,2.528-0.192c0.469-0.074,0.944-0.186,1.424-0.336c0.395-0.128,0.641-0.191,0.736-0.191
			c0.213,0,0.399,0.063,0.56,0.191C86.55,12.513,86.63,12.667,86.63,12.849z M86.63,2.656c0,0.267-0.106,0.4-0.32,0.4
			c-0.117,0-0.261-0.118-0.432-0.353c-0.267-0.395-0.411-0.607-0.432-0.64c-0.182-0.192-0.523-0.518-1.024-0.977
			c0.395,0,0.843,0.155,1.344,0.464C86.342,1.894,86.63,2.262,86.63,2.656z M87.878,1.44c0,0.288-0.112,0.432-0.336,0.432
			c-0.096,0-0.245-0.122-0.448-0.368c-0.171-0.213-0.352-0.432-0.544-0.655C86.357,0.635,86,0.353,85.478,0
			c0.459,0,0.96,0.145,1.504,0.433C87.579,0.742,87.878,1.078,87.878,1.44z"/>
		<path class="st0" d="M101.999,9.168c-0.064,1.003-0.326,1.931-0.784,2.784c-0.662,1.237-1.595,1.856-2.8,1.856
			c-1.761,0-2.641-1.024-2.641-3.072V8.8c0-0.928-0.357-1.392-1.071-1.392c-0.662,0-1.345,0.342-2.049,1.024
			c-0.597,0.575-1.231,2.059-1.903,4.447c-0.235,0.821-0.475,1.232-0.721,1.232c-0.096,0-0.208-0.123-0.336-0.368
			c-0.117-0.256-0.176-0.565-0.176-0.928c0-0.32,0.091-0.635,0.272-0.944c0.17-0.277,0.336-0.555,0.496-0.832
			c1.546-3.467,2.837-6.17,3.872-8.112c0.234-0.447,0.352-0.81,0.352-1.088c0-0.341-0.256-0.677-0.768-1.008
			c0.501,0,0.98,0.225,1.439,0.672c0.405,0.385,0.608,0.693,0.608,0.929c0,0.106-0.112,0.287-0.336,0.544
			c-0.171,0.191-0.342,0.384-0.513,0.575c-0.598,0.758-1.445,2.278-2.544,4.561c0.949-0.778,1.776-1.168,2.48-1.168
			c1.227,0,1.84,0.726,1.84,2.176c0,0.171,0.005,0.475,0.016,0.912c0,0.448,0,0.758,0,0.928c0,1.366,0.576,2.048,1.729,2.048
			C99.988,13.008,101.167,11.729,101.999,9.168z"/>
	</g>
</g>
<g>
</g>
<g>
</g>
<g>
</g>
<g>
</g>
<g>
</g>
<g>
</g>
<g>
</g>
<g>
</g>
<g>
</g>
<g>
</g>
<g>
</g>
<g>
</g>
<g>
</g>
<g>
</g>
<g>
</g>
</svg>
