<?xml version="1.0" encoding="utf-8"?>
<!-- Generator: Adobe Illustrator 25.4.1, SVG Export Plug-In . SVG Version: 6.00 Build 0)  -->
<svg version="1.1" id="レイヤー_1" xmlns="http://www.w3.org/2000/svg" xmlns:xlink="http://www.w3.org/1999/xlink" x="0px"
	 y="0px" viewBox="0 0 49 216" style="enable-background:new 0 0 49 216;" xml:space="preserve">
<style type="text/css">
	.st0{fill:#231815;}
	.st1{fill-rule:evenodd;clip-rule:evenodd;fill:#9A2024;}
</style>
<g>
	<path class="st0" d="M21.753,56.31c0,3.864-0.492,7.236-1.476,10.116c-0.984,3-2.208,4.5-3.672,4.5c-0.288,0-0.589-0.24-0.9-0.72
		c-0.456-0.769-0.732-1.201-0.828-1.296c-0.888-0.743-2.076-1.908-3.563-3.492c2.831,1.68,4.523,2.52,5.076,2.52
		c1.247,0,2.16-1.608,2.735-4.824c0.408-2.208,0.612-4.8,0.612-7.776c0-3.744-1.248-5.616-3.744-5.616
		c-1.057,0-2.208,0.144-3.456,0.432c-2.328,7.752-4.488,13.765-6.479,18.036c-0.576,1.272-1.032,1.908-1.368,1.908
		c-0.553,0-0.828-0.876-0.828-2.628c0-0.288,0.168-0.648,0.504-1.08c0.504-0.624,0.804-1.02,0.9-1.188
		c0.815-1.463,1.751-3.528,2.808-6.192c1.176-2.976,2.136-5.784,2.88-8.424c-1.416,0.432-2.735,0.948-3.96,1.548
		c-1.2,0.6-1.908,0.9-2.124,0.9c-0.432,0-1.021-0.419-1.764-1.26c-0.72-0.84-1.08-1.38-1.08-1.62c0-0.072,0.048-0.18,0.144-0.324
		c0.696,0.744,1.597,1.116,2.7,1.116c0.84,0,1.859-0.167,3.061-0.504c1.104-0.312,2.207-0.636,3.312-0.972
		c0.672-2.543,1.008-4.596,1.008-6.156c0-1.08-0.552-1.812-1.655-2.196c0.095-0.191,0.264-0.288,0.504-0.288
		c0.888,0,1.751,0.312,2.592,0.936c0.768,0.576,1.152,1.092,1.152,1.548c0,0.168-0.108,0.432-0.324,0.792
		c-0.265,0.456-0.444,0.864-0.54,1.224l-1.116,3.78c1.128-0.216,2.244-0.324,3.348-0.324C19.905,48.786,21.753,51.294,21.753,56.31z
		 M31.689,57.93c0,0.936-0.168,1.668-0.504,2.196c-0.312,0.552-0.637,0.828-0.973,0.828c-0.287,0-0.54-0.216-0.756-0.648
		c-0.24-0.527-0.468-0.864-0.684-1.008c-0.36-0.24-1.021-0.504-1.98-0.792c-0.815-0.24-1.224-0.396-1.224-0.468
		c0.168,0,0.479-0.024,0.936-0.072c0.433-0.023,0.757-0.036,0.973-0.036c0.743,0,1.235-0.036,1.476-0.108
		c0.456-0.167,0.685-0.54,0.685-1.116c0-2.304-1.057-4.704-3.168-7.2c-1.177-1.176-2.341-2.34-3.492-3.492
		c1.68,0.457,3.407,1.597,5.184,3.42C30.513,51.906,31.689,54.738,31.689,57.93z"/>
	<path class="st0" d="M15.669,99.87c0,0.192-0.084,0.384-0.252,0.576c-0.144,0.216-0.312,0.324-0.504,0.324
		c-0.624,0-1.439-0.66-2.447-1.98c-2.16,3.768-4.081,5.652-5.761,5.652c-1.104,0-2.136-0.684-3.096-2.052
		c-0.96-1.392-1.44-2.844-1.44-4.356c0-4.271,1.788-7.824,5.364-10.656c-1.2-3.288-2.376-5.16-3.528-5.616
		c0.648-0.239,1.116-0.36,1.404-0.36c1.152,0,2.004,0.576,2.557,1.728c0.312,1.08,0.635,2.16,0.972,3.24
		c2.327-1.464,4.92-2.34,7.775-2.628c0.408-1.607,0.612-2.855,0.612-3.744c0-0.624-0.144-1.164-0.432-1.62
		c-0.192-0.312-0.444-0.588-0.756-0.828l-0.469-0.324c0-0.144,0.288-0.216,0.864-0.216c0.696,0,1.452,0.348,2.269,1.044
		c0.84,0.72,1.26,1.284,1.26,1.692c0,0.216-0.145,0.648-0.433,1.296c-0.432,0.912-0.779,1.788-1.044,2.628
		c3.264,0,6.036,1.021,8.316,3.06c2.399,2.136,3.6,4.908,3.6,8.316c0,3.912-1.956,6.948-5.867,9.108
		c-3.097,1.704-6.637,2.568-10.62,2.592c4.079-0.72,7.355-1.944,9.828-3.672c3.119-2.184,4.68-5.027,4.68-8.532
		c0-3.024-1.093-5.46-3.276-7.308c-1.896-1.632-4.2-2.52-6.912-2.664c-1.344,4.512-3.012,8.7-5.004,12.564
		c0.312,0.409,0.852,0.948,1.62,1.62C15.429,99.186,15.669,99.558,15.669,99.87z M11.493,97.35c-0.912-1.584-2.124-4.584-3.636-9
		c-2.904,2.616-4.356,5.844-4.356,9.684c0,1.249,0.276,2.329,0.828,3.24c0.624,1.008,1.404,1.512,2.34,1.512
		C7.941,102.786,9.55,100.974,11.493,97.35z M9.226,87.234c1.247,3.816,2.304,6.601,3.168,8.352
		c1.751-3.624,3.119-7.284,4.104-10.98C13.857,84.846,11.434,85.722,9.226,87.234z"/>
	<path class="st0" d="M25.209,127.337c0,4.44-0.972,7.884-2.916,10.332c-2.352,2.976-6.42,4.992-12.204,6.048
		c4.992-1.896,8.4-3.983,10.225-6.264c1.896-2.4,2.844-5.976,2.844-10.728c0-2.952-0.396-5.376-1.188-7.272
		c-0.769-1.824-1.753-2.736-2.952-2.736c-1.849,0-3.553,2.196-5.112,6.588c-1.32,3.672-1.979,6.637-1.979,8.892
		c0,0.192,0.023,0.48,0.071,0.864c0.048,0.36,0.072,0.576,0.072,0.648c0,1.224-0.36,1.836-1.08,1.836
		c-0.696,0-1.452-0.696-2.268-2.088c-0.937-1.632-1.404-3.504-1.404-5.616c0-2.255,0.324-4.86,0.972-7.812
		c0.672-2.952,1.008-4.404,1.008-4.356c0-0.6-0.204-1.116-0.611-1.548c-0.385-0.36-0.78-0.72-1.188-1.08
		c0.815,0,1.74,0.348,2.772,1.044c1.128,0.769,1.691,1.548,1.691,2.34c0,0.168-0.156,0.504-0.468,1.008
		c-0.432,0.672-0.756,1.248-0.972,1.728c-1.177,2.688-1.764,5.556-1.764,8.604c0,1.272,0.18,2.376,0.539,3.312
		c0.336,0.936,0.696,1.404,1.08,1.404c0.145,0,0.42-0.852,0.828-2.556c0.937-3.912,1.8-6.804,2.592-8.676
		c1.561-3.672,3.408-5.508,5.545-5.508c1.703,0,3.071,0.924,4.104,2.772C24.621,120.558,25.209,123.498,25.209,127.337z"/>
	<path class="st0" d="M30.43,169.206c0,3.024-1.393,5.472-4.177,7.344c-2.568,1.728-5.688,2.592-9.359,2.592
		c3.312-0.864,5.951-2.041,7.92-3.528c2.352-1.8,3.528-3.924,3.528-6.372c0-1.919-0.721-3.624-2.16-5.112
		c-1.44-1.488-3.217-2.352-5.328-2.592c-0.312,1.224-1.08,2.844-2.304,4.86c-1.32,2.16-2.785,4.104-4.393,5.832
		c0.408,0.936,0.612,1.584,0.612,1.944c0,0.168-0.072,0.36-0.216,0.576c-0.121,0.216-0.288,0.324-0.504,0.324
		c-0.505,0-0.949-0.468-1.332-1.404c-2.785,2.592-5.101,3.888-6.948,3.888c-0.744,0-1.404-0.324-1.98-0.972
		c-0.72-0.768-1.08-1.824-1.08-3.168c0-2.232,0.84-4.356,2.521-6.372c1.68-1.992,3.888-3.564,6.624-4.716
		c0.144-1.416,0.372-3.276,0.684-5.58c-1.632,0.192-2.88,0.288-3.744,0.288c-1.319,0-2.447-0.384-3.384-1.152
		c-0.792-0.648-1.2-1.271-1.224-1.872c1.176,1.104,2.448,1.656,3.815,1.656c1.561,0,3.145-0.084,4.752-0.252
		c0.312-2.088,0.469-3.336,0.469-3.744c0-1.272-0.601-2.111-1.801-2.52c0-0.192,0.204-0.288,0.612-0.288
		c0.576,0,1.308,0.192,2.196,0.576c1.031,0.432,1.548,0.888,1.548,1.368c0,0.144-0.097,0.36-0.288,0.648
		c-0.216,0.36-0.36,0.624-0.432,0.792c-0.312,0.936-0.589,1.944-0.828,3.024c1.92-0.264,3.78-0.624,5.58-1.08
		c0.359-0.096,0.768-0.264,1.224-0.504c0.456-0.24,0.72-0.36,0.792-0.36c1.656,0,2.484,0.312,2.484,0.936
		c0,0.36-0.433,0.624-1.296,0.792c-3.312,0.648-6.336,1.152-9.072,1.512c-0.337,1.705-0.589,3.456-0.756,5.256
		c2.088-0.72,4.26-1.104,6.516-1.152c0.048-0.312,0.072-0.588,0.072-0.828c0-0.312-0.061-0.648-0.18-1.008
		c-0.145-0.384-0.217-0.563-0.217-0.54c0-0.048,0.036-0.072,0.108-0.072c0.191,0,0.456,0.216,0.792,0.648
		c0.408,0.552,0.624,1.164,0.648,1.836c3.071,0.144,5.483,1.152,7.235,3.024C29.673,165.342,30.43,167.166,30.43,169.206z
		 M12.357,172.481c-0.456-1.896-0.685-4.152-0.685-6.768c0-0.671,0.036-1.463,0.108-2.376c-2.328,1.104-4.176,2.532-5.544,4.284
		c-1.464,1.848-2.196,3.804-2.196,5.868c0,0.744,0.204,1.38,0.612,1.908c0.408,0.504,0.84,0.756,1.296,0.756
		C7.678,176.153,9.813,174.929,12.357,172.481z M19.521,161.501c-2.209,0.048-4.345,0.468-6.408,1.26
		c-0.048,0.913-0.072,1.8-0.072,2.664c0,2.353,0.229,4.236,0.685,5.652C16.678,167.814,18.609,164.622,19.521,161.501z"/>
	<path class="st0" d="M2.926,199.445h0.827c0,0.409-0.012,0.78-0.035,1.116h25.775c0.168-0.096,0.312-0.252,0.433-0.468
		c0.312-0.239,0.491-0.36,0.54-0.36c0.264,0,0.731,0.264,1.403,0.792c0.672,0.576,1.008,0.96,1.008,1.152
		c0,0.216-0.336,0.348-1.008,0.396c-0.504,0.072-0.828,0.132-0.972,0.18l-2.809,3.24l-0.287-0.288
		c0.504-0.864,1.067-2.088,1.691-3.672H3.646c-0.072,0.864-0.204,1.524-0.396,1.98c-0.216,0.648-0.563,1.165-1.044,1.548
		c-0.359,0.288-0.684,0.432-0.972,0.432c-0.648-0.072-0.984-0.312-1.008-0.72c0-0.192,0.216-0.48,0.647-0.864
		c0.624-0.504,1.104-1.067,1.44-1.692C2.649,201.69,2.854,200.766,2.926,199.445z M0.657,188.177
		c0.815,0.192,2.04,0.288,3.672,0.288h24.048c0.288-0.312,0.564-0.648,0.828-1.008c0.288-0.36,0.528-0.54,0.721-0.54
		c0.167,0,0.563,0.288,1.188,0.864c0.696,0.6,1.044,0.972,1.044,1.116c0,0.36-0.229,0.54-0.684,0.54H4.329
		c-1.512,0-2.544,0.096-3.096,0.288L0.657,188.177z M4.581,204.377c0.84,0.168,2.064,0.252,3.672,0.252h15.192
		c0.288-0.288,0.54-0.6,0.756-0.936c0.264-0.312,0.479-0.468,0.648-0.468c0.167,0,0.54,0.264,1.116,0.792
		c0.671,0.576,1.008,0.924,1.008,1.044c0,0.384-0.24,0.576-0.721,0.576h-8.567v7.452c0,0.912-0.42,1.608-1.26,2.088
		c-0.648,0.384-1.116,0.576-1.404,0.576c-0.456,0-0.732-0.229-0.828-0.684c-0.36-0.528-1.92-0.96-4.68-1.296v-0.54l5.22,0.396
		c0.936,0,1.404-0.276,1.404-0.828v-7.164H8.253c-1.488,0-2.52,0.084-3.096,0.252L4.581,204.377z M7.426,191.273
		c0.647,0.216,1.235,0.552,1.764,1.008h14.544c0.023,0,0.168-0.167,0.432-0.504c0.336-0.336,0.563-0.504,0.685-0.504
		c0.167,0,0.54,0.276,1.116,0.828c0.479,0.456,0.72,0.744,0.72,0.864c0,0.121-0.252,0.312-0.756,0.576
		c-0.337,0.216-0.504,0.396-0.504,0.54c0,1.488,0.048,2.904,0.144,4.248c0,0.144-0.156,0.276-0.468,0.396
		c-0.216,0.096-0.349,0.144-0.396,0.144c-0.456,0-0.684-0.18-0.684-0.54v-0.576H9.189l0.036,0.576c0,0.264-0.216,0.456-0.648,0.576
		c-0.265,0.072-0.468,0.108-0.611,0.108c-0.265,0-0.396-0.228-0.396-0.684l0.108-1.836v-1.98
		C7.678,193.338,7.593,192.258,7.426,191.273z M9.117,196.781h14.904v-3.528H9.081v3.24L9.117,196.781z M12.897,183.965
		c2.304,0.696,3.804,1.332,4.5,1.908c0.455,0.36,0.684,0.756,0.684,1.188c0,0.84-0.276,1.26-0.828,1.26
		c-0.216,0-0.527-0.264-0.936-0.792c-0.601-0.936-1.836-1.932-3.708-2.988L12.897,183.965z"/>
</g>
<g>
	<path class="st0" d="M35.185,42.31c0.362,0.085,0.906,0.128,1.632,0.128h8.992c0.16-0.181,0.309-0.373,0.447-0.576
		c0.149-0.203,0.272-0.304,0.368-0.304c0.106,0,0.331,0.149,0.672,0.448c0.385,0.341,0.576,0.544,0.576,0.608
		c0,0.171-0.122,0.256-0.368,0.256h-6.191l-1.024,4.128h4.08c0.054,0,0.139-0.09,0.256-0.272c0.149-0.149,0.234-0.224,0.256-0.224
		c0.128,0,0.32,0.096,0.576,0.288c0.277,0.246,0.416,0.416,0.416,0.512c0,0.064-0.111,0.155-0.336,0.272
		c-0.106,0.096-0.16,0.213-0.16,0.352v5.632h1.44c0.16-0.192,0.304-0.4,0.432-0.624c0.16-0.213,0.288-0.32,0.384-0.32
		c0.107,0,0.337,0.16,0.688,0.48c0.416,0.363,0.624,0.581,0.624,0.656c0,0.16-0.128,0.24-0.384,0.24H36.065
		c-0.672,0-1.131,0.042-1.376,0.128l-0.256-0.688c0.373,0.085,0.917,0.128,1.632,0.128h1.855l1.504-6.128h-2.048
		c-0.512,0-0.885,0.043-1.12,0.128L36,46.806c0.448,0.128,0.907,0.192,1.376,0.192h2.16l1.024-4.128h-3.744
		c-0.672,0-1.131,0.043-1.376,0.128L35.185,42.31z M38.672,53.558h5.952V47.43h-4.447L38.672,53.558z"/>
	<path class="st0" d="M40.433,56.742l0.943,0.288c0.214,0.085,0.32,0.176,0.32,0.272c0,0.064-0.102,0.112-0.304,0.144
		c-0.203,0.053-0.315,0.091-0.336,0.112c-0.214,0.352-0.502,0.704-0.864,1.056h4.496c0.011,0,0.085-0.075,0.224-0.224
		c0.171-0.181,0.282-0.272,0.336-0.272c0.086,0,0.267,0.139,0.544,0.416c0.225,0.235,0.336,0.39,0.336,0.464
		c0,0.054-0.111,0.134-0.336,0.24c-0.149,0.106-0.224,0.192-0.224,0.256c0,1.323,0.021,2.571,0.063,3.744
		c0,0.075-0.079,0.139-0.239,0.192c-0.118,0.043-0.188,0.064-0.208,0.064c-0.203,0-0.305-0.085-0.305-0.256v-0.432h-7.136v1.376
		h8.512l0.272-0.336c0.182-0.277,0.32-0.416,0.416-0.416c0.063,0,0.229,0.128,0.496,0.384c0.33,0.31,0.496,0.496,0.496,0.56
		c0,0.16-0.08,0.24-0.24,0.24h-9.952v1.312h9.44c0.096-0.075,0.176-0.16,0.239-0.256c0.086-0.118,0.177-0.176,0.272-0.176
		c0.054,0,0.224,0.123,0.512,0.368c0.277,0.246,0.416,0.438,0.416,0.576c0,0.054-0.069,0.096-0.208,0.128
		c-0.299,0.085-0.458,0.187-0.479,0.304c-0.075,0.875-0.192,1.728-0.353,2.56c-0.063,0.416-0.239,0.778-0.527,1.088
		c-0.246,0.299-0.619,0.501-1.12,0.608c-0.075,0-0.134-0.075-0.176-0.224c-0.064-0.214-0.268-0.352-0.608-0.416
		c-0.256-0.075-0.576-0.155-0.96-0.24l0.063-0.256c0.907,0.042,1.488,0.064,1.744,0.064c0.267,0,0.464-0.064,0.593-0.192
		c0.213-0.267,0.336-0.672,0.367-1.216c0.139-0.842,0.234-1.6,0.288-2.272H40v2.752h3.057v-1.008c0-0.619-0.038-1.056-0.112-1.312
		l1.088,0.192c0.224,0.032,0.336,0.096,0.336,0.192c0,0.086-0.123,0.15-0.368,0.192c-0.202,0.064-0.304,0.144-0.304,0.24v2.368
		c0,0.17-0.112,0.288-0.336,0.352c-0.075,0.021-0.134,0.032-0.176,0.032c-0.118,0-0.177-0.106-0.177-0.32
		c0-0.16,0.011-0.326,0.032-0.496H36v0.688c0,0.17-0.106,0.283-0.319,0.336c-0.086,0.021-0.145,0.032-0.177,0.032
		c-0.128,0-0.191-0.102-0.191-0.304c0-0.224,0.021-0.454,0.063-0.688v-1.44c0-0.629-0.042-1.066-0.128-1.312l1.104,0.192
		c0.224,0.032,0.336,0.091,0.336,0.176c0,0.096-0.123,0.166-0.368,0.208C36.107,67.51,36,67.59,36,67.686v1.44h3.312v-2.752h-1.536
		l0.032,0.432c0,0.118-0.107,0.203-0.32,0.256c-0.139,0.043-0.24,0.064-0.304,0.064c-0.118,0-0.177-0.106-0.177-0.32l0.049-0.928
		v-6.256c0-0.565-0.06-1.088-0.177-1.568c0.331,0.118,0.635,0.304,0.912,0.56h2.048C40.171,58.017,40.369,57.393,40.433,56.742z
		 M37.745,60.438h7.136v-1.376h-7.136V60.438z M37.745,62.374h7.136V60.87h-7.136V62.374z"/>
	<path class="st0" d="M46.128,73.878c-1.12,0.341-2.475,0.613-4.063,0.816v2.8H46c0.128-0.149,0.267-0.325,0.416-0.528
		c0.139-0.149,0.229-0.224,0.272-0.224c0.085,0,0.165,0.043,0.24,0.128c0.181,0.182,0.378,0.379,0.592,0.592
		c0.117,0.106,0.176,0.181,0.176,0.224c0,0.16-0.064,0.24-0.192,0.24h-5.439v2.944h4.943c0.139-0.16,0.288-0.352,0.448-0.576
		c0.149-0.16,0.245-0.24,0.288-0.24c0.096,0,0.187,0.048,0.272,0.144c0.181,0.192,0.389,0.405,0.624,0.64
		c0.117,0.106,0.176,0.181,0.176,0.224c0,0.16-0.064,0.24-0.192,0.24h-6.56v4.256c0,0.544-0.192,0.955-0.576,1.232
		c-0.31,0.224-0.533,0.336-0.672,0.336c-0.224,0-0.363-0.123-0.416-0.368c-0.171-0.288-0.928-0.523-2.272-0.704l0.064-0.304
		l2.368,0.176c0.501,0,0.752-0.144,0.752-0.432v-4.192h-4.064c-1.312,0-2.165,0.042-2.56,0.128l-0.368-0.752
		c0.843,0.096,1.818,0.16,2.928,0.192h4.064v-2.944h-2.944c-1.312,0-2.165,0.042-2.56,0.128l-0.368-0.752
		c0.843,0.096,1.818,0.16,2.928,0.192h2.944v-2.72c-1.878,0.213-3.792,0.352-5.744,0.416l-0.128-0.256
		c1.888-0.106,3.637-0.288,5.248-0.544c1.227-0.17,2.293-0.389,3.2-0.656c0.682-0.171,1.365-0.438,2.048-0.8l0.832,0.512
		c0.234,0.128,0.352,0.25,0.352,0.368c0,0.054-0.059,0.091-0.176,0.112L46.128,73.878z"/>
	<path class="st0" d="M34.817,89.878c0.362,0.075,0.843,0.112,1.439,0.112h1.872l0.32-0.32c0.085-0.032,0.145-0.048,0.176-0.048
		c0.021,0,0.075,0.027,0.16,0.08c0.192,0.128,0.362,0.256,0.512,0.384c0.097,0.075,0.145,0.149,0.145,0.224
		c0,0.075-0.075,0.139-0.225,0.192l-0.399,0.176l-2.032,3.568h1.776c0.053-0.074,0.128-0.176,0.224-0.304
		c0.074-0.085,0.149-0.128,0.224-0.128c0.097,0,0.272,0.123,0.528,0.368c0.225,0.192,0.336,0.336,0.336,0.432
		c0,0.064-0.085,0.123-0.256,0.176c-0.16,0.043-0.24,0.112-0.24,0.208c-0.522,2.123-1.088,3.675-1.695,4.656
		c0.564,0.629,1.312,1.12,2.239,1.472c0.971,0.416,2.598,0.624,4.88,0.624c1.451,0,2.87-0.064,4.257-0.192v0.192
		c-0.534,0.16-0.843,0.368-0.929,0.624c0,0.16-0.128,0.24-0.384,0.24c-3.222,0-5.35-0.144-6.384-0.432
		c-1.014-0.182-1.931-0.539-2.752-1.072c-0.491-0.299-0.896-0.64-1.216-1.024c-0.63,0.917-1.638,1.866-3.024,2.848l-0.112-0.128
		c1.27-1.173,2.197-2.234,2.784-3.184c-0.074-0.096-0.139-0.187-0.191-0.272c-0.438-0.64-0.843-1.632-1.217-2.976l0.305-0.064
		c0.33,1.142,0.784,2.096,1.359,2.864c0.021-0.042,0.043-0.08,0.064-0.112c0.598-1.141,1.04-2.603,1.328-4.384h-2.145l-0.352,0.624
		c-0.086,0.085-0.192,0.128-0.32,0.128c-0.234,0-0.357-0.064-0.368-0.192l2.752-4.8h-2c-0.33,0-0.709,0.038-1.136,0.112
		L34.817,89.878z M47.008,89.99c-0.693,0.31-1.509,0.56-2.447,0.752v3.632h1.808l0.256-0.32c0.171-0.245,0.299-0.368,0.384-0.368
		c0.064,0,0.219,0.118,0.465,0.352c0.309,0.288,0.464,0.459,0.464,0.512c0,0.17-0.08,0.256-0.24,0.256h-3.136v4.32h0.8
		c0.373,0,0.869-0.037,1.488-0.112c0.405-0.042,0.714-0.112,0.928-0.208c0.139-0.042,0.213-0.064,0.224-0.064
		c0.043,0,0.145,0.059,0.305,0.176c0.085,0.118,0.128,0.187,0.128,0.208c0,0.118-0.091,0.214-0.272,0.288
		c-0.47,0.182-1.291,0.272-2.464,0.272h-2.704c-0.928,0-1.52-0.106-1.776-0.32c-0.224-0.149-0.336-0.421-0.336-0.816v-4
		c0-0.533-0.042-0.987-0.128-1.36c0.385,0.096,0.715,0.176,0.992,0.24C41.916,93.473,42,93.537,42,93.622
		c0,0.064-0.08,0.118-0.239,0.16c-0.171,0.096-0.257,0.166-0.257,0.208v4.56c0,0.213,0.038,0.347,0.112,0.4
		c0.096,0.118,0.368,0.176,0.816,0.176h1.439V90.87c-0.021,0.011-0.037,0.016-0.048,0.016c-1.354,0.224-2.73,0.363-4.128,0.416
		l-0.128-0.24c1.301-0.106,2.507-0.288,3.616-0.544c0.853-0.17,1.589-0.389,2.208-0.656c0.469-0.181,0.943-0.448,1.424-0.8
		l0.832,0.512C47.883,89.702,48,89.819,48,89.926c0,0.064-0.063,0.106-0.191,0.128L47.008,89.99z"/>
	<path class="st0" d="M45.504,112.438c0,1.579-0.485,2.917-1.456,4.016c-0.725,0.811-1.669,1.451-2.832,1.92
		c-0.8,0.32-1.402,0.48-1.808,0.48c1.632-0.714,2.8-1.418,3.504-2.112c1.109-1.088,1.664-2.528,1.664-4.32
		c0-1.099-0.16-1.877-0.479-2.336c-0.32-0.47-0.881-0.704-1.681-0.704c-0.555,0-1.136,0.139-1.744,0.416
		c-0.373,0.17-0.858,0.448-1.456,0.832c-0.533,0.341-0.896,0.544-1.088,0.608c-0.267,0-0.549-0.139-0.848-0.416
		c-0.288-0.267-0.432-0.533-0.432-0.8c0.319,0.235,0.698,0.352,1.136,0.352c0.277,0,0.683-0.133,1.216-0.4
		c0.8-0.395,1.322-0.64,1.568-0.736c0.704-0.267,1.392-0.4,2.063-0.4c0.864,0,1.542,0.384,2.032,1.152
		C45.292,110.662,45.504,111.478,45.504,112.438z M44.161,106.694c0,0.17-0.299,0.256-0.896,0.256c-0.812,0-1.681,0.251-2.608,0.752
		c0.096-0.096,0.32-0.298,0.672-0.608c0.214-0.181,0.32-0.304,0.32-0.368c0-0.032-0.192-0.106-0.576-0.224
		c-0.47-0.16-0.843-0.32-1.12-0.48c-0.427-0.266-0.688-0.576-0.784-0.928c0.801,0.512,1.776,0.768,2.929,0.768
		c0.181,0,0.389,0,0.624,0c0.224,0.011,0.373,0.016,0.447,0.016c0.245,0,0.48,0.106,0.704,0.32
		C44.065,106.39,44.161,106.555,44.161,106.694z"/>
	<path class="st0" d="M47.073,133.318c0,0.245-0.555,0.469-1.664,0.672c-1.109,0.213-2.342,0.32-3.696,0.32
		c-1.535,0-2.752-0.25-3.647-0.752c-0.971-0.544-1.456-1.338-1.456-2.384c0-0.875,0.427-1.701,1.28-2.48
		c0.522-0.48,1.301-1.002,2.336-1.568c-0.406-0.629-0.608-1.68-0.608-3.152v-1.168c0-0.501-0.069-0.848-0.208-1.04
		s-0.411-0.346-0.815-0.464c0.266-0.139,0.469-0.208,0.607-0.208c0.331,0,0.683,0.118,1.056,0.352
		c0.374,0.235,0.561,0.432,0.561,0.592c0,0.021-0.027,0.091-0.08,0.208c-0.064,0.118-0.096,0.235-0.096,0.352
		c0,0.064-0.011,0.347-0.032,0.848c-0.032,0.501-0.048,0.955-0.048,1.36c0,0.992,0.117,1.648,0.352,1.968
		c0.96-0.395,2.214-0.928,3.76-1.6c0.353-0.17,0.528-0.347,0.528-0.528c0-0.074-0.021-0.16-0.063-0.256l-0.064-0.16
		c0-0.053,0.032-0.08,0.096-0.08c0.139,0,0.39,0.149,0.752,0.448c0.405,0.32,0.608,0.603,0.608,0.848
		c0,0.128-0.096,0.229-0.288,0.304c-0.043,0.021-0.245,0.075-0.608,0.16c-2.09,0.512-3.851,1.115-5.279,1.808
		c-2.08,1.024-3.12,2.128-3.12,3.312c0,0.917,0.453,1.562,1.36,1.936c0.672,0.277,1.669,0.416,2.991,0.416
		c0.938,0,1.781-0.064,2.528-0.192c0.469-0.074,0.944-0.186,1.424-0.336c0.395-0.128,0.641-0.192,0.736-0.192
		c0.213,0,0.399,0.064,0.56,0.192C46.993,132.982,47.073,133.136,47.073,133.318z M47.073,123.125c0,0.267-0.106,0.4-0.32,0.4
		c-0.117,0-0.261-0.118-0.432-0.352c-0.267-0.395-0.411-0.608-0.432-0.64c-0.182-0.192-0.523-0.517-1.024-0.976
		c0.395,0,0.843,0.155,1.344,0.464C46.785,122.363,47.073,122.731,47.073,123.125z M48.321,121.91c0,0.288-0.112,0.432-0.336,0.432
		c-0.096,0-0.245-0.123-0.448-0.368c-0.171-0.213-0.352-0.432-0.544-0.656c-0.192-0.213-0.55-0.496-1.072-0.848
		c0.459,0,0.96,0.144,1.504,0.432C48.022,121.211,48.321,121.547,48.321,121.91z"/>
	<path class="st0" d="M48.433,145.638c-0.064,1.003-0.326,1.931-0.784,2.784c-0.662,1.237-1.595,1.856-2.8,1.856
		c-1.761,0-2.641-1.024-2.641-3.072v-1.936c0-0.928-0.357-1.392-1.071-1.392c-0.662,0-1.345,0.341-2.049,1.024
		c-0.597,0.576-1.231,2.059-1.903,4.448c-0.235,0.821-0.475,1.232-0.721,1.232c-0.096,0-0.208-0.123-0.336-0.368
		c-0.117-0.256-0.176-0.565-0.176-0.928c0-0.32,0.091-0.634,0.272-0.944c0.17-0.277,0.336-0.555,0.496-0.832
		c1.546-3.467,2.837-6.17,3.872-8.112c0.234-0.448,0.352-0.81,0.352-1.088c0-0.341-0.256-0.677-0.768-1.008
		c0.501,0,0.98,0.224,1.439,0.672c0.405,0.384,0.608,0.693,0.608,0.928c0,0.106-0.112,0.288-0.336,0.544
		c-0.171,0.192-0.342,0.384-0.513,0.576c-0.598,0.758-1.445,2.278-2.544,4.56c0.949-0.778,1.776-1.168,2.48-1.168
		c1.227,0,1.84,0.726,1.84,2.176c0,0.17,0.005,0.475,0.016,0.912c0,0.448,0,0.758,0,0.928c0,1.366,0.576,2.048,1.729,2.048
		C46.422,149.478,47.601,148.198,48.433,145.638z"/>
</g>
<g>
	<path class="st1" d="M23.661,0.26c7.828-0.131,12.991,3.031,15.844,7.899c0.555,0.948,1.719,3.912,1.286,5.649
		c-0.767,3.076-4.712,6.895-7.899,7.486c0.011-2.02,0.397-6.497-0.413-7.578c-2.418-3.224-13.612-3.173-15.936,0.092
		c-0.738,1.037-0.382,5.322-0.367,7.119c-0.015,0-0.031,0-0.046,0c-3.448-1.37-6.684-3.323-7.807-6.981
		c-0.272-0.886,0.082-2.318,0.276-3.031c0.733-2.7,2.047-4.909,3.95-6.43c2-1.599,4.224-2.802,7.027-3.628
		c0.949-0.168,1.898-0.337,2.847-0.505C22.834,0.322,23.247,0.291,23.661,0.26z"/>
	<path class="st1" d="M6.576,9.17c0,0,0.195,3.163,0.321,3.582c0.741,2.45,1.99,4.94,3.812,6.338
		c2.717,2.085,6.147,3.323,10.104,4.179c2.191,0.474,5.033,0.031,7.302,0.505c2.411,0.504,4.146,1.666,5.603,3.123
		c2.046,2.046,2.468,4.694,0.964,7.624c-0.337,0.551-0.674,1.102-1.01,1.653c-1.209,0.26-2.419,0.521-3.628,0.781
		c-3.752,0.81-9.16,0.907-12.767-0.092c-6.369-1.763-10.906-5.48-13.364-11.114c-1.126-2.581-1.879-6.601-0.873-9.966
		C3.846,13.09,5.228,11.234,6.576,9.17z"/>
	<path class="st1" d="M42.261,9.445c0.728,0.416,1.258,1.622,1.699,2.342c1.616,2.635,3.202,6.895,2.113,11.206
		c-1.519,6.013-5.729,10.794-11.068,12.997c0.42-1.243,1.21-2.24,1.516-3.766c0.87-4.351-3.519-8.096-6.521-8.91
		c0.459-0.138,0.919-0.276,1.378-0.413c1.102-0.429,2.205-0.857,3.307-1.286C38.736,19.83,42.85,15.513,42.261,9.445z"/>
	<path class="st1" d="M21.227,22.305c-1.489-0.076-2.818-0.652-4.087-1.01c0-1.531,0-3.062,0-4.593
		c1.199,0.754,2.424,1.235,4.087,1.607C21.227,19.641,21.227,20.973,21.227,22.305z"/>
	<path class="st1" d="M31.927,16.702c0,1.668,0,3.337,0,5.006c-1.264,0.211-2.566,0.663-3.95,0.964
		c0.015-1.469,0.031-2.939,0.046-4.409C29.387,18.155,31.195,17.516,31.927,16.702z"/>
	<path class="st1" d="M22.191,18.447c1.56,0.103,3.258,0.04,4.822,0c0,1.408,0,2.817,0,4.225c-1.607-0.077-3.215-0.153-4.822-0.23
		C22.191,21.111,22.191,19.779,22.191,18.447z"/>
</g>
<g>
</g>
<g>
</g>
<g>
</g>
<g>
</g>
<g>
</g>
<g>
</g>
<g>
</g>
<g>
</g>
<g>
</g>
<g>
</g>
<g>
</g>
<g>
</g>
<g>
</g>
<g>
</g>
<g>
</g>
</svg>
